<svg width="296" height="261" viewBox="0 0 296 261" fill="none" xmlns="http://www.w3.org/2000/svg">
<path d="M116.719 120.965C117.654 133.098 126.938 142.548 143.585 143.667V152.621H150.972V143.604C168.21 142.357 178.281 132.844 178.281 119.032C178.281 106.479 170.574 100.005 156.796 96.6472L150.972 95.2227V70.8415C158.36 71.7064 163.063 75.878 164.196 81.6522H177.148C176.213 69.964 166.51 60.8194 150.972 59.8274V50.8736H143.585V60.0182C128.871 61.5062 118.836 70.6507 118.836 83.5854C118.836 95.0319 126.298 102.307 138.697 105.296L143.585 106.542V132.411C136.012 131.229 131.001 126.942 129.868 120.965H116.719ZM143.523 93.4167C136.259 91.6743 132.319 88.1258 132.319 82.7841C132.319 76.8065 136.567 72.3296 143.585 71.0196V93.404L143.523 93.4167ZM152.043 108.59C160.871 110.701 164.947 114.122 164.947 120.164C164.947 127.057 159.874 131.788 150.972 132.653V108.335L152.043 108.59Z" fill="#00FF38" fill-opacity="0.75"/>
<path d="M147.5 190.776C124.642 190.776 102.72 181.396 86.5562 164.7C70.3929 148.004 61.3125 125.359 61.3125 101.747C61.3125 78.1353 70.3929 55.4905 86.5562 38.7944C102.72 22.0982 124.642 12.7184 147.5 12.7184C170.358 12.7184 192.28 22.0982 208.444 38.7944C224.607 55.4905 233.688 78.1353 233.688 101.747C233.688 125.359 224.607 148.004 208.444 164.7C192.28 181.396 170.358 190.776 147.5 190.776ZM147.5 203.495C173.624 203.495 198.678 192.775 217.15 173.693C235.622 154.612 246 128.732 246 101.747C246 74.7622 235.622 48.8824 217.15 29.8011C198.678 10.7198 173.624 0 147.5 0C121.376 0 96.3223 10.7198 77.85 29.8011C59.3777 48.8824 49 74.7622 49 101.747C49 128.732 59.3777 154.612 77.85 173.693C96.3223 192.775 121.376 203.495 147.5 203.495Z" fill="#00FF38" fill-opacity="0.75"/>
<path d="M147.5 171.699C129.54 171.699 112.315 164.329 99.6156 151.21C86.9159 138.092 79.7813 120.299 79.7812 101.747C79.7812 83.195 86.9159 65.4027 99.6156 52.2843C112.315 39.1659 129.54 31.796 147.5 31.796C165.46 31.796 182.685 39.1659 195.384 52.2843C208.084 65.4027 215.219 83.195 215.219 101.747C215.219 120.299 208.084 138.092 195.384 151.21C182.685 164.329 165.46 171.699 147.5 171.699ZM147.5 178.058C157.201 178.058 166.808 176.084 175.771 172.249C184.734 168.414 192.878 162.793 199.738 155.707C206.597 148.621 212.039 140.208 215.752 130.95C219.464 121.692 221.375 111.768 221.375 101.747C221.375 91.726 219.464 81.8029 215.752 72.5445C212.039 63.2861 206.597 54.8737 199.738 47.7876C192.878 40.7016 184.734 35.0806 175.771 31.2456C166.808 27.4107 157.201 25.4368 147.5 25.4368C127.907 25.4368 109.117 33.4767 95.2625 47.7876C81.4082 62.0986 73.625 81.5085 73.625 101.747C73.625 121.986 81.4082 141.396 95.2625 155.707C109.117 170.018 127.907 178.058 147.5 178.058Z" fill="#00FF38" fill-opacity="0.75"/>
<mask id="path-4-outside-1_3_27" maskUnits="userSpaceOnUse" x="58" y="213" width="180" height="48" fill="black">
<rect fill="white" x="58" y="213" width="180" height="48"/>
<path d="M73.2517 255C68.6717 255 65.2817 253.91 63.0817 251.73C60.9017 249.53 59.8117 246.14 59.8117 241.56V227.76C59.8117 223.14 60.9017 219.74 63.0817 217.56C65.2617 215.36 68.6317 214.28 73.1917 214.32H80.4517C84.2117 214.32 87.0817 215.1 89.0617 216.66C91.0417 218.2 92.1917 220.64 92.5117 223.98C92.6317 224.82 92.4717 225.46 92.0317 225.9C91.5917 226.34 90.9517 226.56 90.1117 226.56C88.5917 226.56 87.7117 225.72 87.4717 224.04C87.2717 222.2 86.6317 220.96 85.5517 220.32C84.4917 219.68 82.7917 219.36 80.4517 219.36H73.1917C71.0717 219.34 69.4017 219.58 68.1817 220.08C66.9817 220.58 66.1217 221.45 65.6017 222.69C65.1017 223.91 64.8517 225.6 64.8517 227.76V241.56C64.8517 243.7 65.1017 245.38 65.6017 246.6C66.1217 247.82 66.9917 248.69 68.2117 249.21C69.4317 249.71 71.1117 249.96 73.2517 249.96H80.4517C82.7917 249.96 84.4917 249.64 85.5517 249C86.6317 248.34 87.2717 247.1 87.4717 245.28C87.7117 243.6 88.5917 242.76 90.1117 242.76C90.9517 242.76 91.5917 242.98 92.0317 243.42C92.4717 243.86 92.6317 244.5 92.5117 245.34C92.1917 248.7 91.0417 251.15 89.0617 252.69C87.0817 254.23 84.2117 255 80.4517 255H73.2517ZM111.173 255C110.073 255 109.293 254.28 108.833 252.84L97.7331 217.68C97.4931 216.92 97.6031 216.16 98.0631 215.4C98.5431 214.64 99.2331 214.26 100.133 214.26C100.613 214.26 101.073 214.42 101.513 214.74C101.953 215.04 102.273 215.52 102.473 216.18L112.253 247.32H110.933L120.233 216.48C120.453 215.76 120.823 215.22 121.343 214.86C121.883 214.5 122.433 214.32 122.993 214.32C123.593 214.32 124.173 214.5 124.733 214.86C125.293 215.22 125.673 215.76 125.873 216.48L135.173 247.32H133.853L143.633 216.18C143.853 215.52 144.163 215.05 144.563 214.77C144.983 214.47 145.433 214.32 145.913 214.32C146.793 214.32 147.493 214.66 148.013 215.34C148.533 216.02 148.653 216.8 148.373 217.68L137.273 252.84C136.793 254.28 135.913 255 134.633 255H134.513C133.173 255 132.293 254.28 131.873 252.84L122.213 221.58H123.533L113.813 252.84C113.613 253.56 113.313 254.1 112.913 254.46C112.533 254.82 111.953 255 111.173 255ZM158.694 255C158.034 255 157.444 254.75 156.924 254.25C156.424 253.73 156.174 253.14 156.174 252.48V216.84C156.174 216.18 156.424 215.6 156.924 215.1C157.444 214.58 158.034 214.32 158.694 214.32C159.354 214.32 159.934 214.58 160.434 215.1C160.954 215.6 161.214 216.18 161.214 216.84V231.9H185.694V216.84C185.694 216.18 185.944 215.6 186.444 215.1C186.944 214.58 187.534 214.32 188.214 214.32C188.874 214.32 189.454 214.58 189.954 215.1C190.474 215.6 190.734 216.18 190.734 216.84V252.48C190.734 253.14 190.474 253.73 189.954 254.25C189.454 254.75 188.874 255 188.214 255C187.534 255 186.944 254.75 186.444 254.25C185.944 253.73 185.694 253.14 185.694 252.48V236.94H161.214V252.48C161.214 253.14 160.954 253.73 160.434 254.25C159.934 254.75 159.354 255 158.694 255ZM235.564 256.32C235.984 256.76 236.184 257.24 236.164 257.76C236.164 258.3 235.904 258.8 235.384 259.26C234.404 260.18 233.404 260.16 232.384 259.2L222.064 248.28C221.624 247.82 221.404 247.33 221.404 246.81C221.404 246.27 221.644 245.78 222.124 245.34C223.124 244.4 224.144 244.42 225.184 245.4L235.564 256.32ZM215.224 255C210.644 255 207.254 253.91 205.054 251.73C202.874 249.53 201.784 246.14 201.784 241.56V227.7C201.784 223.08 202.884 219.69 205.084 217.53C207.284 215.35 210.664 214.28 215.224 214.32H222.424C227.024 214.32 230.414 215.41 232.594 217.59C234.774 219.77 235.864 223.16 235.864 227.76V241.56C235.864 246.14 234.774 249.53 232.594 251.73C230.414 253.91 227.024 255 222.424 255H215.224ZM215.224 249.96H222.424C224.564 249.96 226.244 249.71 227.464 249.21C228.684 248.69 229.544 247.82 230.044 246.6C230.564 245.38 230.824 243.7 230.824 241.56V227.76C230.824 225.64 230.564 223.97 230.044 222.75C229.544 221.53 228.684 220.66 227.464 220.14C226.244 219.62 224.564 219.36 222.424 219.36H215.224C213.104 219.34 211.434 219.58 210.214 220.08C208.994 220.58 208.124 221.44 207.604 222.66C207.084 223.88 206.824 225.56 206.824 227.7V241.56C206.824 243.7 207.074 245.38 207.574 246.6C208.094 247.82 208.964 248.69 210.184 249.21C211.404 249.71 213.084 249.96 215.224 249.96Z"/>
</mask>
<path d="M73.2517 255C68.6717 255 65.2817 253.91 63.0817 251.73C60.9017 249.53 59.8117 246.14 59.8117 241.56V227.76C59.8117 223.14 60.9017 219.74 63.0817 217.56C65.2617 215.36 68.6317 214.28 73.1917 214.32H80.4517C84.2117 214.32 87.0817 215.1 89.0617 216.66C91.0417 218.2 92.1917 220.64 92.5117 223.98C92.6317 224.82 92.4717 225.46 92.0317 225.9C91.5917 226.34 90.9517 226.56 90.1117 226.56C88.5917 226.56 87.7117 225.72 87.4717 224.04C87.2717 222.2 86.6317 220.96 85.5517 220.32C84.4917 219.68 82.7917 219.36 80.4517 219.36H73.1917C71.0717 219.34 69.4017 219.58 68.1817 220.08C66.9817 220.58 66.1217 221.45 65.6017 222.69C65.1017 223.91 64.8517 225.6 64.8517 227.76V241.56C64.8517 243.7 65.1017 245.38 65.6017 246.6C66.1217 247.82 66.9917 248.69 68.2117 249.21C69.4317 249.71 71.1117 249.96 73.2517 249.96H80.4517C82.7917 249.96 84.4917 249.64 85.5517 249C86.6317 248.34 87.2717 247.1 87.4717 245.28C87.7117 243.6 88.5917 242.76 90.1117 242.76C90.9517 242.76 91.5917 242.98 92.0317 243.42C92.4717 243.86 92.6317 244.5 92.5117 245.34C92.1917 248.7 91.0417 251.15 89.0617 252.69C87.0817 254.23 84.2117 255 80.4517 255H73.2517ZM111.173 255C110.073 255 109.293 254.28 108.833 252.84L97.7331 217.68C97.4931 216.92 97.6031 216.16 98.0631 215.4C98.5431 214.64 99.2331 214.26 100.133 214.26C100.613 214.26 101.073 214.42 101.513 214.74C101.953 215.04 102.273 215.52 102.473 216.18L112.253 247.32H110.933L120.233 216.48C120.453 215.76 120.823 215.22 121.343 214.86C121.883 214.5 122.433 214.32 122.993 214.32C123.593 214.32 124.173 214.5 124.733 214.86C125.293 215.22 125.673 215.76 125.873 216.48L135.173 247.32H133.853L143.633 216.18C143.853 215.52 144.163 215.05 144.563 214.77C144.983 214.47 145.433 214.32 145.913 214.32C146.793 214.32 147.493 214.66 148.013 215.34C148.533 216.02 148.653 216.8 148.373 217.68L137.273 252.84C136.793 254.28 135.913 255 134.633 255H134.513C133.173 255 132.293 254.28 131.873 252.84L122.213 221.58H123.533L113.813 252.84C113.613 253.56 113.313 254.1 112.913 254.46C112.533 254.82 111.953 255 111.173 255ZM158.694 255C158.034 255 157.444 254.75 156.924 254.25C156.424 253.73 156.174 253.14 156.174 252.48V216.84C156.174 216.18 156.424 215.6 156.924 215.1C157.444 214.58 158.034 214.32 158.694 214.32C159.354 214.32 159.934 214.58 160.434 215.1C160.954 215.6 161.214 216.18 161.214 216.84V231.9H185.694V216.84C185.694 216.18 185.944 215.6 186.444 215.1C186.944 214.58 187.534 214.32 188.214 214.32C188.874 214.32 189.454 214.58 189.954 215.1C190.474 215.6 190.734 216.18 190.734 216.84V252.48C190.734 253.14 190.474 253.73 189.954 254.25C189.454 254.75 188.874 255 188.214 255C187.534 255 186.944 254.75 186.444 254.25C185.944 253.73 185.694 253.14 185.694 252.48V236.94H161.214V252.48C161.214 253.14 160.954 253.73 160.434 254.25C159.934 254.75 159.354 255 158.694 255ZM235.564 256.32C235.984 256.76 236.184 257.24 236.164 257.76C236.164 258.3 235.904 258.8 235.384 259.26C234.404 260.18 233.404 260.16 232.384 259.2L222.064 248.28C221.624 247.82 221.404 247.33 221.404 246.81C221.404 246.27 221.644 245.78 222.124 245.34C223.124 244.4 224.144 244.42 225.184 245.4L235.564 256.32ZM215.224 255C210.644 255 207.254 253.91 205.054 251.73C202.874 249.53 201.784 246.14 201.784 241.56V227.7C201.784 223.08 202.884 219.69 205.084 217.53C207.284 215.35 210.664 214.28 215.224 214.32H222.424C227.024 214.32 230.414 215.41 232.594 217.59C234.774 219.77 235.864 223.16 235.864 227.76V241.56C235.864 246.14 234.774 249.53 232.594 251.73C230.414 253.91 227.024 255 222.424 255H215.224ZM215.224 249.96H222.424C224.564 249.96 226.244 249.71 227.464 249.21C228.684 248.69 229.544 247.82 230.044 246.6C230.564 245.38 230.824 243.7 230.824 241.56V227.76C230.824 225.64 230.564 223.97 230.044 222.75C229.544 221.53 228.684 220.66 227.464 220.14C226.244 219.62 224.564 219.36 222.424 219.36H215.224C213.104 219.34 211.434 219.58 210.214 220.08C208.994 220.58 208.124 221.44 207.604 222.66C207.084 223.88 206.824 225.56 206.824 227.7V241.56C206.824 243.7 207.074 245.38 207.574 246.6C208.094 247.82 208.964 248.69 210.184 249.21C211.404 249.71 213.084 249.96 215.224 249.96Z" fill="black"/>
<path d="M63.0817 251.73L62.3714 252.434L62.3778 252.44L63.0817 251.73ZM63.0817 217.56L63.7888 218.267L63.792 218.264L63.0817 217.56ZM73.1917 214.32L73.1829 215.32H73.1917V214.32ZM89.0617 216.66L88.4428 217.446L88.4478 217.449L89.0617 216.66ZM92.5117 223.98L91.5163 224.075L91.5185 224.098L91.5218 224.121L92.5117 223.98ZM92.0317 225.9L92.7388 226.607L92.7388 226.607L92.0317 225.9ZM87.4717 224.04L86.4776 224.148L86.4794 224.165L86.4818 224.181L87.4717 224.04ZM85.5517 220.32L85.0348 221.176L85.0419 221.18L85.5517 220.32ZM73.1917 219.36L73.1823 220.36H73.1917V219.36ZM68.1817 220.08L67.8025 219.155L67.7971 219.157L68.1817 220.08ZM65.6017 222.69L64.6795 222.303L64.6764 222.311L65.6017 222.69ZM65.6017 246.6L64.6763 246.979L64.6818 246.992L65.6017 246.6ZM68.2117 249.21L67.8196 250.13L67.8325 250.135L68.2117 249.21ZM85.5517 249L86.0686 249.856L86.0732 249.853L85.5517 249ZM87.4717 245.28L86.4818 245.139L86.4795 245.155L86.4777 245.171L87.4717 245.28ZM92.0317 243.42L92.7388 242.713L92.7388 242.713L92.0317 243.42ZM92.5117 245.34L91.5218 245.199L91.5184 245.222L91.5162 245.245L92.5117 245.34ZM89.0617 252.69L89.6757 253.479L89.6757 253.479L89.0617 252.69ZM73.2517 254C68.8101 254 65.725 252.941 63.7856 251.02L62.3778 252.44C64.8384 254.879 68.5334 256 73.2517 256V254ZM63.792 251.026C61.8703 249.087 60.8117 246.002 60.8117 241.56H58.8117C58.8117 246.278 59.9332 249.973 62.3714 252.434L63.792 251.026ZM60.8117 241.56V227.76H58.8117V241.56H60.8117ZM60.8117 227.76C60.8117 223.275 61.872 220.184 63.7888 218.267L62.3746 216.853C59.9314 219.296 58.8117 223.005 58.8117 227.76H60.8117ZM63.792 218.264C65.708 216.33 68.7654 215.281 73.1829 215.32L73.2005 213.32C68.4981 213.279 64.8154 214.39 62.3714 216.856L63.792 218.264ZM73.1917 215.32H80.4517V213.32H73.1917V215.32ZM80.4517 215.32C84.093 215.32 86.7074 216.078 88.4429 217.445L89.6806 215.875C87.4561 214.122 84.3305 213.32 80.4517 213.32V215.32ZM88.4478 217.449C90.1444 218.769 91.2133 220.913 91.5163 224.075L93.5072 223.885C93.1701 220.367 91.939 217.631 89.6757 215.871L88.4478 217.449ZM91.5218 224.121C91.6147 224.772 91.4674 225.05 91.3246 225.193L92.7388 226.607C93.476 225.87 93.6488 224.868 93.5017 223.839L91.5218 224.121ZM91.3246 225.193C91.1303 225.387 90.782 225.56 90.1117 225.56V227.56C91.1215 227.56 92.0531 227.293 92.7388 226.607L91.3246 225.193ZM90.1117 225.56C89.5416 225.56 89.2126 225.407 89.0022 225.207C88.7779 224.993 88.5623 224.603 88.4617 223.899L86.4818 224.181C86.6212 225.157 86.9656 226.027 87.6212 226.653C88.2908 227.293 89.1618 227.56 90.1117 227.56V225.56ZM88.4659 223.932C88.2487 221.934 87.5231 220.326 86.0615 219.46L85.0419 221.18C85.7403 221.594 86.2948 222.466 86.4776 224.148L88.4659 223.932ZM86.0686 219.464C84.767 218.678 82.8375 218.36 80.4517 218.36V220.36C82.746 220.36 84.2165 220.682 85.0348 221.176L86.0686 219.464ZM80.4517 218.36H73.1917V220.36H80.4517V218.36ZM73.2012 218.36C71.0193 218.339 69.1981 218.583 67.8025 219.155L68.5609 221.005C69.6054 220.577 71.1241 220.341 73.1823 220.36L73.2012 218.36ZM67.7971 219.157C66.3452 219.762 65.2973 220.83 64.6795 222.303L66.5239 223.077C66.9461 222.07 67.6182 221.398 68.5663 221.003L67.7971 219.157ZM64.6764 222.311C64.1055 223.704 63.8517 225.542 63.8517 227.76H65.8517C65.8517 225.658 66.0979 224.116 66.527 223.069L64.6764 222.311ZM63.8517 227.76V241.56H65.8517V227.76H63.8517ZM63.8517 241.56C63.8517 243.759 64.1059 245.587 64.6764 246.979L66.527 246.221C66.0976 245.173 65.8517 243.641 65.8517 241.56H63.8517ZM64.6818 246.992C65.303 248.45 66.3621 249.509 67.8196 250.13L68.6038 248.29C67.6213 247.871 66.9404 247.19 66.5216 246.208L64.6818 246.992ZM67.8325 250.135C69.2246 250.706 71.0527 250.96 73.2517 250.96V248.96C71.1707 248.96 69.6388 248.714 68.5909 248.285L67.8325 250.135ZM73.2517 250.96H80.4517V248.96H73.2517V250.96ZM80.4517 250.96C82.8375 250.96 84.767 250.642 86.0686 249.856L85.0348 248.144C84.2165 248.638 82.746 248.96 80.4517 248.96V250.96ZM86.0732 249.853C87.5202 248.969 88.2477 247.373 88.4657 245.389L86.4777 245.171C86.2957 246.827 85.7432 247.711 85.0303 248.147L86.0732 249.853ZM88.4617 245.421C88.5623 244.717 88.7779 244.327 89.0022 244.113C89.2126 243.913 89.5416 243.76 90.1117 243.76V241.76C89.1618 241.76 88.2908 242.027 87.6212 242.667C86.9656 243.293 86.6212 244.163 86.4818 245.139L88.4617 245.421ZM90.1117 243.76C90.782 243.76 91.1303 243.933 91.3246 244.127L92.7388 242.713C92.0531 242.027 91.1215 241.76 90.1117 241.76V243.76ZM91.3246 244.127C91.4674 244.27 91.6147 244.548 91.5218 245.199L93.5017 245.481C93.6488 244.452 93.476 243.45 92.7388 242.713L91.3246 244.127ZM91.5162 245.245C91.213 248.429 90.143 250.582 88.4478 251.901L89.6757 253.479C91.9404 251.718 93.1705 248.971 93.5072 245.435L91.5162 245.245ZM88.4478 251.901C86.7118 253.251 84.0953 254 80.4517 254V256C84.3281 256 87.4517 255.209 89.6757 253.479L88.4478 251.901ZM80.4517 254H73.2517V256H80.4517V254ZM108.833 252.84L107.88 253.141L107.881 253.144L108.833 252.84ZM97.7331 217.68L98.6867 217.379L98.6867 217.379L97.7331 217.68ZM98.0631 215.4L97.2176 214.866L97.2126 214.874L97.2076 214.882L98.0631 215.4ZM101.513 214.74L100.925 215.549L100.937 215.558L100.95 215.566L101.513 214.74ZM102.473 216.18L101.516 216.47L101.519 216.48L102.473 216.18ZM112.253 247.32V248.32H113.615L113.207 247.02L112.253 247.32ZM110.933 247.32L109.976 247.031L109.587 248.32H110.933V247.32ZM120.233 216.48L119.277 216.188L119.276 216.191L120.233 216.48ZM121.343 214.86L120.788 214.028L120.781 214.033L120.774 214.038L121.343 214.86ZM125.873 216.48L124.91 216.748L124.913 216.758L124.916 216.769L125.873 216.48ZM135.173 247.32V248.32H136.519L136.131 247.031L135.173 247.32ZM133.853 247.32L132.899 247.02L132.491 248.32H133.853V247.32ZM143.633 216.18L142.684 215.864L142.682 215.872L142.679 215.88L143.633 216.18ZM144.563 214.77L145.137 215.589L145.144 215.584L144.563 214.77ZM148.013 215.34L147.219 215.947L147.219 215.947L148.013 215.34ZM148.373 217.68L147.42 217.377L147.42 217.379L148.373 217.68ZM137.273 252.84L138.222 253.156L138.224 253.149L138.227 253.141L137.273 252.84ZM131.873 252.84L132.833 252.56L132.831 252.552L132.829 252.545L131.873 252.84ZM122.213 221.58V220.58H120.857L121.258 221.875L122.213 221.58ZM123.533 221.58L124.488 221.877L124.891 220.58H123.533V221.58ZM113.813 252.84L112.858 252.543L112.854 252.558L112.85 252.572L113.813 252.84ZM112.913 254.46L112.244 253.717L112.235 253.725L112.225 253.734L112.913 254.46ZM111.173 254C110.864 254 110.639 253.908 110.441 253.725C110.221 253.522 109.984 253.157 109.786 252.536L107.881 253.144C108.142 253.963 108.525 254.678 109.085 255.195C109.667 255.732 110.382 256 111.173 256V254ZM109.787 252.539L98.6867 217.379L96.7795 217.981L107.88 253.141L109.787 252.539ZM98.6867 217.379C98.5439 216.927 98.5885 216.463 98.9186 215.918L97.2076 214.882C96.6177 215.857 96.4424 216.913 96.7795 217.981L98.6867 217.379ZM98.9086 215.934C99.2051 215.465 99.5757 215.26 100.133 215.26V213.26C98.8905 213.26 97.8811 213.815 97.2176 214.866L98.9086 215.934ZM100.133 215.26C100.374 215.26 100.632 215.336 100.925 215.549L102.101 213.931C101.514 213.504 100.852 213.26 100.133 213.26V215.26ZM100.95 215.566C101.152 215.704 101.363 215.963 101.516 216.47L103.43 215.89C103.184 215.077 102.755 214.376 102.076 213.914L100.95 215.566ZM101.519 216.48L111.299 247.62L113.207 247.02L103.427 215.88L101.519 216.48ZM112.253 246.32H110.933V248.32H112.253V246.32ZM111.891 247.609L121.191 216.769L119.276 216.191L109.976 247.031L111.891 247.609ZM121.189 216.772C121.357 216.225 121.611 215.891 121.912 215.682L120.774 214.038C120.035 214.549 119.55 215.295 119.277 216.188L121.189 216.772ZM121.898 215.692C122.3 215.424 122.66 215.32 122.993 215.32V213.32C122.206 213.32 121.466 213.576 120.788 214.028L121.898 215.692ZM122.993 215.32C123.381 215.32 123.775 215.433 124.192 215.701L125.274 214.019C124.571 213.567 123.806 213.32 122.993 213.32V215.32ZM124.192 215.701C124.52 215.912 124.767 216.233 124.91 216.748L126.837 216.212C126.58 215.287 126.066 214.528 125.274 214.019L124.192 215.701ZM124.916 216.769L134.216 247.609L136.131 247.031L126.831 216.191L124.916 216.769ZM135.173 246.32H133.853V248.32H135.173V246.32ZM134.807 247.62L144.587 216.48L142.679 215.88L132.899 247.02L134.807 247.62ZM144.582 216.496C144.762 215.956 144.973 215.704 145.137 215.589L143.99 213.951C143.353 214.396 142.944 215.084 142.684 215.864L144.582 216.496ZM145.144 215.584C145.408 215.395 145.658 215.32 145.913 215.32V213.32C145.209 213.32 144.558 213.545 143.982 213.956L145.144 215.584ZM145.913 215.32C146.492 215.32 146.894 215.523 147.219 215.947L148.807 214.733C148.092 213.797 147.094 213.32 145.913 213.32V215.32ZM147.219 215.947C147.523 216.345 147.61 216.779 147.42 217.377L149.326 217.983C149.696 216.821 149.544 215.695 148.807 214.733L147.219 215.947ZM147.42 217.379L136.32 252.539L138.227 253.141L149.327 217.981L147.42 217.379ZM136.324 252.524C136.125 253.123 135.872 253.48 135.62 253.686C135.381 253.881 135.073 254 134.633 254V256C135.473 256 136.245 255.759 136.886 255.234C137.514 254.72 137.942 253.997 138.222 253.156L136.324 252.524ZM134.633 254H134.513V256H134.633V254ZM134.513 254C134.031 254 133.712 253.875 133.481 253.686C133.241 253.489 133.004 253.147 132.833 252.56L130.913 253.12C131.162 253.973 131.576 254.711 132.215 255.234C132.864 255.765 133.655 256 134.513 256V254ZM132.829 252.545L123.169 221.285L121.258 221.875L130.918 253.135L132.829 252.545ZM122.213 222.58H123.533V220.58H122.213V222.58ZM122.578 221.283L112.858 252.543L114.768 253.137L124.488 221.877L122.578 221.283ZM112.85 252.572C112.682 253.178 112.458 253.524 112.244 253.717L113.582 255.203C114.168 254.676 114.545 253.942 114.777 253.108L112.85 252.572ZM112.225 253.734C112.105 253.848 111.821 254 111.173 254V256C112.086 256 112.962 255.792 113.601 255.186L112.225 253.734ZM156.924 254.25L156.203 254.943L156.216 254.957L156.23 254.971L156.924 254.25ZM156.924 215.1L157.631 215.807L157.631 215.807L156.924 215.1ZM160.434 215.1L159.713 215.793L159.726 215.807L159.74 215.821L160.434 215.1ZM161.214 231.9H160.214V232.9H161.214V231.9ZM185.694 231.9V232.9H186.694V231.9H185.694ZM186.444 215.1L187.151 215.807L187.158 215.8L187.164 215.793L186.444 215.1ZM189.954 215.1L189.233 215.793L189.246 215.807L189.26 215.821L189.954 215.1ZM189.954 254.25L190.661 254.957L190.661 254.957L189.954 254.25ZM186.444 254.25L185.723 254.943L185.73 254.95L185.736 254.957L186.444 254.25ZM185.694 236.94H186.694V235.94H185.694V236.94ZM161.214 236.94V235.94H160.214V236.94H161.214ZM160.434 254.25L161.141 254.957L161.141 254.957L160.434 254.25ZM158.694 254C158.317 254 157.969 253.868 157.617 253.529L156.23 254.971C156.918 255.632 157.75 256 158.694 256V254ZM157.644 253.557C157.305 253.204 157.174 252.856 157.174 252.48H155.174C155.174 253.424 155.542 254.256 156.203 254.943L157.644 253.557ZM157.174 252.48V216.84H155.174V252.48H157.174ZM157.174 216.84C157.174 216.465 157.303 216.134 157.631 215.807L156.216 214.393C155.544 215.066 155.174 215.895 155.174 216.84H157.174ZM157.631 215.807C157.987 215.451 158.33 215.32 158.694 215.32V213.32C157.737 213.32 156.901 213.709 156.216 214.393L157.631 215.807ZM158.694 215.32C159.055 215.32 159.382 215.449 159.713 215.793L161.154 214.407C160.485 213.711 159.652 213.32 158.694 213.32V215.32ZM159.74 215.821C160.085 216.152 160.214 216.479 160.214 216.84H162.214C162.214 215.881 161.823 215.048 161.127 214.379L159.74 215.821ZM160.214 216.84V231.9H162.214V216.84H160.214ZM161.214 232.9H185.694V230.9H161.214V232.9ZM186.694 231.9V216.84H184.694V231.9H186.694ZM186.694 216.84C186.694 216.465 186.823 216.134 187.151 215.807L185.736 214.393C185.064 215.066 184.694 215.895 184.694 216.84H186.694ZM187.164 215.793C187.489 215.456 187.824 215.32 188.214 215.32V213.32C187.244 213.32 186.398 213.704 185.723 214.407L187.164 215.793ZM188.214 215.32C188.575 215.32 188.902 215.449 189.233 215.793L190.674 214.407C190.005 213.711 189.172 213.32 188.214 213.32V215.32ZM189.26 215.821C189.605 216.152 189.734 216.479 189.734 216.84H191.734C191.734 215.881 191.343 215.048 190.647 214.379L189.26 215.821ZM189.734 216.84V252.48H191.734V216.84H189.734ZM189.734 252.48C189.734 252.843 189.602 253.187 189.246 253.543L190.661 254.957C191.345 254.273 191.734 253.437 191.734 252.48H189.734ZM189.246 253.543C188.919 253.87 188.588 254 188.214 254V256C189.159 256 189.988 255.63 190.661 254.957L189.246 253.543ZM188.214 254C187.81 254 187.472 253.864 187.151 253.543L185.736 254.957C186.416 255.636 187.257 256 188.214 256V254ZM187.164 253.557C186.825 253.204 186.694 252.856 186.694 252.48H184.694C184.694 253.424 185.062 254.256 185.723 254.943L187.164 253.557ZM186.694 252.48V236.94H184.694V252.48H186.694ZM185.694 235.94H161.214V237.94H185.694V235.94ZM160.214 236.94V252.48H162.214V236.94H160.214ZM160.214 252.48C160.214 252.843 160.082 253.187 159.726 253.543L161.141 254.957C161.825 254.273 162.214 253.437 162.214 252.48H160.214ZM159.726 253.543C159.399 253.87 159.068 254 158.694 254V256C159.639 256 160.468 255.63 161.141 254.957L159.726 253.543ZM235.564 256.32L234.84 257.009L234.841 257.01L235.564 256.32ZM236.164 257.76L235.165 257.722L235.164 257.741V257.76H236.164ZM235.384 259.26L234.722 258.511L234.711 258.521L234.7 258.531L235.384 259.26ZM232.384 259.2L231.658 259.887L231.678 259.908L231.699 259.928L232.384 259.2ZM222.064 248.28L222.791 247.593L222.787 247.589L222.064 248.28ZM222.124 245.34L222.8 246.077L222.809 246.069L222.124 245.34ZM225.184 245.4L225.909 244.711L225.89 244.691L225.87 244.672L225.184 245.4ZM205.054 251.73L204.344 252.434L204.351 252.44L205.054 251.73ZM205.084 217.53L205.785 218.244L205.788 218.24L205.084 217.53ZM215.224 214.32L215.216 215.32H215.224V214.32ZM232.594 217.59L233.301 216.883L233.301 216.883L232.594 217.59ZM232.594 251.73L233.301 252.437L233.305 252.434L232.594 251.73ZM227.464 249.21L227.844 250.135L227.856 250.13L227.464 249.21ZM230.044 246.6L229.124 246.208L229.119 246.221L230.044 246.6ZM230.044 222.75L229.119 223.129L229.124 223.142L230.044 222.75ZM227.464 220.14L227.856 219.22L227.464 220.14ZM215.224 219.36L215.215 220.36H215.224V219.36ZM210.214 220.08L209.835 219.155L209.835 219.155L210.214 220.08ZM207.604 222.66L206.684 222.268L206.684 222.268L207.604 222.66ZM207.574 246.6L206.649 246.979L206.654 246.992L207.574 246.6ZM210.184 249.21L209.792 250.13L209.805 250.135L210.184 249.21ZM234.841 257.01C235.108 257.291 235.173 257.518 235.165 257.722L237.164 257.798C237.196 256.962 236.86 256.229 236.288 255.63L234.841 257.01ZM235.164 257.76C235.164 257.936 235.093 258.183 234.722 258.511L236.047 260.009C236.716 259.417 237.164 258.664 237.164 257.76H235.164ZM234.7 258.531C234.333 258.875 234.079 258.938 233.919 258.935C233.751 258.932 233.472 258.85 233.07 258.472L231.699 259.928C232.317 260.51 233.048 260.918 233.879 260.935C234.72 260.952 235.456 260.565 236.069 259.989L234.7 258.531ZM233.111 258.513L222.791 247.593L221.338 248.967L231.658 259.887L233.111 258.513ZM222.787 247.589C222.483 247.271 222.404 247.017 222.404 246.81H220.404C220.404 247.643 220.766 248.369 221.342 248.971L222.787 247.589ZM222.404 246.81C222.404 246.607 222.481 246.37 222.8 246.077L221.449 244.603C220.808 245.19 220.404 245.933 220.404 246.81H222.404ZM222.809 246.069C223.186 245.714 223.451 245.646 223.62 245.65C223.798 245.653 224.087 245.74 224.499 246.128L225.87 244.672C225.242 244.08 224.501 243.667 223.659 243.65C222.808 243.634 222.062 244.026 221.439 244.611L222.809 246.069ZM224.46 246.089L234.84 257.009L236.289 255.631L225.909 244.711L224.46 246.089ZM215.224 254C210.783 254 207.698 252.941 205.758 251.02L204.351 252.44C206.811 254.879 210.506 256 215.224 256V254ZM205.765 251.026C203.843 249.087 202.784 246.002 202.784 241.56H200.784C200.784 246.278 201.906 249.973 204.344 252.434L205.765 251.026ZM202.784 241.56V227.7H200.784V241.56H202.784ZM202.784 227.7C202.784 223.216 203.854 220.139 205.785 218.244L204.384 216.816C201.915 219.241 200.784 222.944 200.784 227.7H202.784ZM205.788 218.24C207.725 216.321 210.797 215.281 215.216 215.32L215.233 213.32C210.532 213.279 206.844 214.379 204.381 216.82L205.788 218.24ZM215.224 215.32H222.424V213.32H215.224V215.32ZM222.424 215.32C226.888 215.32 229.97 216.38 231.887 218.297L233.301 216.883C230.859 214.44 227.16 213.32 222.424 213.32V215.32ZM231.887 218.297C233.805 220.215 234.864 223.296 234.864 227.76H236.864C236.864 223.024 235.744 219.325 233.301 216.883L231.887 218.297ZM234.864 227.76V241.56H236.864V227.76H234.864ZM234.864 241.56C234.864 246.002 233.806 249.087 231.884 251.026L233.305 252.434C235.743 249.973 236.864 246.278 236.864 241.56H234.864ZM231.887 251.023C229.97 252.94 226.888 254 222.424 254V256C227.16 256 230.859 254.88 233.301 252.437L231.887 251.023ZM222.424 254H215.224V256H222.424V254ZM215.224 250.96H222.424V248.96H215.224V250.96ZM222.424 250.96C224.623 250.96 226.451 250.706 227.844 250.135L227.085 248.285C226.037 248.714 224.505 248.96 222.424 248.96V250.96ZM227.856 250.13C229.317 249.507 230.369 248.444 230.97 246.979L229.119 246.221C228.719 247.196 228.052 247.873 227.072 248.29L227.856 250.13ZM230.964 246.992C231.56 245.595 231.824 243.762 231.824 241.56H229.824C229.824 243.638 229.569 245.165 229.124 246.208L230.964 246.992ZM231.824 241.56V227.76H229.824V241.56H231.824ZM231.824 227.76C231.824 225.577 231.559 223.754 230.964 222.358L229.124 223.142C229.569 224.186 229.824 225.703 229.824 227.76H231.824ZM230.97 222.371C230.369 220.906 229.317 219.843 227.856 219.22L227.072 221.06C228.052 221.477 228.719 222.154 229.119 223.129L230.97 222.371ZM227.856 219.22C226.46 218.625 224.626 218.36 222.424 218.36V220.36C224.502 220.36 226.029 220.615 227.072 221.06L227.856 219.22ZM222.424 218.36H215.224V220.36H222.424V218.36ZM215.234 218.36C213.052 218.339 211.231 218.583 209.835 219.155L210.594 221.005C211.638 220.577 213.157 220.341 215.215 220.36L215.234 218.36ZM209.835 219.155C208.37 219.755 207.307 220.808 206.684 222.268L208.524 223.052C208.942 222.072 209.619 221.405 210.594 221.005L209.835 219.155ZM206.684 222.268C206.089 223.665 205.824 225.498 205.824 227.7H207.824C207.824 225.622 208.08 224.095 208.524 223.052L206.684 222.268ZM205.824 227.7V241.56H207.824V227.7H205.824ZM205.824 241.56C205.824 243.759 206.079 245.587 206.649 246.979L208.5 246.221C208.07 245.173 207.824 243.641 207.824 241.56H205.824ZM206.654 246.992C207.276 248.45 208.335 249.509 209.792 250.13L210.576 248.29C209.594 247.871 208.913 247.19 208.494 246.208L206.654 246.992ZM209.805 250.135C211.197 250.706 213.025 250.96 215.224 250.96V248.96C213.143 248.96 211.611 248.714 210.564 248.285L209.805 250.135Z" fill="#2FB834" mask="url(#path-4-outside-1_3_27)"/>
</svg>
