<svg width="453" height="136" viewBox="0 0 453 136" fill="none" xmlns="http://www.w3.org/2000/svg">
<path d="M217.281 65.8771C217.713 71.4819 222.002 75.847 229.691 76.364V80.5H233.104V76.3346C241.066 75.7589 245.719 71.3644 245.719 64.9841C245.719 59.1855 242.158 56.1951 235.794 54.6441L233.104 53.9861V42.7238C236.516 43.1233 238.689 45.0503 239.212 47.7175H245.195C244.763 42.3184 240.281 38.0942 233.104 37.636V33.5H229.691V37.7241C222.895 38.4115 218.259 42.6356 218.259 48.6105C218.259 53.898 221.706 57.2585 227.433 58.6391L229.691 59.2149V71.1646C226.194 70.6183 223.879 68.6384 223.355 65.8771H217.281ZM229.663 53.1519C226.307 52.347 224.487 50.7079 224.487 48.2404C224.487 45.4791 226.45 43.4111 229.691 42.806V53.146L229.663 53.1519ZM233.599 60.1608C237.677 61.136 239.559 62.7164 239.559 65.507C239.559 68.6912 237.216 70.8768 233.104 71.2763V60.0432L233.599 60.1608Z" fill="#00FF38" fill-opacity="0.75"/>
<path d="M231.5 98.125C220.941 98.125 210.815 93.7922 203.348 86.0798C195.882 78.3673 191.688 67.907 191.688 57C191.688 46.093 195.882 35.6327 203.348 27.9202C210.815 20.2078 220.941 15.875 231.5 15.875C242.059 15.875 252.185 20.2078 259.652 27.9202C267.118 35.6327 271.312 46.093 271.312 57C271.312 67.907 267.118 78.3673 259.652 86.0798C252.185 93.7922 242.059 98.125 231.5 98.125ZM231.5 104C243.567 104 255.14 99.0482 263.673 90.234C272.206 81.4198 277 69.4652 277 57C277 44.5348 272.206 32.5802 263.673 23.766C255.14 14.9518 243.567 10 231.5 10C219.433 10 207.86 14.9518 199.327 23.766C190.794 32.5802 186 44.5348 186 57C186 69.4652 190.794 81.4198 199.327 90.234C207.86 99.0482 219.433 104 231.5 104Z" fill="#00FF38" fill-opacity="0.75"/>
<path d="M231.5 89.3125C223.204 89.3125 215.247 85.9082 209.381 79.8484C203.514 73.7886 200.219 65.5698 200.219 57C200.219 48.4302 203.514 40.2114 209.381 34.1516C215.247 28.0918 223.204 24.6875 231.5 24.6875C239.796 24.6875 247.753 28.0918 253.619 34.1516C259.486 40.2114 262.781 48.4302 262.781 57C262.781 65.5698 259.486 73.7886 253.619 79.8484C247.753 85.9082 239.796 89.3125 231.5 89.3125ZM231.5 92.25C235.981 92.25 240.419 91.3382 244.559 89.5668C248.699 87.7953 252.461 85.1988 255.63 81.9255C258.799 78.6522 261.312 74.7663 263.027 70.4896C264.742 66.2129 265.625 61.6291 265.625 57C265.625 52.3709 264.742 47.7871 263.027 43.5104C261.312 39.2337 258.799 35.3478 255.63 32.0745C252.461 28.8012 248.699 26.2047 244.559 24.4332C240.419 22.6618 235.981 21.75 231.5 21.75C222.449 21.75 213.77 25.4638 207.37 32.0745C200.97 38.6851 197.375 47.6511 197.375 57C197.375 66.3489 200.97 75.3149 207.37 81.9255C213.77 88.5362 222.449 92.25 231.5 92.25Z" fill="#00FF38" fill-opacity="0.75"/>
<path d="M393.281 65.8771C393.713 71.4819 398.002 75.847 405.691 76.364V80.5H409.104V76.3346C417.066 75.7589 421.719 71.3644 421.719 64.9841C421.719 59.1855 418.158 56.1951 411.794 54.6441L409.104 53.9861V42.7238C412.516 43.1233 414.689 45.0503 415.212 47.7175H421.195C420.763 42.3184 416.281 38.0942 409.104 37.636V33.5H405.691V37.7241C398.895 38.4115 394.259 42.6356 394.259 48.6105C394.259 53.898 397.706 57.2585 403.433 58.6391L405.691 59.2149V71.1646C402.194 70.6183 399.879 68.6384 399.355 65.8771H393.281ZM405.663 53.1519C402.307 52.347 400.487 50.7079 400.487 48.2404C400.487 45.4791 402.45 43.4111 405.691 42.806V53.146L405.663 53.1519ZM409.599 60.1608C413.677 61.136 415.559 62.7164 415.559 65.507C415.559 68.6912 413.216 70.8768 409.104 71.2763V60.0432L409.599 60.1608Z" fill="#00FF38" fill-opacity="0.75"/>
<path d="M407.5 98.125C396.941 98.125 386.815 93.7922 379.348 86.0798C371.882 78.3673 367.688 67.907 367.688 57C367.688 46.093 371.882 35.6327 379.348 27.9202C386.815 20.2078 396.941 15.875 407.5 15.875C418.059 15.875 428.185 20.2078 435.652 27.9202C443.118 35.6327 447.312 46.093 447.312 57C447.312 67.907 443.118 78.3673 435.652 86.0798C428.185 93.7922 418.059 98.125 407.5 98.125ZM407.5 104C419.567 104 431.14 99.0482 439.673 90.234C448.206 81.4198 453 69.4652 453 57C453 44.5348 448.206 32.5802 439.673 23.766C431.14 14.9518 419.567 10 407.5 10C395.433 10 383.86 14.9518 375.327 23.766C366.794 32.5802 362 44.5348 362 57C362 69.4652 366.794 81.4198 375.327 90.234C383.86 99.0482 395.433 104 407.5 104Z" fill="#00FF38" fill-opacity="0.75"/>
<path d="M407.5 89.3125C399.204 89.3125 391.247 85.9082 385.381 79.8484C379.514 73.7886 376.219 65.5698 376.219 57C376.219 48.4302 379.514 40.2114 385.381 34.1516C391.247 28.0918 399.204 24.6875 407.5 24.6875C415.796 24.6875 423.753 28.0918 429.619 34.1516C435.486 40.2114 438.781 48.4302 438.781 57C438.781 65.5698 435.486 73.7886 429.619 79.8484C423.753 85.9082 415.796 89.3125 407.5 89.3125ZM407.5 92.25C411.981 92.25 416.419 91.3382 420.559 89.5668C424.699 87.7953 428.461 85.1988 431.63 81.9255C434.799 78.6522 437.312 74.7663 439.027 70.4896C440.742 66.2129 441.625 61.6291 441.625 57C441.625 52.3709 440.742 47.7871 439.027 43.5104C437.312 39.2337 434.799 35.3478 431.63 32.0745C428.461 28.8012 424.699 26.2047 420.559 24.4332C416.419 22.6618 411.981 21.75 407.5 21.75C398.449 21.75 389.77 25.4638 383.37 32.0745C376.97 38.6851 373.375 47.6511 373.375 57C373.375 66.3489 376.97 75.3149 383.37 81.9255C389.77 88.5362 398.449 92.25 407.5 92.25Z" fill="#00FF38" fill-opacity="0.75"/>
<path d="M31.2812 65.8771C31.7135 71.4819 36.0019 75.847 43.6914 76.364V80.5H47.1039V76.3346C55.0664 75.7589 59.7188 71.3644 59.7188 64.9841C59.7188 59.1855 56.1584 56.1951 49.7941 54.6441L47.1039 53.9861V42.7238C50.5164 43.1233 52.689 45.0503 53.2122 47.7175H59.1955C58.7632 42.3184 54.2815 38.0942 47.1039 37.636V33.5H43.6914V37.7241C36.8948 38.4115 32.2595 42.6356 32.2595 48.6105C32.2595 53.898 35.7061 57.2585 41.4334 58.6391L43.6914 59.2149V71.1646C40.1936 70.6183 37.8787 68.6384 37.3555 65.8771H31.2812ZM43.6629 53.1519C40.3073 52.347 38.4873 50.7079 38.4873 48.2404C38.4873 45.4791 40.4495 43.4111 43.6914 42.806V53.146L43.6629 53.1519ZM47.5987 60.1608C51.6766 61.136 53.5592 62.7164 53.5592 65.507C53.5592 68.6912 51.2159 70.8768 47.1039 71.2763V60.0432L47.5987 60.1608Z" fill="#00FF38" fill-opacity="0.75"/>
<path d="M45.5 98.125C34.9411 98.125 24.8146 93.7922 17.3483 86.0798C9.88202 78.3673 5.6875 67.907 5.6875 57C5.6875 46.093 9.88202 35.6327 17.3483 27.9202C24.8146 20.2078 34.9411 15.875 45.5 15.875C56.0589 15.875 66.1854 20.2078 73.6517 27.9202C81.118 35.6327 85.3125 46.093 85.3125 57C85.3125 67.907 81.118 78.3673 73.6517 86.0798C66.1854 93.7922 56.0589 98.125 45.5 98.125ZM45.5 104C57.5674 104 69.1405 99.0482 77.6734 90.234C86.2063 81.4198 91 69.4652 91 57C91 44.5348 86.2063 32.5802 77.6734 23.766C69.1405 14.9518 57.5674 10 45.5 10C33.4326 10 21.8595 14.9518 13.3266 23.766C4.79374 32.5802 0 44.5348 0 57C0 69.4652 4.79374 81.4198 13.3266 90.234C21.8595 99.0482 33.4326 104 45.5 104Z" fill="#00FF38" fill-opacity="0.75"/>
<path d="M45.5 89.3125C37.2037 89.3125 29.2472 85.9082 23.3808 79.8484C17.5144 73.7886 14.2188 65.5698 14.2188 57C14.2188 48.4302 17.5144 40.2114 23.3808 34.1516C29.2472 28.0918 37.2037 24.6875 45.5 24.6875C53.7963 24.6875 61.7528 28.0918 67.6192 34.1516C73.4856 40.2114 76.7812 48.4302 76.7812 57C76.7812 65.5698 73.4856 73.7886 67.6192 79.8484C61.7528 85.9082 53.7963 89.3125 45.5 89.3125ZM45.5 92.25C49.9814 92.25 54.4188 91.3382 58.5591 89.5668C62.6993 87.7953 66.4612 85.1988 69.63 81.9255C72.7988 78.6522 75.3125 74.7663 77.0274 70.4896C78.7423 66.2129 79.625 61.6291 79.625 57C79.625 52.3709 78.7423 47.7871 77.0274 43.5104C75.3125 39.2337 72.7988 35.3478 69.63 32.0745C66.4612 28.8012 62.6993 26.2047 58.5591 24.4332C54.4188 22.6618 49.9814 21.75 45.5 21.75C36.4495 21.75 27.7697 25.4638 21.37 32.0745C14.9703 38.6851 11.375 47.6511 11.375 57C11.375 66.3489 14.9703 75.3149 21.37 81.9255C27.7697 88.5362 36.4495 92.25 45.5 92.25Z" fill="#00FF38" fill-opacity="0.75"/>
<mask id="path-10-outside-1_3_26" maskUnits="userSpaceOnUse" x="95" y="25" width="262" height="70" fill="black">
<rect fill="white" x="95" y="25" width="262" height="70"/>
<path d="M116.652 87C109.902 87 104.922 85.41 101.712 82.23C98.5322 79.02 96.9422 74.04 96.9422 67.29V46.68C96.9422 39.87 98.5322 34.875 101.712 31.695C104.892 28.515 109.842 26.94 116.562 26.97H127.452C133.032 26.97 137.262 28.14 140.142 30.48C143.022 32.79 144.672 36.45 145.092 41.46C145.242 42.57 145.032 43.425 144.462 44.025C143.892 44.595 143.052 44.88 141.942 44.88C139.932 44.88 138.777 43.77 138.477 41.55C138.207 38.49 137.232 36.405 135.552 35.295C133.872 34.155 131.172 33.585 127.452 33.585H116.562C113.292 33.585 110.712 33.99 108.822 34.8C106.932 35.58 105.582 36.93 104.772 38.85C103.962 40.74 103.557 43.35 103.557 46.68V67.29C103.557 70.59 103.962 73.2 104.772 75.12C105.582 77.01 106.932 78.36 108.822 79.17C110.742 79.98 113.352 80.385 116.652 80.385H127.452C131.172 80.385 133.872 79.83 135.552 78.72C137.232 77.58 138.207 75.48 138.477 72.42C138.777 70.2 139.932 69.09 141.942 69.09C143.052 69.09 143.892 69.39 144.462 69.99C145.032 70.56 145.242 71.4 145.092 72.51C144.672 77.55 143.022 81.225 140.142 83.535C137.262 85.845 133.032 87 127.452 87H116.652ZM172.478 87C171.008 87 169.973 86.07 169.373 84.21L152.543 31.38C152.213 30.39 152.348 29.4 152.948 28.41C153.578 27.42 154.493 26.925 155.693 26.925C156.323 26.925 156.923 27.135 157.493 27.555C158.093 27.945 158.513 28.56 158.753 29.4L173.873 76.965H172.118L186.473 29.76C186.773 28.83 187.268 28.14 187.958 27.69C188.678 27.21 189.413 26.97 190.163 26.97C190.943 26.97 191.708 27.21 192.458 27.69C193.208 28.14 193.703 28.83 193.943 29.76L208.298 76.965H206.543L221.663 29.4C221.963 28.56 222.368 27.945 222.878 27.555C223.418 27.165 224.018 26.97 224.678 26.97C225.908 26.97 226.838 27.435 227.468 28.365C228.128 29.265 228.278 30.27 227.918 31.38L211.043 84.21C210.443 86.07 209.288 87 207.578 87H207.398C205.628 87 204.473 86.07 203.933 84.21L189.128 36.42H190.883L176.033 84.21C175.763 85.2 175.358 85.92 174.818 86.37C174.278 86.79 173.498 87 172.478 87ZM242.303 87C241.403 87 240.623 86.67 239.963 86.01C239.303 85.35 238.973 84.57 238.973 83.67V30.3C238.973 29.4 239.303 28.62 239.963 27.96C240.623 27.3 241.403 26.97 242.303 26.97C243.203 26.97 243.968 27.3 244.598 27.96C245.258 28.62 245.588 29.4 245.588 30.3V53.295H282.668V30.3C282.668 29.4 282.983 28.62 283.613 27.96C284.243 27.3 285.023 26.97 285.953 26.97C286.853 26.97 287.633 27.3 288.293 27.96C288.953 28.62 289.283 29.4 289.283 30.3V83.67C289.283 84.57 288.953 85.35 288.293 86.01C287.633 86.67 286.853 87 285.953 87C285.023 87 284.243 86.67 283.613 86.01C282.983 85.35 282.668 84.57 282.668 83.67V59.91H245.588V83.67C245.588 84.57 245.258 85.35 244.598 86.01C243.968 86.67 243.203 87 242.303 87ZM355.187 88.44C355.757 89.04 356.027 89.685 355.997 90.375C355.997 91.095 355.652 91.77 354.962 92.4C353.642 93.66 352.292 93.645 350.912 92.355L336.602 77.28C335.972 76.65 335.657 75.99 335.657 75.3C335.657 74.58 335.987 73.92 336.647 73.32C337.997 72.03 339.377 72.045 340.787 73.365L355.187 88.44ZM325.217 87C318.467 87 313.487 85.41 310.277 82.23C307.097 79.02 305.507 74.04 305.507 67.29V46.59C305.507 39.78 307.097 34.8 310.277 31.65C313.487 28.47 318.452 26.91 325.172 26.97H336.017C342.767 26.97 347.732 28.56 350.912 31.74C354.092 34.92 355.682 39.9 355.682 46.68V67.29C355.682 74.04 354.092 79.02 350.912 82.23C347.732 85.41 342.767 87 336.017 87H325.217ZM325.217 80.385H336.017C339.287 80.385 341.867 79.98 343.757 79.17C345.677 78.36 347.042 77.01 347.852 75.12C348.662 73.2 349.067 70.59 349.067 67.29V46.68C349.067 43.41 348.662 40.83 347.852 38.94C347.042 37.02 345.677 35.655 343.757 34.845C341.867 34.005 339.287 33.585 336.017 33.585H325.172C321.902 33.555 319.322 33.945 317.432 34.755C315.542 35.535 314.177 36.885 313.337 38.805C312.527 40.695 312.122 43.29 312.122 46.59V67.29C312.122 70.59 312.527 73.2 313.337 75.12C314.147 77.01 315.497 78.36 317.387 79.17C319.307 79.98 321.917 80.385 325.217 80.385Z"/>
</mask>
<path d="M116.652 87C109.902 87 104.922 85.41 101.712 82.23C98.5322 79.02 96.9422 74.04 96.9422 67.29V46.68C96.9422 39.87 98.5322 34.875 101.712 31.695C104.892 28.515 109.842 26.94 116.562 26.97H127.452C133.032 26.97 137.262 28.14 140.142 30.48C143.022 32.79 144.672 36.45 145.092 41.46C145.242 42.57 145.032 43.425 144.462 44.025C143.892 44.595 143.052 44.88 141.942 44.88C139.932 44.88 138.777 43.77 138.477 41.55C138.207 38.49 137.232 36.405 135.552 35.295C133.872 34.155 131.172 33.585 127.452 33.585H116.562C113.292 33.585 110.712 33.99 108.822 34.8C106.932 35.58 105.582 36.93 104.772 38.85C103.962 40.74 103.557 43.35 103.557 46.68V67.29C103.557 70.59 103.962 73.2 104.772 75.12C105.582 77.01 106.932 78.36 108.822 79.17C110.742 79.98 113.352 80.385 116.652 80.385H127.452C131.172 80.385 133.872 79.83 135.552 78.72C137.232 77.58 138.207 75.48 138.477 72.42C138.777 70.2 139.932 69.09 141.942 69.09C143.052 69.09 143.892 69.39 144.462 69.99C145.032 70.56 145.242 71.4 145.092 72.51C144.672 77.55 143.022 81.225 140.142 83.535C137.262 85.845 133.032 87 127.452 87H116.652ZM172.478 87C171.008 87 169.973 86.07 169.373 84.21L152.543 31.38C152.213 30.39 152.348 29.4 152.948 28.41C153.578 27.42 154.493 26.925 155.693 26.925C156.323 26.925 156.923 27.135 157.493 27.555C158.093 27.945 158.513 28.56 158.753 29.4L173.873 76.965H172.118L186.473 29.76C186.773 28.83 187.268 28.14 187.958 27.69C188.678 27.21 189.413 26.97 190.163 26.97C190.943 26.97 191.708 27.21 192.458 27.69C193.208 28.14 193.703 28.83 193.943 29.76L208.298 76.965H206.543L221.663 29.4C221.963 28.56 222.368 27.945 222.878 27.555C223.418 27.165 224.018 26.97 224.678 26.97C225.908 26.97 226.838 27.435 227.468 28.365C228.128 29.265 228.278 30.27 227.918 31.38L211.043 84.21C210.443 86.07 209.288 87 207.578 87H207.398C205.628 87 204.473 86.07 203.933 84.21L189.128 36.42H190.883L176.033 84.21C175.763 85.2 175.358 85.92 174.818 86.37C174.278 86.79 173.498 87 172.478 87ZM242.303 87C241.403 87 240.623 86.67 239.963 86.01C239.303 85.35 238.973 84.57 238.973 83.67V30.3C238.973 29.4 239.303 28.62 239.963 27.96C240.623 27.3 241.403 26.97 242.303 26.97C243.203 26.97 243.968 27.3 244.598 27.96C245.258 28.62 245.588 29.4 245.588 30.3V53.295H282.668V30.3C282.668 29.4 282.983 28.62 283.613 27.96C284.243 27.3 285.023 26.97 285.953 26.97C286.853 26.97 287.633 27.3 288.293 27.96C288.953 28.62 289.283 29.4 289.283 30.3V83.67C289.283 84.57 288.953 85.35 288.293 86.01C287.633 86.67 286.853 87 285.953 87C285.023 87 284.243 86.67 283.613 86.01C282.983 85.35 282.668 84.57 282.668 83.67V59.91H245.588V83.67C245.588 84.57 245.258 85.35 244.598 86.01C243.968 86.67 243.203 87 242.303 87ZM355.187 88.44C355.757 89.04 356.027 89.685 355.997 90.375C355.997 91.095 355.652 91.77 354.962 92.4C353.642 93.66 352.292 93.645 350.912 92.355L336.602 77.28C335.972 76.65 335.657 75.99 335.657 75.3C335.657 74.58 335.987 73.92 336.647 73.32C337.997 72.03 339.377 72.045 340.787 73.365L355.187 88.44ZM325.217 87C318.467 87 313.487 85.41 310.277 82.23C307.097 79.02 305.507 74.04 305.507 67.29V46.59C305.507 39.78 307.097 34.8 310.277 31.65C313.487 28.47 318.452 26.91 325.172 26.97H336.017C342.767 26.97 347.732 28.56 350.912 31.74C354.092 34.92 355.682 39.9 355.682 46.68V67.29C355.682 74.04 354.092 79.02 350.912 82.23C347.732 85.41 342.767 87 336.017 87H325.217ZM325.217 80.385H336.017C339.287 80.385 341.867 79.98 343.757 79.17C345.677 78.36 347.042 77.01 347.852 75.12C348.662 73.2 349.067 70.59 349.067 67.29V46.68C349.067 43.41 348.662 40.83 347.852 38.94C347.042 37.02 345.677 35.655 343.757 34.845C341.867 34.005 339.287 33.585 336.017 33.585H325.172C321.902 33.555 319.322 33.945 317.432 34.755C315.542 35.535 314.177 36.885 313.337 38.805C312.527 40.695 312.122 43.29 312.122 46.59V67.29C312.122 70.59 312.527 73.2 313.337 75.12C314.147 77.01 315.497 78.36 317.387 79.17C319.307 79.98 321.917 80.385 325.217 80.385Z" fill="black"/>
<path d="M101.712 82.23L101.002 82.9338L101.008 82.9404L101.712 82.23ZM101.712 31.695L101.005 30.9879L101.005 30.9879L101.712 31.695ZM116.562 26.97L116.558 27.97H116.562V26.97ZM140.142 30.48L139.512 31.2561L139.517 31.2601L140.142 30.48ZM145.092 41.46L144.096 41.5435L144.098 41.5688L144.101 41.5939L145.092 41.46ZM144.462 44.025L145.169 44.7321L145.178 44.723L145.187 44.7137L144.462 44.025ZM138.477 41.55L137.481 41.6379L137.483 41.661L137.486 41.6839L138.477 41.55ZM135.552 35.295L134.991 36.1225L135.001 36.1293L135.552 35.295ZM108.822 34.8L109.204 35.7245L109.216 35.7191L108.822 34.8ZM104.772 38.85L105.691 39.2439L105.694 39.2387L104.772 38.85ZM104.772 75.12L103.851 75.5087L103.853 75.5139L104.772 75.12ZM108.822 79.17L108.428 80.0892L108.433 80.0914L108.822 79.17ZM135.552 78.72L136.103 79.5544L136.114 79.5475L135.552 78.72ZM138.477 72.42L137.486 72.2861L137.483 72.309L137.481 72.3321L138.477 72.42ZM144.462 69.99L143.737 70.6787L143.746 70.688L143.755 70.6971L144.462 69.99ZM145.092 72.51L144.101 72.3761L144.098 72.4014L144.096 72.427L145.092 72.51ZM140.142 83.535L139.517 82.7549L139.517 82.7549L140.142 83.535ZM116.652 86C110.037 86 105.364 84.4398 102.416 81.5196L101.008 82.9404C104.481 86.3802 109.767 88 116.652 88V86ZM102.423 81.5262C99.5024 78.5784 97.9422 73.9051 97.9422 67.29H95.9422C95.9422 74.1749 97.562 79.4616 101.002 82.9338L102.423 81.5262ZM97.9422 67.29V46.68H95.9422V67.29H97.9422ZM97.9422 46.68C97.9422 40.0009 99.5042 35.3172 102.419 32.4021L101.005 30.9879C97.5602 34.4328 95.9422 39.7391 95.9422 46.68H97.9422ZM102.419 32.4021C105.335 29.4865 109.974 27.9406 116.558 27.97L116.567 25.97C109.711 25.9394 104.449 27.5435 101.005 30.9879L102.419 32.4021ZM116.562 27.97H127.452V25.97H116.562V27.97ZM127.452 27.97C132.913 27.97 136.88 29.1181 139.512 31.2561L140.773 29.7039C137.644 27.1619 133.151 25.97 127.452 25.97V27.97ZM139.517 31.2601C142.114 33.3435 143.69 36.7046 144.096 41.5435L146.089 41.3765C145.654 36.1954 143.93 32.2365 140.768 29.6999L139.517 31.2601ZM144.101 41.5939C144.226 42.5167 144.031 43.0272 143.737 43.3362L145.187 44.7137C146.034 43.8228 146.258 42.6233 146.083 41.3261L144.101 41.5939ZM143.755 43.3179C143.434 43.6388 142.889 43.88 141.942 43.88V45.88C143.215 45.88 144.35 45.5512 145.169 44.7321L143.755 43.3179ZM141.942 43.88C141.127 43.88 140.608 43.6598 140.261 43.3265C139.901 42.9798 139.6 42.39 139.468 41.4161L137.486 41.6839C137.655 42.93 138.081 44.0052 138.876 44.7685C139.684 45.5452 140.748 45.88 141.942 45.88V43.88ZM139.473 41.4621C139.191 38.2611 138.148 35.8117 136.103 34.4607L135.001 36.1293C136.316 36.9983 137.224 38.7189 137.481 41.6379L139.473 41.4621ZM136.114 34.4675C134.179 33.155 131.229 32.585 127.452 32.585V34.585C131.116 34.585 133.565 35.155 134.991 36.1225L136.114 34.4675ZM127.452 32.585H116.562V34.585H127.452V32.585ZM116.562 32.585C113.228 32.585 110.495 32.9953 108.428 33.8809L109.216 35.7191C110.93 34.9847 113.357 34.585 116.562 34.585V32.585ZM108.441 33.8756C106.302 34.7582 104.761 36.3038 103.851 38.4613L105.694 39.2387C106.403 37.5562 107.562 36.4017 109.204 35.7244L108.441 33.8756ZM103.853 38.4561C102.967 40.524 102.557 43.2884 102.557 46.68H104.557C104.557 43.4116 104.958 40.956 105.691 39.2439L103.853 38.4561ZM102.557 46.68V67.29H104.557V46.68H102.557ZM102.557 67.29C102.557 70.6544 102.968 73.4149 103.851 75.5087L105.694 74.7313C104.957 72.9851 104.557 70.5256 104.557 67.29H102.557ZM103.853 75.5139C104.764 77.6399 106.302 79.178 108.428 80.0891L109.216 78.2509C107.562 77.542 106.4 76.3801 105.691 74.7261L103.853 75.5139ZM108.433 80.0914C110.527 80.9747 113.288 81.385 116.652 81.385V79.385C113.417 79.385 110.957 78.9853 109.211 78.2486L108.433 80.0914ZM116.652 81.385H127.452V79.385H116.652V81.385ZM127.452 81.385C131.226 81.385 134.172 80.8306 136.103 79.5543L135.001 77.8857C133.573 78.8294 131.119 79.385 127.452 79.385V81.385ZM136.114 79.5475C138.148 78.1669 139.191 75.7109 139.473 72.5079L137.481 72.3321C137.224 75.2491 136.316 76.9931 134.991 77.8925L136.114 79.5475ZM139.468 72.5539C139.6 71.58 139.901 70.9902 140.261 70.6435C140.608 70.3102 141.127 70.09 141.942 70.09V68.09C140.748 68.09 139.684 68.4248 138.876 69.2015C138.081 69.9648 137.655 71.04 137.486 72.2861L139.468 72.5539ZM141.942 70.09C142.875 70.09 143.414 70.3384 143.737 70.6787L145.187 69.3012C144.371 68.4416 143.229 68.09 141.942 68.09V70.09ZM143.755 70.6971C144.027 70.9686 144.227 71.447 144.101 72.3761L146.083 72.6439C146.258 71.3529 146.038 70.1514 145.169 69.2829L143.755 70.6971ZM144.096 72.427C143.69 77.2979 142.113 80.6726 139.517 82.7549L140.768 84.3151C143.932 81.7774 145.655 77.8021 146.089 72.593L144.096 72.427ZM139.517 82.7549C136.885 84.8659 132.916 86 127.452 86V88C133.149 88 137.64 86.8241 140.768 84.3151L139.517 82.7549ZM127.452 86H116.652V88H127.452V86ZM169.373 84.21L168.42 84.5135L168.421 84.517L169.373 84.21ZM152.543 31.38L153.495 31.0764L153.491 31.0638L152.543 31.38ZM152.948 28.41L152.104 27.8731L152.098 27.8823L152.092 27.8917L152.948 28.41ZM157.493 27.555L156.899 28.3601L156.923 28.3775L156.948 28.3934L157.493 27.555ZM158.753 29.4L157.791 29.6747L157.795 29.6889L157.799 29.7029L158.753 29.4ZM173.873 76.965V77.965H175.24L174.826 76.6621L173.873 76.965ZM172.118 76.965L171.161 76.6741L170.768 77.965H172.118V76.965ZM186.473 29.76L185.521 29.453L185.518 29.461L185.516 29.4691L186.473 29.76ZM187.958 27.69L188.504 28.5277L188.512 28.522L187.958 27.69ZM192.458 27.69L191.918 28.5323L191.931 28.5401L191.943 28.5475L192.458 27.69ZM193.943 29.76L192.974 30.0099L192.98 30.0305L192.986 30.0509L193.943 29.76ZM208.298 76.965V77.965H209.647L209.254 76.6741L208.298 76.965ZM206.543 76.965L205.589 76.6621L205.175 77.965H206.543V76.965ZM221.663 29.4L220.721 29.0637L220.715 29.0803L220.709 29.0971L221.663 29.4ZM222.878 27.555L222.292 26.7443L222.281 26.7523L222.27 26.7606L222.878 27.555ZM227.468 28.365L226.64 28.9258L226.65 28.9413L226.661 28.9564L227.468 28.365ZM227.918 31.38L226.966 31.0715L226.965 31.0757L227.918 31.38ZM211.043 84.21L211.994 84.517L211.995 84.5143L211.043 84.21ZM203.933 84.21L204.893 83.9312L204.89 83.9226L204.888 83.9141L203.933 84.21ZM189.128 36.42V35.42H187.771L188.172 36.7159L189.128 36.42ZM190.883 36.42L191.837 36.7167L192.24 35.42H190.883V36.42ZM176.033 84.21L175.078 83.9133L175.072 83.93L175.068 83.9469L176.033 84.21ZM174.818 86.37L175.431 87.1594L175.445 87.149L175.458 87.1382L174.818 86.37ZM172.478 86C171.974 86 171.59 85.8488 171.267 85.5587C170.924 85.25 170.591 84.7295 170.324 83.903L168.421 84.517C168.754 85.5505 169.239 86.425 169.93 87.0463C170.642 87.6862 171.511 88 172.478 88V86ZM170.325 83.9065L153.495 31.0765L151.59 31.6835L168.42 84.5135L170.325 83.9065ZM153.491 31.0638C153.265 30.3847 153.336 29.6982 153.803 28.9283L152.092 27.8917C151.359 29.1018 151.16 30.3953 151.594 31.6962L153.491 31.0638ZM153.791 28.9469C154.233 28.2532 154.825 27.925 155.693 27.925V25.925C154.16 25.925 152.922 26.5868 152.104 27.8731L153.791 28.9469ZM155.693 27.925C156.083 27.925 156.479 28.0503 156.899 28.3601L158.086 26.7499C157.366 26.2197 156.562 25.925 155.693 25.925V27.925ZM156.948 28.3934C157.303 28.6245 157.602 29.0133 157.791 29.6747L159.714 29.1253C159.423 28.1067 158.882 27.2655 158.037 26.7166L156.948 28.3934ZM157.799 29.7029L172.919 77.2679L174.826 76.6621L159.706 29.0971L157.799 29.7029ZM173.873 75.965H172.118V77.965H173.873V75.965ZM173.074 77.2559L187.429 30.0509L185.516 29.4691L171.161 76.6741L173.074 77.2559ZM187.424 30.067C187.668 29.3128 188.04 28.8301 188.504 28.5276L187.411 26.8524C186.495 27.4499 185.877 28.3472 185.521 29.453L187.424 30.067ZM188.512 28.522C189.094 28.1343 189.639 27.97 190.163 27.97V25.97C189.186 25.97 188.261 26.2857 187.403 26.8579L188.512 28.522ZM190.163 27.97C190.725 27.97 191.306 28.1403 191.918 28.5323L192.997 26.8477C192.109 26.2797 191.16 25.97 190.163 25.97V27.97ZM191.943 28.5475C192.445 28.8485 192.793 29.3068 192.974 30.0099L194.911 29.5101C194.612 28.3532 193.97 27.4315 192.972 26.8325L191.943 28.5475ZM192.986 30.0509L207.341 77.2559L209.254 76.6741L194.899 29.4691L192.986 30.0509ZM208.298 75.965H206.543V77.965H208.298V75.965ZM207.496 77.2679L222.616 29.7029L220.709 29.0971L205.589 76.6621L207.496 77.2679ZM222.604 29.7363C222.864 29.0099 223.177 28.5848 223.485 28.3494L222.27 26.7606C221.558 27.3052 221.061 28.1101 220.721 29.0637L222.604 29.7363ZM223.463 28.3657C223.834 28.0975 224.23 27.97 224.678 27.97V25.97C223.805 25.97 223.001 26.2325 222.292 26.7443L223.463 28.3657ZM224.678 27.97C225.613 27.97 226.216 28.2999 226.64 28.9258L228.295 27.8041C227.459 26.5701 226.202 25.97 224.678 25.97V27.97ZM226.661 28.9564C227.121 29.5835 227.232 30.2509 226.966 31.0715L228.869 31.6885C229.323 30.2891 229.134 28.9465 228.274 27.7736L226.661 28.9564ZM226.965 31.0757L210.09 83.9057L211.995 84.5143L228.87 31.6843L226.965 31.0757ZM210.091 83.903C209.832 84.7054 209.483 85.2142 209.099 85.5236C208.726 85.8241 208.241 86 207.578 86V88C208.624 88 209.572 87.7109 210.353 87.0814C211.124 86.4608 211.653 85.5746 211.994 84.517L210.091 83.903ZM207.578 86H207.398V88H207.578V86ZM207.398 86C206.695 86 206.198 85.8192 205.831 85.5236C205.456 85.2214 205.123 84.7241 204.893 83.9312L202.972 84.4888C203.282 85.5559 203.797 86.4536 204.577 87.0814C205.365 87.7158 206.33 88 207.398 88V86ZM204.888 83.9141L190.083 36.1241L188.172 36.7159L202.977 84.5059L204.888 83.9141ZM189.128 37.42H190.883V35.42H189.128V37.42ZM189.928 36.1233L175.078 83.9133L176.987 84.5067L191.837 36.7167L189.928 36.1233ZM175.068 83.9469C174.828 84.8258 174.503 85.3306 174.177 85.6018L175.458 87.1382C176.212 86.5094 176.697 85.5742 176.997 84.4731L175.068 83.9469ZM174.204 85.5806C173.907 85.8115 173.38 86 172.478 86V88C173.615 88 174.648 87.7685 175.431 87.1594L174.204 85.5806ZM239.963 27.96L240.67 28.6671L240.67 28.6671L239.963 27.96ZM244.598 27.96L243.874 28.6505L243.882 28.6589L243.891 28.6671L244.598 27.96ZM245.588 53.295H244.588V54.295H245.588V53.295ZM282.668 53.295V54.295H283.668V53.295H282.668ZM283.613 27.96L284.336 28.6505L284.336 28.6505L283.613 27.96ZM288.293 27.96L287.586 28.6671L287.586 28.6671L288.293 27.96ZM282.668 59.91H283.668V58.91H282.668V59.91ZM245.588 59.91V58.91H244.588V59.91H245.588ZM244.598 86.01L243.891 85.3029L243.882 85.3111L243.874 85.3195L244.598 86.01ZM242.303 86C241.679 86 241.15 85.7831 240.67 85.3029L239.256 86.7171C240.095 87.5569 241.127 88 242.303 88V86ZM240.67 85.3029C240.19 84.8227 239.973 84.294 239.973 83.67H237.973C237.973 84.846 238.416 85.8773 239.256 86.7171L240.67 85.3029ZM239.973 83.67V30.3H237.973V83.67H239.973ZM239.973 30.3C239.973 29.676 240.19 29.1473 240.67 28.6671L239.256 27.2529C238.416 28.0927 237.973 29.124 237.973 30.3H239.973ZM240.67 28.6671C241.15 28.1869 241.679 27.97 242.303 27.97V25.97C241.127 25.97 240.095 26.4131 239.256 27.2529L240.67 28.6671ZM242.303 27.97C242.925 27.97 243.43 28.1851 243.874 28.6505L245.321 27.2695C244.505 26.4149 243.48 25.97 242.303 25.97V27.97ZM243.891 28.6671C244.371 29.1473 244.588 29.676 244.588 30.3H246.588C246.588 29.124 246.145 28.0927 245.305 27.2529L243.891 28.6671ZM244.588 30.3V53.295H246.588V30.3H244.588ZM245.588 54.295H282.668V52.295H245.588V54.295ZM283.668 53.295V30.3H281.668V53.295H283.668ZM283.668 30.3C283.668 29.6611 283.881 29.1273 284.336 28.6505L282.889 27.2695C282.085 28.1127 281.668 29.1389 281.668 30.3H283.668ZM284.336 28.6505C284.773 28.1924 285.29 27.97 285.953 27.97V25.97C284.755 25.97 283.712 26.4076 282.889 27.2695L284.336 28.6505ZM285.953 27.97C286.577 27.97 287.105 28.1869 287.586 28.6671L289 27.2529C288.16 26.4131 287.129 25.97 285.953 25.97V27.97ZM287.586 28.6671C288.066 29.1473 288.283 29.676 288.283 30.3H290.283C290.283 29.124 289.84 28.0927 289 27.2529L287.586 28.6671ZM288.283 30.3V83.67H290.283V30.3H288.283ZM288.283 83.67C288.283 84.294 288.066 84.8227 287.586 85.3029L289 86.7171C289.84 85.8773 290.283 84.846 290.283 83.67H288.283ZM287.586 85.3029C287.105 85.7831 286.577 86 285.953 86V88C287.129 88 288.16 87.5569 289 86.7171L287.586 85.3029ZM285.953 86C285.29 86 284.773 85.7776 284.336 85.3195L282.889 86.7005C283.712 87.5624 284.755 88 285.953 88V86ZM284.336 85.3195C283.881 84.8427 283.668 84.3089 283.668 83.67H281.668C281.668 84.8311 282.085 85.8573 282.889 86.7005L284.336 85.3195ZM283.668 83.67V59.91H281.668V83.67H283.668ZM282.668 58.91H245.588V60.91H282.668V58.91ZM244.588 59.91V83.67H246.588V59.91H244.588ZM244.588 83.67C244.588 84.294 244.371 84.8227 243.891 85.3029L245.305 86.7171C246.145 85.8773 246.588 84.846 246.588 83.67H244.588ZM243.874 85.3195C243.43 85.7849 242.925 86 242.303 86V88C243.48 88 244.505 87.5551 245.321 86.7005L243.874 85.3195ZM355.187 88.44L355.912 87.7512L355.91 87.7493L355.187 88.44ZM355.997 90.375L354.998 90.3316L354.997 90.3533V90.375H355.997ZM354.962 92.4L354.287 91.6615L354.279 91.669L354.271 91.6766L354.962 92.4ZM350.912 92.355L350.186 93.0435L350.207 93.0651L350.229 93.0855L350.912 92.355ZM336.602 77.28L337.327 76.5915L337.318 76.5821L337.309 76.5729L336.602 77.28ZM336.647 73.32L337.319 74.0599L337.329 74.0516L337.338 74.043L336.647 73.32ZM340.787 73.365L341.51 72.6743L341.49 72.6541L341.47 72.635L340.787 73.365ZM310.277 82.23L309.566 82.9338L309.573 82.9404L310.277 82.23ZM310.277 31.65L310.98 32.3604L310.98 32.3604L310.277 31.65ZM325.172 26.97L325.163 27.97H325.172V26.97ZM350.912 31.74L350.205 32.4471L350.205 32.4471L350.912 31.74ZM350.912 82.23L351.619 82.9371L351.622 82.9338L350.912 82.23ZM343.757 79.17L343.368 78.2486L343.363 78.2509L343.757 79.17ZM347.852 75.12L348.771 75.5139L348.773 75.5087L347.852 75.12ZM347.852 38.94L346.93 39.3287L346.932 39.3339L347.852 38.94ZM343.757 34.845L343.351 35.7588L343.359 35.7627L343.368 35.7664L343.757 34.845ZM325.172 33.585L325.162 34.585H325.172V33.585ZM317.432 34.755L317.813 35.6795L317.826 35.6741L317.432 34.755ZM313.337 38.805L312.42 38.4042L312.417 38.4111L313.337 38.805ZM313.337 75.12L312.415 75.5087L312.417 75.5139L313.337 75.12ZM317.387 79.17L316.993 80.0892L316.998 80.0914L317.387 79.17ZM354.462 89.1288C354.885 89.574 355.013 89.9656 354.998 90.3316L356.996 90.4184C357.04 89.4044 356.629 88.506 355.912 87.7512L354.462 89.1288ZM354.997 90.375C354.997 90.7362 354.835 91.1613 354.287 91.6615L355.636 93.1385C356.468 92.3787 356.997 91.4538 356.997 90.375H354.997ZM354.271 91.6766C353.732 92.1913 353.303 92.3375 352.97 92.3338C352.629 92.33 352.175 92.1671 351.595 91.6245L350.229 93.0855C351.028 93.8329 351.939 94.3225 352.948 94.3337C353.965 94.345 354.871 93.8687 355.652 93.1234L354.271 91.6766ZM351.637 91.6665L337.327 76.5915L335.876 77.9685L350.186 93.0435L351.637 91.6665ZM337.309 76.5729C336.809 76.0734 336.657 75.6537 336.657 75.3H334.657C334.657 76.3263 335.134 77.2266 335.895 77.9871L337.309 76.5729ZM336.657 75.3C336.657 74.9268 336.814 74.5191 337.319 74.0599L335.974 72.5801C335.159 73.3209 334.657 74.2332 334.657 75.3H336.657ZM337.338 74.043C337.892 73.5132 338.336 73.3599 338.683 73.3637C339.039 73.3676 339.508 73.5375 340.103 74.095L341.47 72.635C340.656 71.8725 339.73 71.3749 338.705 71.3638C337.673 71.3526 336.751 71.8368 335.956 72.597L337.338 74.043ZM340.064 74.0557L354.464 89.1307L355.91 87.7493L341.51 72.6743L340.064 74.0557ZM325.217 86C318.602 86 313.928 84.4398 310.98 81.5196L309.573 82.9404C313.045 86.3802 318.332 88 325.217 88V86ZM310.987 81.5262C308.067 78.5784 306.507 73.9051 306.507 67.29H304.507C304.507 74.1749 306.126 79.4616 309.566 82.9338L310.987 81.5262ZM306.507 67.29V46.59H304.507V67.29H306.507ZM306.507 46.59C306.507 39.9099 308.069 35.2443 310.98 32.3604L309.573 30.9395C306.124 34.3557 304.507 39.6501 304.507 46.59H306.507ZM310.98 32.3604C313.926 29.4427 318.58 27.9112 325.163 27.97L325.181 25.97C318.323 25.9088 313.048 27.4973 309.573 30.9396L310.98 32.3604ZM325.172 27.97H336.017V25.97H325.172V27.97ZM336.017 27.97C342.633 27.97 347.288 29.5306 350.205 32.4471L351.619 31.0329C348.175 27.5894 342.901 25.97 336.017 25.97V27.97ZM350.205 32.4471C353.12 35.3629 354.682 40.0324 354.682 46.68H356.682C356.682 39.7675 355.063 34.4771 351.619 31.0329L350.205 32.4471ZM354.682 46.68V67.29H356.682V46.68H354.682ZM354.682 67.29C354.682 73.9051 353.121 78.5784 350.201 81.5262L351.622 82.9338C355.062 79.4616 356.682 74.1749 356.682 67.29H354.682ZM350.205 81.5229C347.288 84.4394 342.633 86 336.017 86V88C342.901 88 348.175 86.3806 351.619 82.9371L350.205 81.5229ZM336.017 86H325.217V88H336.017V86ZM325.217 81.385H336.017V79.385H325.217V81.385ZM336.017 81.385C339.351 81.385 342.084 80.9747 344.151 80.0891L343.363 78.2509C341.649 78.9853 339.222 79.385 336.017 79.385V81.385ZM344.145 80.0914C346.3 79.1823 347.857 77.6453 348.771 75.5139L346.932 74.7261C346.226 76.3747 345.053 77.5377 343.368 78.2486L344.145 80.0914ZM348.773 75.5087C349.656 73.4149 350.067 70.6544 350.067 67.29H348.067C348.067 70.5256 347.667 72.9851 346.93 74.7313L348.773 75.5087ZM350.067 67.29V46.68H348.067V67.29H350.067ZM350.067 46.68C350.067 43.3454 349.656 40.6124 348.771 38.5461L346.932 39.3339C347.667 41.0476 348.067 43.4746 348.067 46.68H350.067ZM348.773 38.5513C347.862 36.3911 346.306 34.835 344.145 33.9236L343.368 35.7664C345.048 36.475 346.222 37.6489 346.93 39.3287L348.773 38.5513ZM344.163 33.9312C342.092 33.0109 339.354 32.585 336.017 32.585V34.585C339.219 34.585 341.641 34.9991 343.351 35.7588L344.163 33.9312ZM336.017 32.585H325.172V34.585H336.017V32.585ZM325.181 32.585C321.845 32.5544 319.108 32.9485 317.038 33.8359L317.826 35.6741C319.535 34.9414 321.958 34.5556 325.162 34.585L325.181 32.585ZM317.05 33.8306C314.914 34.7121 313.361 36.2536 312.42 38.4042L314.253 39.2058C314.992 37.5164 316.169 36.3579 317.813 35.6794L317.05 33.8306ZM312.417 38.4111C311.532 40.4782 311.122 43.2269 311.122 46.59H313.122C313.122 43.3531 313.522 40.9118 314.256 39.1989L312.417 38.4111ZM311.122 46.59V67.29H313.122V46.59H311.122ZM311.122 67.29C311.122 70.6544 311.532 73.4149 312.415 75.5087L314.258 74.7313C313.521 72.9851 313.122 70.5256 313.122 67.29H311.122ZM312.417 75.5139C313.329 77.6399 314.867 79.178 316.993 80.0891L317.781 78.2509C316.127 77.542 314.965 76.3801 314.256 74.7261L312.417 75.5139ZM316.998 80.0914C319.092 80.9747 321.852 81.385 325.217 81.385V79.385C321.981 79.385 319.522 78.9853 317.775 78.2486L316.998 80.0914Z" fill="#2FB834" mask="url(#path-10-outside-1_3_26)"/>
</svg>
