<svg width="281" height="220" viewBox="0 0 281 220" fill="none" xmlns="http://www.w3.org/2000/svg">
<path d="M114.719 128.965C115.654 141.098 124.938 150.548 141.585 151.667V160.621H148.972V151.604C166.21 150.357 176.281 140.844 176.281 127.032C176.281 114.479 168.574 108.005 154.796 104.647L148.972 103.223V78.8415C156.36 79.7064 161.063 83.878 162.196 89.6522H175.148C174.213 77.964 164.51 68.8194 148.972 67.8274V58.8736H141.585V68.0182C126.871 69.5062 116.836 78.6507 116.836 91.5854C116.836 103.032 124.298 110.307 136.697 113.296L141.585 114.542V140.411C134.012 139.229 129.001 134.942 127.868 128.965H114.719ZM141.523 101.417C134.259 99.6743 130.319 96.1258 130.319 90.7841C130.319 84.8065 134.567 80.3296 141.585 79.0196V101.404L141.523 101.417ZM150.043 116.59C158.871 118.701 162.947 122.122 162.947 128.164C162.947 135.057 157.874 139.788 148.972 140.653V116.335L150.043 116.59Z" fill="#00FF38" fill-opacity="0.75"/>
<path d="M145.5 198.776C122.642 198.776 100.72 189.396 84.5562 172.7C68.3929 156.004 59.3125 133.359 59.3125 109.747C59.3125 86.1353 68.3929 63.4905 84.5562 46.7944C100.72 30.0982 122.642 20.7184 145.5 20.7184C168.358 20.7184 190.28 30.0982 206.444 46.7944C222.607 63.4905 231.688 86.1353 231.688 109.747C231.688 133.359 222.607 156.004 206.444 172.7C190.28 189.396 168.358 198.776 145.5 198.776ZM145.5 211.495C171.624 211.495 196.678 200.775 215.15 181.693C233.622 162.612 244 136.732 244 109.747C244 82.7622 233.622 56.8824 215.15 37.8011C196.678 18.7198 171.624 8 145.5 8C119.376 8 94.3223 18.7198 75.85 37.8011C57.3777 56.8824 47 82.7622 47 109.747C47 136.732 57.3777 162.612 75.85 181.693C94.3223 200.775 119.376 211.495 145.5 211.495Z" fill="#00FF38" fill-opacity="0.75"/>
<path d="M145.5 179.699C127.54 179.699 110.315 172.329 97.6156 159.21C84.9159 146.092 77.7813 128.299 77.7812 109.747C77.7812 91.195 84.9159 73.4027 97.6156 60.2843C110.315 47.1659 127.54 39.796 145.5 39.796C163.46 39.796 180.685 47.1659 193.384 60.2843C206.084 73.4027 213.219 91.195 213.219 109.747C213.219 128.299 206.084 146.092 193.384 159.21C180.685 172.329 163.46 179.699 145.5 179.699ZM145.5 186.058C155.201 186.058 164.808 184.084 173.771 180.249C182.734 176.414 190.878 170.793 197.738 163.707C204.597 156.621 210.039 148.208 213.752 138.95C217.464 129.692 219.375 119.768 219.375 109.747C219.375 99.726 217.464 89.8029 213.752 80.5445C210.039 71.2861 204.597 62.8737 197.738 55.7876C190.878 48.7016 182.734 43.0806 173.771 39.2456C164.808 35.4107 155.201 33.4368 145.5 33.4368C125.907 33.4368 107.117 41.4767 93.2625 55.7876C79.4082 70.0986 71.625 89.5085 71.625 109.747C71.625 129.986 79.4082 149.396 93.2625 163.707C107.117 178.018 125.907 186.058 145.5 186.058Z" fill="#00FF38" fill-opacity="0.75"/>
<mask id="path-4-outside-1_3_28" maskUnits="userSpaceOnUse" x="30.98" y="25.997" width="224.806" height="176.812" fill="black">
<rect fill="white" x="30.98" y="25.997" width="224.806" height="176.812"/>
<path d="M77.7564 181.953C71.2147 186.418 65.1833 188.33 59.6623 187.691C54.1188 187.019 49.3177 183.71 45.259 177.763C41.2228 171.849 39.9021 166.188 41.2967 160.781C42.6913 155.374 46.6708 150.455 53.235 146.023L71.1437 133.946L75.473 140.29L58.1771 152.094C53.882 155.025 51.3139 158.109 50.4726 161.347C49.6313 164.585 50.5861 168.219 53.337 172.25C56.0879 176.281 59.1354 178.511 62.4796 178.94C65.8012 179.337 69.6095 178.07 73.9046 175.138L91.6961 162.996L96.093 169.439L77.7564 181.953ZM103.848 163.783L75.7 131.054L83.6293 125.643L104.209 149.517L108.896 135.204L96.4154 116.917L104.345 111.505L116.859 129.842L131.763 130.711L117.081 102.813L125.011 97.401L145.229 135.541L138.588 140.073L116.818 138.296L110.489 159.251L103.848 163.783ZM155.127 128.786L130.944 93.3515L138.873 87.9399L148.783 102.461L173.761 85.4139L163.851 70.8933L171.78 65.4817L195.963 100.916L188.034 106.328L178.158 91.8565L153.18 108.903L163.057 123.374L155.127 128.786ZM220.955 84.2231C214.644 88.5299 208.728 90.3638 203.207 89.7248C197.664 89.0528 192.863 85.7433 188.804 79.7963C184.768 73.8823 183.458 68.2383 184.876 62.8642C186.27 57.457 190.238 52.5211 196.78 48.0565L205.701 41.9685C212.242 37.5039 218.285 35.6076 223.829 36.2796C229.349 36.9186 234.128 40.195 238.164 46.109C242.223 52.056 243.555 57.7331 242.16 63.1403C240.743 68.5144 236.846 73.3774 230.47 77.7292L229.826 78.1689L233.377 83.3725L225.448 88.7841L221.896 83.5805L220.955 84.2231ZM221.201 65.5315L225.429 71.7263C229.668 68.7845 232.192 65.7061 233 62.4909C233.808 59.2758 232.837 55.6528 230.086 51.6221C227.335 47.5913 224.299 45.3777 220.977 44.9811C217.689 44.5619 213.881 45.8293 209.552 48.7831L201.722 54.1271C197.427 57.0584 194.859 60.1429 194.018 63.3806C193.176 66.6182 194.131 70.2525 196.882 74.2832C199.633 78.314 202.681 80.5442 206.025 80.9738C209.346 81.3704 213.171 80.0918 217.499 77.1379L213.271 70.9431L221.201 65.5315Z"/>
</mask>
<path d="M77.7564 181.953C71.2147 186.418 65.1833 188.33 59.6623 187.691C54.1188 187.019 49.3177 183.71 45.259 177.763C41.2228 171.849 39.9021 166.188 41.2967 160.781C42.6913 155.374 46.6708 150.455 53.235 146.023L71.1437 133.946L75.473 140.29L58.1771 152.094C53.882 155.025 51.3139 158.109 50.4726 161.347C49.6313 164.585 50.5861 168.219 53.337 172.25C56.0879 176.281 59.1354 178.511 62.4796 178.94C65.8012 179.337 69.6095 178.07 73.9046 175.138L91.6961 162.996L96.093 169.439L77.7564 181.953ZM103.848 163.783L75.7 131.054L83.6293 125.643L104.209 149.517L108.896 135.204L96.4154 116.917L104.345 111.505L116.859 129.842L131.763 130.711L117.081 102.813L125.011 97.401L145.229 135.541L138.588 140.073L116.818 138.296L110.489 159.251L103.848 163.783ZM155.127 128.786L130.944 93.3515L138.873 87.9399L148.783 102.461L173.761 85.4139L163.851 70.8933L171.78 65.4817L195.963 100.916L188.034 106.328L178.158 91.8565L153.18 108.903L163.057 123.374L155.127 128.786ZM220.955 84.2231C214.644 88.5299 208.728 90.3638 203.207 89.7248C197.664 89.0528 192.863 85.7433 188.804 79.7963C184.768 73.8823 183.458 68.2383 184.876 62.8642C186.27 57.457 190.238 52.5211 196.78 48.0565L205.701 41.9685C212.242 37.5039 218.285 35.6076 223.829 36.2796C229.349 36.9186 234.128 40.195 238.164 46.109C242.223 52.056 243.555 57.7331 242.16 63.1403C240.743 68.5144 236.846 73.3774 230.47 77.7292L229.826 78.1689L233.377 83.3725L225.448 88.7841L221.896 83.5805L220.955 84.2231ZM221.201 65.5315L225.429 71.7263C229.668 68.7845 232.192 65.7061 233 62.4909C233.808 59.2758 232.837 55.6528 230.086 51.6221C227.335 47.5913 224.299 45.3777 220.977 44.9811C217.689 44.5619 213.881 45.8293 209.552 48.7831L201.722 54.1271C197.427 57.0584 194.859 60.1429 194.018 63.3806C193.176 66.6182 194.131 70.2525 196.882 74.2832C199.633 78.314 202.681 80.5442 206.025 80.9738C209.346 81.3704 213.171 80.0918 217.499 77.1379L213.271 70.9431L221.201 65.5315Z" fill="black"/>
<path d="M59.6623 187.691L59.542 188.684L59.5474 188.685L59.6623 187.691ZM41.2967 160.781L40.3284 160.531L41.2967 160.781ZM53.235 146.023L52.6759 145.194L52.6755 145.194L53.235 146.023ZM71.1437 133.946L71.9697 133.382L71.4091 132.561L70.5846 133.117L71.1437 133.946ZM75.473 140.29L76.0367 141.116L76.8627 140.552L76.299 139.726L75.473 140.29ZM50.4726 161.347L51.4404 161.599L51.4404 161.599L50.4726 161.347ZM62.4796 178.94L62.3522 179.932L62.361 179.933L62.4796 178.94ZM91.6961 162.996L92.522 162.432L91.9583 161.606L91.1324 162.17L91.6961 162.996ZM96.093 169.439L96.6567 170.265L97.4827 169.701L96.919 168.875L96.093 169.439ZM77.1927 181.127C70.7663 185.513 64.9752 187.3 59.7773 186.698L59.5474 188.685C65.3915 189.361 71.6631 187.322 78.3201 182.779L77.1927 181.127ZM59.7827 186.699C54.6031 186.071 50.0314 182.982 46.0849 177.199L44.433 178.327C48.6039 184.438 53.6345 187.968 59.542 188.684L59.7827 186.699ZM46.0849 177.199C42.1622 171.451 40.9615 166.085 42.265 161.031L40.3284 160.531C38.8426 166.292 40.2835 172.246 44.433 178.327L46.0849 177.199ZM42.265 161.031C43.5774 155.943 47.3487 151.204 53.7946 146.852L52.6755 145.194C45.9928 149.706 41.8053 154.805 40.3284 160.531L42.265 161.031ZM53.7941 146.852L71.7028 134.775L70.5846 133.117L52.6759 145.194L53.7941 146.852ZM70.3177 134.51L74.647 140.853L76.299 139.726L71.9697 133.382L70.3177 134.51ZM74.9093 139.464L57.6134 151.268L58.7408 152.92L76.0367 141.116L74.9093 139.464ZM57.6134 151.268C53.2244 154.263 50.4327 157.524 49.5047 161.096L51.4404 161.599C52.195 158.695 54.5397 155.787 58.7408 152.92L57.6134 151.268ZM49.5047 161.096C48.5626 164.721 49.6736 168.656 52.511 172.813L54.163 171.686C51.4986 167.782 50.7 164.448 51.4404 161.599L49.5047 161.096ZM52.511 172.813C55.3494 176.972 58.6169 179.452 62.3522 179.932L62.607 177.948C59.6539 177.569 56.8264 175.589 54.163 171.686L52.511 172.813ZM62.361 179.933C66.0251 180.371 70.0793 178.96 74.4683 175.964L73.3409 174.312C69.1398 177.179 65.5773 178.303 62.5981 177.947L62.361 179.933ZM74.4683 175.964L92.2598 163.822L91.1324 162.17L73.3409 174.312L74.4683 175.964ZM90.8701 163.56L95.267 170.002L96.919 168.875L92.522 162.432L90.8701 163.56ZM95.5293 168.613L77.1927 181.127L78.3201 182.779L96.6567 170.265L95.5293 168.613ZM103.848 163.783L103.09 164.435L103.673 165.113L104.412 164.609L103.848 163.783ZM75.7 131.054L75.1363 130.228L74.2127 130.859L74.9418 131.706L75.7 131.054ZM83.6293 125.643L84.3868 124.99L83.8035 124.313L83.0656 124.817L83.6293 125.643ZM104.209 149.517L103.451 150.17L104.608 151.511L105.159 149.828L104.209 149.517ZM108.896 135.204L109.846 135.515L110 135.047L109.722 134.64L108.896 135.204ZM96.4154 116.917L95.8517 116.091L95.0257 116.654L95.5894 117.48L96.4154 116.917ZM104.345 111.505L105.171 110.941L104.607 110.115L103.781 110.679L104.345 111.505ZM116.859 129.842L116.033 130.405L116.31 130.811L116.801 130.84L116.859 129.842ZM131.763 130.711L131.705 131.71L133.473 131.813L132.648 130.246L131.763 130.711ZM117.081 102.813L116.518 101.987L115.781 102.489L116.196 103.278L117.081 102.813ZM125.011 97.401L125.894 96.9326L125.37 95.9447L124.447 96.575L125.011 97.401ZM145.229 135.541L145.793 136.367L146.531 135.863L146.113 135.073L145.229 135.541ZM138.588 140.073L138.507 141.07L138.86 141.099L139.152 140.899L138.588 140.073ZM116.818 138.296L116.899 137.299L116.094 137.234L115.861 138.007L116.818 138.296ZM110.489 159.251L111.052 160.077L111.344 159.878L111.446 159.54L110.489 159.251ZM104.606 163.131L76.4582 130.402L74.9418 131.706L103.09 164.435L104.606 163.131ZM76.2637 131.88L84.193 126.469L83.0656 124.817L75.1363 130.228L76.2637 131.88ZM82.8719 126.296L103.451 150.17L104.966 148.864L84.3868 124.99L82.8719 126.296ZM105.159 149.828L109.846 135.515L107.946 134.892L103.258 149.206L105.159 149.828ZM109.722 134.64L97.2414 116.353L95.5894 117.48L108.07 135.767L109.722 134.64ZM96.9791 117.743L104.908 112.331L103.781 110.679L95.8517 116.091L96.9791 117.743ZM103.519 112.069L116.033 130.405L117.685 129.278L105.171 110.941L103.519 112.069ZM116.801 130.84L131.705 131.71L131.821 129.713L116.917 128.843L116.801 130.84ZM132.648 130.246L117.966 102.347L116.196 103.278L130.878 131.177L132.648 130.246ZM117.645 103.639L125.574 98.2269L124.447 96.575L116.518 101.987L117.645 103.639ZM124.127 97.8693L144.346 136.009L146.113 135.073L125.894 96.9326L124.127 97.8693ZM144.665 134.715L138.025 139.247L139.152 140.899L145.793 136.367L144.665 134.715ZM138.67 139.077L116.899 137.299L116.736 139.293L138.507 141.07L138.67 139.077ZM115.861 138.007L109.531 158.961L111.446 159.54L117.775 138.585L115.861 138.007ZM109.925 158.425L103.284 162.957L104.412 164.609L111.052 160.077L109.925 158.425ZM155.127 128.786L154.301 129.349L154.865 130.175L155.691 129.612L155.127 128.786ZM130.944 93.3515L130.38 92.5255L129.554 93.0892L130.118 93.9152L130.944 93.3515ZM138.873 87.9399L139.699 87.3762L139.136 86.5502L138.31 87.1139L138.873 87.9399ZM148.783 102.461L147.957 103.024L148.521 103.85L149.347 103.286L148.783 102.461ZM173.761 85.4139L174.325 86.2399L175.151 85.6762L174.587 84.8502L173.761 85.4139ZM163.851 70.8933L163.287 70.0673L162.461 70.6311L163.025 71.457L163.851 70.8933ZM171.78 65.4817L172.606 64.918L172.042 64.092L171.216 64.6557L171.78 65.4817ZM195.963 100.916L196.527 101.742L197.353 101.178L196.789 100.352L195.963 100.916ZM188.034 106.328L187.208 106.891L187.772 107.717L188.598 107.154L188.034 106.328ZM178.158 91.8565L178.984 91.2928L178.42 90.4668L177.594 91.0305L178.158 91.8565ZM153.18 108.903L152.617 108.077L151.791 108.641L152.354 109.467L153.18 108.903ZM163.057 123.374L163.62 124.2L164.446 123.636L163.883 122.81L163.057 123.374ZM155.953 128.222L131.77 92.7878L130.118 93.9152L154.301 129.349L155.953 128.222ZM131.508 94.1775L139.437 88.7659L138.31 87.1139L130.38 92.5255L131.508 94.1775ZM138.047 88.5036L147.957 103.024L149.609 101.897L139.699 87.3762L138.047 88.5036ZM149.347 103.286L174.325 86.2399L173.197 84.588L148.22 101.635L149.347 103.286ZM174.587 84.8502L164.677 70.3296L163.025 71.457L172.935 85.9776L174.587 84.8502ZM164.415 71.7193L172.344 66.3077L171.216 64.6557L163.287 70.0673L164.415 71.7193ZM170.954 66.0454L195.137 101.48L196.789 100.352L172.606 64.918L170.954 66.0454ZM195.4 100.09L187.47 105.502L188.598 107.154L196.527 101.742L195.4 100.09ZM188.86 105.764L178.984 91.2928L177.332 92.4202L187.208 106.891L188.86 105.764ZM177.594 91.0305L152.617 108.077L153.744 109.729L178.721 92.6825L177.594 91.0305ZM152.354 109.467L162.231 123.938L163.883 122.81L154.006 108.339L152.354 109.467ZM162.493 122.548L154.563 127.96L155.691 129.612L163.62 124.2L162.493 122.548ZM203.207 89.7248L203.087 90.7175L203.092 90.7182L203.207 89.7248ZM184.876 62.8642L185.843 63.1191L185.844 63.1139L184.876 62.8642ZM223.829 36.2796L223.708 37.2724L223.714 37.273L223.829 36.2796ZM242.16 63.1403L243.127 63.3953L243.129 63.39L242.16 63.1403ZM229.826 78.1689L229.262 77.3429L228.436 77.9066L229 78.7326L229.826 78.1689ZM233.377 83.3725L233.941 84.1985L234.767 83.6348L234.203 82.8088L233.377 83.3725ZM225.448 88.7841L224.622 89.3478L225.185 90.1738L226.011 89.6101L225.448 88.7841ZM221.896 83.5805L222.722 83.0168L222.158 82.1908L221.332 82.7545L221.896 83.5805ZM221.201 65.5315L222.027 64.9678L221.463 64.1418L220.637 64.7055L221.201 65.5315ZM225.429 71.7263L224.603 72.29L225.171 73.1224L225.999 72.5479L225.429 71.7263ZM233 62.4909L233.97 62.7347L233.97 62.7347L233 62.4909ZM220.977 44.9811L220.851 45.9731L220.859 45.974L220.977 44.9811ZM194.018 63.3806L194.986 63.632L194.986 63.632L194.018 63.3806ZM206.025 80.9738L205.897 81.9657L205.906 81.9667L206.025 80.9738ZM217.499 77.1379L218.063 77.9639L218.889 77.4002L218.325 76.5742L217.499 77.1379ZM213.271 70.9431L212.708 70.1171L211.882 70.6809L212.445 71.5068L213.271 70.9431ZM220.391 83.3972C214.205 87.6191 208.528 89.3339 203.322 88.7314L203.092 90.7182C208.929 91.3936 215.084 89.4406 221.518 85.0491L220.391 83.3972ZM203.328 88.7321C198.148 88.1042 193.577 85.0151 189.63 79.2326L187.978 80.36C192.149 86.4714 197.18 90.0014 203.087 90.7175L203.328 88.7321ZM189.63 79.2326C185.707 73.4843 184.519 68.1366 185.843 63.1191L183.909 62.6092C182.397 68.34 183.829 74.2804 187.978 80.36L189.63 79.2326ZM185.844 63.1139C187.157 58.0233 190.919 53.2671 197.344 48.8825L196.216 47.2306C189.557 51.7752 185.384 56.8907 183.907 62.6144L185.844 63.1139ZM197.344 48.8825L206.264 42.7945L205.137 41.1425L196.216 47.2306L197.344 48.8825ZM206.264 42.7945C212.689 38.4099 218.489 36.6397 223.708 37.2723L223.949 35.2869C218.081 34.5755 211.796 36.5979 205.137 41.1425L206.264 42.7945ZM223.714 37.273C228.868 37.8695 233.415 40.9244 237.338 46.6727L238.99 45.5453C234.841 39.4657 229.831 35.9676 223.943 35.2862L223.714 37.273ZM237.338 46.6727C241.285 52.4553 242.495 57.8383 241.192 62.8905L243.129 63.39C244.615 57.6279 243.161 51.6567 238.99 45.5453L237.338 46.6727ZM241.193 62.8853C239.858 67.9501 236.161 72.6344 229.906 76.9032L231.034 78.5552C237.532 74.1203 241.629 69.0787 243.127 63.3952L241.193 62.8853ZM229.906 76.9032L229.262 77.3429L230.389 78.9949L231.034 78.5552L229.906 76.9032ZM229 78.7326L232.551 83.9362L234.203 82.8088L230.652 77.6052L229 78.7326ZM232.813 82.5466L224.884 87.9582L226.011 89.6101L233.941 84.1985L232.813 82.5466ZM226.274 88.2204L222.722 83.0168L221.07 84.1442L224.622 89.3478L226.274 88.2204ZM221.332 82.7545L220.391 83.3972L221.518 85.0491L222.46 84.4065L221.332 82.7545ZM220.375 66.0952L224.603 72.29L226.255 71.1626L222.027 64.9678L220.375 66.0952ZM225.999 72.5479C230.331 69.5415 233.078 66.2847 233.97 62.7347L232.03 62.2471C231.306 65.1274 229.005 68.0276 224.859 70.9047L225.999 72.5479ZM233.97 62.7347C234.876 59.1325 233.747 55.2122 230.912 51.0584L229.26 52.1858C231.927 56.0935 232.741 59.4191 232.03 62.2471L233.97 62.7347ZM230.912 51.0584C228.075 46.9009 224.816 44.4323 221.096 43.9881L220.859 45.974C223.782 46.3231 226.596 48.2818 229.26 52.1858L230.912 51.0584ZM221.104 43.9891C217.466 43.5254 213.407 44.9415 208.989 47.9571L210.116 49.6091C214.354 46.717 217.912 45.5985 220.851 45.9731L221.104 43.9891ZM208.989 47.9571L201.158 53.3011L202.286 54.9531L210.116 49.6091L208.989 47.9571ZM201.158 53.3011C196.769 56.2965 193.978 59.5576 193.05 63.1291L194.986 63.632C195.74 60.7281 198.085 57.8202 202.286 54.9531L201.158 53.3011ZM193.05 63.1291C192.108 66.7548 193.219 70.6894 196.056 74.8469L197.708 73.7195C195.044 69.8155 194.245 66.4816 194.986 63.632L193.05 63.1291ZM196.056 74.8469C198.894 79.0058 202.162 81.4858 205.897 81.9656L206.152 79.9819C203.199 79.6025 200.372 77.6221 197.708 73.7195L196.056 74.8469ZM205.906 81.9667C209.572 82.4044 213.643 80.9805 218.063 77.9639L216.936 76.3119C212.699 79.203 209.121 80.3364 206.143 79.9808L205.906 81.9667ZM218.325 76.5742L214.097 70.3794L212.445 71.5068L216.673 77.7016L218.325 76.5742ZM213.835 71.7691L221.764 66.3575L220.637 64.7055L212.708 70.1171L213.835 71.7691Z" fill="#2FB834" mask="url(#path-4-outside-1_3_28)"/>
</svg>
