<svg width="333" height="175" viewBox="0 0 333 175" fill="none" xmlns="http://www.w3.org/2000/svg">
<g clip-path="url(#clip0_1_8)">
<path d="M139.156 104.027C139.987 114.461 148.234 122.587 163.022 123.55V131.25H169.584V123.495C184.897 122.423 193.844 114.242 193.844 102.364C193.844 91.5688 186.997 86.0016 174.758 83.1141L169.584 81.8891V60.9219C176.147 61.6656 180.325 65.2531 181.331 70.2188H192.837C192.006 60.1672 183.387 52.3031 169.584 51.45V43.75H163.022V51.6141C149.952 52.8937 141.037 60.7578 141.037 71.8813C141.037 81.725 147.666 87.9813 158.68 90.5516L163.022 91.6234V113.87C156.295 112.853 151.844 109.167 150.837 104.027H139.156ZM162.967 80.3359C156.514 78.8375 153.014 75.7859 153.014 71.1922C153.014 66.0516 156.788 62.2016 163.022 61.075V80.325L162.967 80.3359ZM170.536 93.3844C178.378 95.2 181.998 98.1422 181.998 103.337C181.998 109.266 177.492 113.334 169.584 114.078V93.1656L170.536 93.3844Z" fill="#00FF38" fill-opacity="0.75"/>
<path d="M166.5 164.062C146.194 164.062 126.72 155.996 112.362 141.638C98.0039 127.28 89.9375 107.806 89.9375 87.5C89.9375 67.1944 98.0039 47.7204 112.362 33.3621C126.72 19.0039 146.194 10.9375 166.5 10.9375C186.806 10.9375 206.28 19.0039 220.638 33.3621C234.996 47.7204 243.062 67.1944 243.062 87.5C243.062 107.806 234.996 127.28 220.638 141.638C206.28 155.996 186.806 164.062 166.5 164.062ZM166.5 175C189.706 175 211.962 165.781 228.372 149.372C244.781 132.962 254 110.706 254 87.5C254 64.2936 244.781 42.0376 228.372 25.6282C211.962 9.21873 189.706 0 166.5 0C143.294 0 121.038 9.21873 104.628 25.6282C88.2187 42.0376 79 64.2936 79 87.5C79 110.706 88.2187 132.962 104.628 149.372C121.038 165.781 143.294 175 166.5 175Z" fill="#00FF38" fill-opacity="0.75"/>
<path d="M166.5 147.656C150.546 147.656 135.245 141.318 123.963 130.037C112.682 118.755 106.344 103.454 106.344 87.5C106.344 71.5456 112.682 56.2446 123.963 44.9631C135.245 33.6816 150.546 27.3438 166.5 27.3438C182.454 27.3438 197.755 33.6816 209.037 44.9631C220.318 56.2446 226.656 71.5456 226.656 87.5C226.656 103.454 220.318 118.755 209.037 130.037C197.755 141.318 182.454 147.656 166.5 147.656ZM166.5 153.125C175.118 153.125 183.652 151.428 191.614 148.13C199.576 144.832 206.81 139.998 212.904 133.904C218.998 127.81 223.832 120.576 227.13 112.614C230.428 104.652 232.125 96.118 232.125 87.5C232.125 78.882 230.428 70.3484 227.13 62.3864C223.832 54.4244 218.998 47.19 212.904 41.0961C206.81 35.0023 199.576 30.1684 191.614 26.8704C183.652 23.5724 175.118 21.875 166.5 21.875C149.095 21.875 132.403 28.789 120.096 41.0961C107.789 53.4032 100.875 70.0952 100.875 87.5C100.875 104.905 107.789 121.597 120.096 133.904C132.403 146.211 149.095 153.125 166.5 153.125Z" fill="#00FF38" fill-opacity="0.75"/>
</g>
<mask id="path-4-outside-1_1_8" maskUnits="userSpaceOnUse" x="23" y="39" width="284" height="108" fill="black">
<rect fill="white" x="23" y="39" width="284" height="108"/>
<path d="M79.7663 77C75.6413 77 72.598 76.0283 70.6363 74.085C68.693 72.1233 67.7213 69.08 67.7213 64.955V52.36C67.7213 48.1983 68.693 45.1458 70.6363 43.2025C72.5796 41.2592 75.6046 40.2967 79.7113 40.315H86.3663C89.7763 40.315 92.3613 41.03 94.1213 42.46C95.8813 43.8717 96.8896 46.1083 97.1463 49.17C97.238 49.8483 97.1096 50.3708 96.7613 50.7375C96.413 51.0858 95.8996 51.26 95.2213 51.26C93.993 51.26 93.2871 50.5817 93.1038 49.225C92.9388 47.355 92.343 46.0808 91.3163 45.4025C90.2896 44.7058 88.6396 44.3575 86.3663 44.3575H79.7113C77.713 44.3575 76.1363 44.605 74.9813 45.1C73.8263 45.5767 73.0013 46.4017 72.5063 47.575C72.0113 48.73 71.7638 50.325 71.7638 52.36V64.955C71.7638 66.9717 72.0113 68.5667 72.5063 69.74C73.0013 70.895 73.8263 71.72 74.9813 72.215C76.1546 72.71 77.7496 72.9575 79.7663 72.9575H86.3663C88.6396 72.9575 90.2896 72.6183 91.3163 71.94C92.343 71.2433 92.9388 69.96 93.1038 68.09C93.2871 66.7333 93.993 66.055 95.2213 66.055C95.8996 66.055 96.413 66.2383 96.7613 66.605C97.1096 66.9533 97.238 67.4667 97.1463 68.145C96.8896 71.225 95.8813 73.4708 94.1213 74.8825C92.3613 76.2942 89.7763 77 86.3663 77H79.7663ZM130.534 77.0825C130.002 77.4308 129.498 77.5408 129.021 77.4125C128.545 77.2842 128.132 76.9542 127.784 76.4225L119.094 62.1775H110.596V74.965C110.596 76.3217 109.927 77 108.589 77C107.232 77 106.554 76.3217 106.554 74.965V42.35C106.554 40.9933 107.232 40.315 108.589 40.315H121.459C124.741 40.315 127.243 41.1858 128.966 42.9275C130.69 44.6508 131.551 47.1533 131.551 50.435V52.085C131.551 54.945 130.882 57.2183 129.544 58.905C128.224 60.5917 126.299 61.6275 123.769 62.0125L131.276 74.3325C131.918 75.4692 131.671 76.3858 130.534 77.0825ZM110.596 58.135H121.459C123.622 58.135 125.171 57.6675 126.106 56.7325C127.041 55.7975 127.509 54.2483 127.509 52.085V50.435C127.509 48.2717 127.041 46.7225 126.106 45.7875C125.171 44.8342 123.622 44.3575 121.459 44.3575H110.596V58.135ZM150.278 77C148.94 77 148.271 76.3217 148.271 74.965V63.415L135.758 43.5325C135.08 42.3958 135.291 41.4517 136.391 40.7C137.546 40.0033 138.481 40.2142 139.196 41.3325L150.278 59.07L161.801 41.3325C162.149 40.8008 162.562 40.4892 163.038 40.3975C163.515 40.2875 164.019 40.4158 164.551 40.7825C165.724 41.4975 165.935 42.4142 165.183 43.5325L152.313 63.415V74.965C152.313 76.3217 151.635 77 150.278 77ZM174.277 77C172.921 77 172.242 76.3217 172.242 74.965V42.35C172.242 40.9933 172.921 40.315 174.277 40.315H187.147C190.429 40.315 192.932 41.1858 194.655 42.9275C196.378 44.6508 197.24 47.1533 197.24 50.435V52.085C197.24 55.3667 196.378 57.8692 194.655 59.5925C192.932 61.3158 190.429 62.1775 187.147 62.1775H176.285V74.965C176.285 76.3217 175.616 77 174.277 77ZM176.285 58.135H187.147C189.311 58.135 190.86 57.6675 191.795 56.7325C192.73 55.7975 193.197 54.2483 193.197 52.085V50.435C193.197 48.2717 192.73 46.7225 191.795 45.7875C190.86 44.8342 189.311 44.3575 187.147 44.3575H176.285V58.135ZM215.951 77C215.291 77 214.787 76.835 214.439 76.505C214.09 76.1567 213.916 75.6525 213.916 74.9925V44.385H202.916C202.256 44.385 201.752 44.22 201.404 43.89C201.055 43.5417 200.881 43.0375 200.881 42.3775C200.881 41.7175 201.055 41.2133 201.404 40.865C201.752 40.5167 202.256 40.3425 202.916 40.3425H228.986C229.646 40.3425 230.141 40.5167 230.471 40.865C230.819 41.2133 230.994 41.7175 230.994 42.3775C230.994 43.0375 230.819 43.5417 230.471 43.89C230.141 44.22 229.646 44.385 228.986 44.385H217.959V74.9925C217.959 75.6158 217.784 76.1108 217.436 76.4775C217.088 76.8258 216.593 77 215.951 77ZM246.646 77C242.521 77 239.478 76.0283 237.516 74.085C235.573 72.1233 234.601 69.08 234.601 64.955V52.305C234.601 48.1433 235.573 45.1 237.516 43.175C239.478 41.2317 242.512 40.2783 246.619 40.315H253.246C257.371 40.315 260.405 41.2867 262.349 43.23C264.292 45.1733 265.264 48.2167 265.264 52.36V64.955C265.264 69.08 264.292 72.1233 262.349 74.085C260.405 76.0283 257.371 77 253.246 77H246.646ZM246.646 72.9575H253.246C255.245 72.9575 256.821 72.71 257.976 72.215C259.15 71.72 259.984 70.895 260.479 69.74C260.974 68.5667 261.221 66.9717 261.221 64.955V52.36C261.221 50.3617 260.974 48.785 260.479 47.63C259.984 46.4567 259.15 45.6225 257.976 45.1275C256.821 44.6142 255.245 44.3575 253.246 44.3575H246.619C244.62 44.3392 243.044 44.5775 241.889 45.0725C240.734 45.5492 239.9 46.3742 239.386 47.5475C238.891 48.7025 238.644 50.2883 238.644 52.305V64.955C238.644 66.9717 238.891 68.5667 239.386 69.74C239.881 70.895 240.706 71.72 241.861 72.215C243.035 72.71 244.63 72.9575 246.646 72.9575ZM36.914 142C36.0157 142 35.3832 141.432 35.0165 140.295L24.7315 108.01C24.5298 107.405 24.6123 106.8 24.979 106.195C25.364 105.59 25.9232 105.287 26.6565 105.287C27.0415 105.287 27.4082 105.416 27.7565 105.672C28.1232 105.911 28.3798 106.287 28.5265 106.8L37.7665 135.867H36.694L45.4665 107.02C45.6498 106.452 45.9523 106.03 46.374 105.755C46.814 105.462 47.2632 105.315 47.7215 105.315C48.1982 105.315 48.6657 105.462 49.124 105.755C49.5823 106.03 49.8848 106.452 50.0315 107.02L58.804 135.867H57.7315L66.9715 106.8C67.1548 106.287 67.4023 105.911 67.714 105.672C68.044 105.434 68.4107 105.315 68.814 105.315C69.5657 105.315 70.134 105.599 70.519 106.167C70.9223 106.717 71.014 107.332 70.794 108.01L60.4815 140.295C60.1148 141.432 59.409 142 58.364 142H58.254C57.1723 142 56.4665 141.432 56.1365 140.295L47.089 111.09H48.1615L39.0865 140.295C38.9215 140.9 38.674 141.34 38.344 141.615C38.014 141.872 37.5373 142 36.914 142ZM73.7949 141.807C72.5116 141.294 72.1266 140.405 72.6399 139.14L85.9224 106.91C86.3808 105.847 87.1324 105.315 88.1774 105.315H88.3149C89.3599 105.37 90.0749 105.902 90.4599 106.91L103.88 139.14C104.393 140.405 104.027 141.294 102.78 141.807C101.515 142.303 100.635 141.936 100.14 140.707L96.9224 133.007H79.5149L76.4074 140.707C75.8941 141.954 75.0233 142.321 73.7949 141.807ZM81.1099 128.965H95.2724L88.0949 111.722L81.1099 128.965ZM118.143 142C117.483 142 116.979 141.835 116.631 141.505C116.283 141.157 116.108 140.652 116.108 139.992V109.385H105.108C104.448 109.385 103.944 109.22 103.596 108.89C103.248 108.542 103.073 108.037 103.073 107.377C103.073 106.717 103.248 106.213 103.596 105.865C103.944 105.517 104.448 105.342 105.108 105.342H131.178C131.838 105.342 132.333 105.517 132.663 105.865C133.012 106.213 133.186 106.717 133.186 107.377C133.186 108.037 133.012 108.542 132.663 108.89C132.333 109.22 131.838 109.385 131.178 109.385H120.151V139.992C120.151 140.616 119.977 141.111 119.628 141.477C119.28 141.826 118.785 142 118.143 142ZM148.839 142C144.714 142 141.67 141.028 139.709 139.085C137.765 137.123 136.794 134.08 136.794 129.955V117.36C136.794 113.198 137.765 110.146 139.709 108.202C141.652 106.259 144.677 105.297 148.784 105.315H155.439C158.849 105.315 161.434 106.03 163.194 107.46C164.954 108.872 165.962 111.108 166.219 114.17C166.31 114.848 166.182 115.371 165.834 115.737C165.485 116.086 164.972 116.26 164.294 116.26C163.065 116.26 162.359 115.582 162.176 114.225C162.011 112.355 161.415 111.081 160.389 110.402C159.362 109.706 157.712 109.357 155.439 109.357H148.784C146.785 109.357 145.209 109.605 144.054 110.1C142.899 110.577 142.074 111.402 141.579 112.575C141.084 113.73 140.836 115.325 140.836 117.36V129.955C140.836 131.972 141.084 133.567 141.579 134.74C142.074 135.895 142.899 136.72 144.054 137.215C145.227 137.71 146.822 137.958 148.839 137.958H155.439C157.712 137.958 159.362 137.618 160.389 136.94C161.415 136.243 162.011 134.96 162.176 133.09C162.359 131.733 163.065 131.055 164.294 131.055C164.972 131.055 165.485 131.238 165.834 131.605C166.182 131.953 166.31 132.467 166.219 133.145C165.962 136.225 164.954 138.471 163.194 139.882C161.434 141.294 158.849 142 155.439 142H148.839ZM177.661 142C177.111 142 176.634 141.798 176.231 141.395C175.828 140.992 175.626 140.515 175.626 139.965V107.35C175.626 106.8 175.828 106.323 176.231 105.92C176.634 105.517 177.111 105.315 177.661 105.315C178.211 105.315 178.679 105.517 179.064 105.92C179.467 106.323 179.669 106.8 179.669 107.35V121.402H202.329V107.35C202.329 106.8 202.521 106.323 202.906 105.92C203.291 105.517 203.768 105.315 204.336 105.315C204.886 105.315 205.363 105.517 205.766 105.92C206.169 106.323 206.371 106.8 206.371 107.35V139.965C206.371 140.515 206.169 140.992 205.766 141.395C205.363 141.798 204.886 142 204.336 142C203.768 142 203.291 141.798 202.906 141.395C202.521 140.992 202.329 140.515 202.329 139.965V125.445H179.669V139.965C179.669 140.515 179.467 140.992 179.064 141.395C178.679 141.798 178.211 142 177.661 142ZM235.562 142C235.012 142 234.535 141.798 234.132 141.395C233.728 140.992 233.527 140.515 233.527 139.965V107.35C233.527 106.8 233.728 106.323 234.132 105.92C234.535 105.517 235.012 105.315 235.562 105.315C236.112 105.315 236.579 105.517 236.964 105.92C237.367 106.323 237.569 106.8 237.569 107.35V121.402H260.229V107.35C260.229 106.8 260.422 106.323 260.807 105.92C261.192 105.517 261.668 105.315 262.237 105.315C262.787 105.315 263.263 105.517 263.667 105.92C264.07 106.323 264.272 106.8 264.272 107.35V139.965C264.272 140.515 264.07 140.992 263.667 141.395C263.263 141.798 262.787 142 262.237 142C261.668 142 261.192 141.798 260.807 141.395C260.422 140.992 260.229 140.515 260.229 139.965V125.445H237.569V139.965C237.569 140.515 237.367 140.992 236.964 141.395C236.579 141.798 236.112 142 235.562 142ZM304.546 142.88C304.894 143.247 305.059 143.641 305.041 144.063C305.041 144.503 304.83 144.915 304.409 145.3C303.602 146.07 302.777 146.061 301.934 145.273L293.189 136.06C292.804 135.675 292.611 135.272 292.611 134.85C292.611 134.41 292.813 134.007 293.216 133.64C294.041 132.852 294.884 132.861 295.746 133.667L304.546 142.88ZM286.231 142C282.106 142 279.063 141.028 277.101 139.085C275.158 137.123 274.186 134.08 274.186 129.955V117.305C274.186 113.143 275.158 110.1 277.101 108.175C279.063 106.232 282.097 105.278 286.204 105.315H292.831C296.956 105.315 299.99 106.287 301.934 108.23C303.877 110.173 304.849 113.217 304.849 117.36V129.955C304.849 134.08 303.877 137.123 301.934 139.085C299.99 141.028 296.956 142 292.831 142H286.231ZM286.231 137.958H292.831C294.829 137.958 296.406 137.71 297.561 137.215C298.734 136.72 299.569 135.895 300.064 134.74C300.559 133.567 300.806 131.972 300.806 129.955V117.36C300.806 115.362 300.559 113.785 300.064 112.63C299.569 111.457 298.734 110.622 297.561 110.127C296.406 109.614 294.829 109.357 292.831 109.357H286.204C284.205 109.339 282.629 109.577 281.474 110.072C280.319 110.549 279.484 111.374 278.971 112.547C278.476 113.702 278.229 115.288 278.229 117.305V129.955C278.229 131.972 278.476 133.567 278.971 134.74C279.466 135.895 280.291 136.72 281.446 137.215C282.619 137.71 284.214 137.958 286.231 137.958Z"/>
</mask>
<path d="M79.7663 77C75.6413 77 72.598 76.0283 70.6363 74.085C68.693 72.1233 67.7213 69.08 67.7213 64.955V52.36C67.7213 48.1983 68.693 45.1458 70.6363 43.2025C72.5796 41.2592 75.6046 40.2967 79.7113 40.315H86.3663C89.7763 40.315 92.3613 41.03 94.1213 42.46C95.8813 43.8717 96.8896 46.1083 97.1463 49.17C97.238 49.8483 97.1096 50.3708 96.7613 50.7375C96.413 51.0858 95.8996 51.26 95.2213 51.26C93.993 51.26 93.2871 50.5817 93.1038 49.225C92.9388 47.355 92.343 46.0808 91.3163 45.4025C90.2896 44.7058 88.6396 44.3575 86.3663 44.3575H79.7113C77.713 44.3575 76.1363 44.605 74.9813 45.1C73.8263 45.5767 73.0013 46.4017 72.5063 47.575C72.0113 48.73 71.7638 50.325 71.7638 52.36V64.955C71.7638 66.9717 72.0113 68.5667 72.5063 69.74C73.0013 70.895 73.8263 71.72 74.9813 72.215C76.1546 72.71 77.7496 72.9575 79.7663 72.9575H86.3663C88.6396 72.9575 90.2896 72.6183 91.3163 71.94C92.343 71.2433 92.9388 69.96 93.1038 68.09C93.2871 66.7333 93.993 66.055 95.2213 66.055C95.8996 66.055 96.413 66.2383 96.7613 66.605C97.1096 66.9533 97.238 67.4667 97.1463 68.145C96.8896 71.225 95.8813 73.4708 94.1213 74.8825C92.3613 76.2942 89.7763 77 86.3663 77H79.7663ZM130.534 77.0825C130.002 77.4308 129.498 77.5408 129.021 77.4125C128.545 77.2842 128.132 76.9542 127.784 76.4225L119.094 62.1775H110.596V74.965C110.596 76.3217 109.927 77 108.589 77C107.232 77 106.554 76.3217 106.554 74.965V42.35C106.554 40.9933 107.232 40.315 108.589 40.315H121.459C124.741 40.315 127.243 41.1858 128.966 42.9275C130.69 44.6508 131.551 47.1533 131.551 50.435V52.085C131.551 54.945 130.882 57.2183 129.544 58.905C128.224 60.5917 126.299 61.6275 123.769 62.0125L131.276 74.3325C131.918 75.4692 131.671 76.3858 130.534 77.0825ZM110.596 58.135H121.459C123.622 58.135 125.171 57.6675 126.106 56.7325C127.041 55.7975 127.509 54.2483 127.509 52.085V50.435C127.509 48.2717 127.041 46.7225 126.106 45.7875C125.171 44.8342 123.622 44.3575 121.459 44.3575H110.596V58.135ZM150.278 77C148.94 77 148.271 76.3217 148.271 74.965V63.415L135.758 43.5325C135.08 42.3958 135.291 41.4517 136.391 40.7C137.546 40.0033 138.481 40.2142 139.196 41.3325L150.278 59.07L161.801 41.3325C162.149 40.8008 162.562 40.4892 163.038 40.3975C163.515 40.2875 164.019 40.4158 164.551 40.7825C165.724 41.4975 165.935 42.4142 165.183 43.5325L152.313 63.415V74.965C152.313 76.3217 151.635 77 150.278 77ZM174.277 77C172.921 77 172.242 76.3217 172.242 74.965V42.35C172.242 40.9933 172.921 40.315 174.277 40.315H187.147C190.429 40.315 192.932 41.1858 194.655 42.9275C196.378 44.6508 197.24 47.1533 197.24 50.435V52.085C197.24 55.3667 196.378 57.8692 194.655 59.5925C192.932 61.3158 190.429 62.1775 187.147 62.1775H176.285V74.965C176.285 76.3217 175.616 77 174.277 77ZM176.285 58.135H187.147C189.311 58.135 190.86 57.6675 191.795 56.7325C192.73 55.7975 193.197 54.2483 193.197 52.085V50.435C193.197 48.2717 192.73 46.7225 191.795 45.7875C190.86 44.8342 189.311 44.3575 187.147 44.3575H176.285V58.135ZM215.951 77C215.291 77 214.787 76.835 214.439 76.505C214.09 76.1567 213.916 75.6525 213.916 74.9925V44.385H202.916C202.256 44.385 201.752 44.22 201.404 43.89C201.055 43.5417 200.881 43.0375 200.881 42.3775C200.881 41.7175 201.055 41.2133 201.404 40.865C201.752 40.5167 202.256 40.3425 202.916 40.3425H228.986C229.646 40.3425 230.141 40.5167 230.471 40.865C230.819 41.2133 230.994 41.7175 230.994 42.3775C230.994 43.0375 230.819 43.5417 230.471 43.89C230.141 44.22 229.646 44.385 228.986 44.385H217.959V74.9925C217.959 75.6158 217.784 76.1108 217.436 76.4775C217.088 76.8258 216.593 77 215.951 77ZM246.646 77C242.521 77 239.478 76.0283 237.516 74.085C235.573 72.1233 234.601 69.08 234.601 64.955V52.305C234.601 48.1433 235.573 45.1 237.516 43.175C239.478 41.2317 242.512 40.2783 246.619 40.315H253.246C257.371 40.315 260.405 41.2867 262.349 43.23C264.292 45.1733 265.264 48.2167 265.264 52.36V64.955C265.264 69.08 264.292 72.1233 262.349 74.085C260.405 76.0283 257.371 77 253.246 77H246.646ZM246.646 72.9575H253.246C255.245 72.9575 256.821 72.71 257.976 72.215C259.15 71.72 259.984 70.895 260.479 69.74C260.974 68.5667 261.221 66.9717 261.221 64.955V52.36C261.221 50.3617 260.974 48.785 260.479 47.63C259.984 46.4567 259.15 45.6225 257.976 45.1275C256.821 44.6142 255.245 44.3575 253.246 44.3575H246.619C244.62 44.3392 243.044 44.5775 241.889 45.0725C240.734 45.5492 239.9 46.3742 239.386 47.5475C238.891 48.7025 238.644 50.2883 238.644 52.305V64.955C238.644 66.9717 238.891 68.5667 239.386 69.74C239.881 70.895 240.706 71.72 241.861 72.215C243.035 72.71 244.63 72.9575 246.646 72.9575ZM36.914 142C36.0157 142 35.3832 141.432 35.0165 140.295L24.7315 108.01C24.5298 107.405 24.6123 106.8 24.979 106.195C25.364 105.59 25.9232 105.287 26.6565 105.287C27.0415 105.287 27.4082 105.416 27.7565 105.672C28.1232 105.911 28.3798 106.287 28.5265 106.8L37.7665 135.867H36.694L45.4665 107.02C45.6498 106.452 45.9523 106.03 46.374 105.755C46.814 105.462 47.2632 105.315 47.7215 105.315C48.1982 105.315 48.6657 105.462 49.124 105.755C49.5823 106.03 49.8848 106.452 50.0315 107.02L58.804 135.867H57.7315L66.9715 106.8C67.1548 106.287 67.4023 105.911 67.714 105.672C68.044 105.434 68.4107 105.315 68.814 105.315C69.5657 105.315 70.134 105.599 70.519 106.167C70.9223 106.717 71.014 107.332 70.794 108.01L60.4815 140.295C60.1148 141.432 59.409 142 58.364 142H58.254C57.1723 142 56.4665 141.432 56.1365 140.295L47.089 111.09H48.1615L39.0865 140.295C38.9215 140.9 38.674 141.34 38.344 141.615C38.014 141.872 37.5373 142 36.914 142ZM73.7949 141.807C72.5116 141.294 72.1266 140.405 72.6399 139.14L85.9224 106.91C86.3808 105.847 87.1324 105.315 88.1774 105.315H88.3149C89.3599 105.37 90.0749 105.902 90.4599 106.91L103.88 139.14C104.393 140.405 104.027 141.294 102.78 141.807C101.515 142.303 100.635 141.936 100.14 140.707L96.9224 133.007H79.5149L76.4074 140.707C75.8941 141.954 75.0233 142.321 73.7949 141.807ZM81.1099 128.965H95.2724L88.0949 111.722L81.1099 128.965ZM118.143 142C117.483 142 116.979 141.835 116.631 141.505C116.283 141.157 116.108 140.652 116.108 139.992V109.385H105.108C104.448 109.385 103.944 109.22 103.596 108.89C103.248 108.542 103.073 108.037 103.073 107.377C103.073 106.717 103.248 106.213 103.596 105.865C103.944 105.517 104.448 105.342 105.108 105.342H131.178C131.838 105.342 132.333 105.517 132.663 105.865C133.012 106.213 133.186 106.717 133.186 107.377C133.186 108.037 133.012 108.542 132.663 108.89C132.333 109.22 131.838 109.385 131.178 109.385H120.151V139.992C120.151 140.616 119.977 141.111 119.628 141.477C119.28 141.826 118.785 142 118.143 142ZM148.839 142C144.714 142 141.67 141.028 139.709 139.085C137.765 137.123 136.794 134.08 136.794 129.955V117.36C136.794 113.198 137.765 110.146 139.709 108.202C141.652 106.259 144.677 105.297 148.784 105.315H155.439C158.849 105.315 161.434 106.03 163.194 107.46C164.954 108.872 165.962 111.108 166.219 114.17C166.31 114.848 166.182 115.371 165.834 115.737C165.485 116.086 164.972 116.26 164.294 116.26C163.065 116.26 162.359 115.582 162.176 114.225C162.011 112.355 161.415 111.081 160.389 110.402C159.362 109.706 157.712 109.357 155.439 109.357H148.784C146.785 109.357 145.209 109.605 144.054 110.1C142.899 110.577 142.074 111.402 141.579 112.575C141.084 113.73 140.836 115.325 140.836 117.36V129.955C140.836 131.972 141.084 133.567 141.579 134.74C142.074 135.895 142.899 136.72 144.054 137.215C145.227 137.71 146.822 137.958 148.839 137.958H155.439C157.712 137.958 159.362 137.618 160.389 136.94C161.415 136.243 162.011 134.96 162.176 133.09C162.359 131.733 163.065 131.055 164.294 131.055C164.972 131.055 165.485 131.238 165.834 131.605C166.182 131.953 166.31 132.467 166.219 133.145C165.962 136.225 164.954 138.471 163.194 139.882C161.434 141.294 158.849 142 155.439 142H148.839ZM177.661 142C177.111 142 176.634 141.798 176.231 141.395C175.828 140.992 175.626 140.515 175.626 139.965V107.35C175.626 106.8 175.828 106.323 176.231 105.92C176.634 105.517 177.111 105.315 177.661 105.315C178.211 105.315 178.679 105.517 179.064 105.92C179.467 106.323 179.669 106.8 179.669 107.35V121.402H202.329V107.35C202.329 106.8 202.521 106.323 202.906 105.92C203.291 105.517 203.768 105.315 204.336 105.315C204.886 105.315 205.363 105.517 205.766 105.92C206.169 106.323 206.371 106.8 206.371 107.35V139.965C206.371 140.515 206.169 140.992 205.766 141.395C205.363 141.798 204.886 142 204.336 142C203.768 142 203.291 141.798 202.906 141.395C202.521 140.992 202.329 140.515 202.329 139.965V125.445H179.669V139.965C179.669 140.515 179.467 140.992 179.064 141.395C178.679 141.798 178.211 142 177.661 142ZM235.562 142C235.012 142 234.535 141.798 234.132 141.395C233.728 140.992 233.527 140.515 233.527 139.965V107.35C233.527 106.8 233.728 106.323 234.132 105.92C234.535 105.517 235.012 105.315 235.562 105.315C236.112 105.315 236.579 105.517 236.964 105.92C237.367 106.323 237.569 106.8 237.569 107.35V121.402H260.229V107.35C260.229 106.8 260.422 106.323 260.807 105.92C261.192 105.517 261.668 105.315 262.237 105.315C262.787 105.315 263.263 105.517 263.667 105.92C264.07 106.323 264.272 106.8 264.272 107.35V139.965C264.272 140.515 264.07 140.992 263.667 141.395C263.263 141.798 262.787 142 262.237 142C261.668 142 261.192 141.798 260.807 141.395C260.422 140.992 260.229 140.515 260.229 139.965V125.445H237.569V139.965C237.569 140.515 237.367 140.992 236.964 141.395C236.579 141.798 236.112 142 235.562 142ZM304.546 142.88C304.894 143.247 305.059 143.641 305.041 144.063C305.041 144.503 304.83 144.915 304.409 145.3C303.602 146.07 302.777 146.061 301.934 145.273L293.189 136.06C292.804 135.675 292.611 135.272 292.611 134.85C292.611 134.41 292.813 134.007 293.216 133.64C294.041 132.852 294.884 132.861 295.746 133.667L304.546 142.88ZM286.231 142C282.106 142 279.063 141.028 277.101 139.085C275.158 137.123 274.186 134.08 274.186 129.955V117.305C274.186 113.143 275.158 110.1 277.101 108.175C279.063 106.232 282.097 105.278 286.204 105.315H292.831C296.956 105.315 299.99 106.287 301.934 108.23C303.877 110.173 304.849 113.217 304.849 117.36V129.955C304.849 134.08 303.877 137.123 301.934 139.085C299.99 141.028 296.956 142 292.831 142H286.231ZM286.231 137.958H292.831C294.829 137.958 296.406 137.71 297.561 137.215C298.734 136.72 299.569 135.895 300.064 134.74C300.559 133.567 300.806 131.972 300.806 129.955V117.36C300.806 115.362 300.559 113.785 300.064 112.63C299.569 111.457 298.734 110.622 297.561 110.127C296.406 109.614 294.829 109.357 292.831 109.357H286.204C284.205 109.339 282.629 109.577 281.474 110.072C280.319 110.549 279.484 111.374 278.971 112.547C278.476 113.702 278.229 115.288 278.229 117.305V129.955C278.229 131.972 278.476 133.567 278.971 134.74C279.466 135.895 280.291 136.72 281.446 137.215C282.619 137.71 284.214 137.958 286.231 137.958Z" fill="black"/>
<path d="M70.6363 74.085L69.9258 74.7888L69.9325 74.7954L70.6363 74.085ZM70.6363 43.2025L69.9292 42.4954L69.9292 42.4954L70.6363 43.2025ZM79.7113 40.315L79.7068 41.315H79.7113V40.315ZM94.1213 42.46L93.4907 43.2361L93.4956 43.2401L94.1213 42.46ZM97.1463 49.17L96.1498 49.2535L96.1519 49.2788L96.1553 49.3039L97.1463 49.17ZM96.7613 50.7375L97.4684 51.4446L97.4775 51.4355L97.4863 51.4262L96.7613 50.7375ZM93.1038 49.225L92.1077 49.3129L92.1097 49.336L92.1128 49.3589L93.1038 49.225ZM91.3163 45.4025L90.7547 46.23L90.765 46.2368L91.3163 45.4025ZM74.9813 45.1L75.3628 46.0245L75.3752 46.0191L74.9813 45.1ZM72.5063 47.575L73.4254 47.9689L73.4277 47.9637L72.5063 47.575ZM72.5063 69.74L71.5849 70.1287L71.5871 70.1339L72.5063 69.74ZM74.9813 72.215L74.5874 73.1342L74.5926 73.1364L74.9813 72.215ZM91.3163 71.94L91.8676 72.7744L91.8778 72.7675L91.3163 71.94ZM93.1038 68.09L92.1128 67.9561L92.1097 67.979L92.1077 68.0021L93.1038 68.09ZM96.7613 66.605L96.0363 67.2937L96.0451 67.303L96.0542 67.3121L96.7613 66.605ZM97.1463 68.145L96.1553 68.0111L96.1519 68.0364L96.1497 68.062L97.1463 68.145ZM94.1213 74.8825L93.4956 74.1024L93.4956 74.1024L94.1213 74.8825ZM79.7663 76C75.7762 76 73.0395 75.0581 71.3401 73.3746L69.9325 74.7954C72.1564 76.9985 75.5064 78 79.7663 78V76ZM71.3467 73.3812C69.6631 71.6818 68.7213 68.9451 68.7213 64.955H66.7213C66.7213 69.2149 67.7228 72.5649 69.9259 74.7888L71.3467 73.3812ZM68.7213 64.955V52.36H66.7213V64.955H68.7213ZM68.7213 52.36C68.7213 48.3293 69.665 45.588 71.3434 43.9096L69.9292 42.4954C67.721 44.7036 66.7213 48.0674 66.7213 52.36H68.7213ZM71.3434 43.9096C73.0223 42.2307 75.7362 41.2973 79.7068 41.315L79.7158 39.315C75.473 39.2961 72.1369 40.2877 69.9292 42.4954L71.3434 43.9096ZM79.7113 41.315H86.3663V39.315H79.7113V41.315ZM86.3663 41.315C89.6576 41.315 91.9793 42.0081 93.4907 43.2361L94.7519 41.6839C92.7433 40.0519 89.895 39.315 86.3663 39.315V41.315ZM93.4956 43.2401C94.9731 44.4252 95.9075 46.3629 96.1498 49.2535L98.1428 49.0865C97.8718 45.8538 96.7894 43.3181 94.747 41.6799L93.4956 43.2401ZM96.1553 49.3039C96.2217 49.795 96.1082 49.973 96.0363 50.0488L97.4863 51.4262C98.111 50.7686 98.2543 49.9017 98.1373 49.0361L96.1553 49.3039ZM96.0542 50.0304C95.955 50.1296 95.7365 50.26 95.2213 50.26V52.26C96.0627 52.26 96.8709 52.0421 97.4684 51.4446L96.0542 50.0304ZM95.2213 50.26C94.7965 50.26 94.5858 50.1477 94.4636 50.0302C94.3274 49.8994 94.1681 49.6333 94.0948 49.0911L92.1128 49.3589C92.2229 50.1734 92.5081 50.9248 93.0777 51.4723C93.6614 52.0331 94.4178 52.26 95.2213 52.26V50.26ZM94.0999 49.1371C93.9225 47.1261 93.2591 45.4876 91.8675 44.5682L90.765 46.2368C91.4268 46.6741 91.9551 47.5839 92.1077 49.3129L94.0999 49.1371ZM91.8778 44.575C90.5969 43.7058 88.696 43.3575 86.3663 43.3575V45.3575C88.5832 45.3575 89.9824 45.7058 90.7548 46.23L91.8778 44.575ZM86.3663 43.3575H79.7113V45.3575H86.3663V43.3575ZM79.7113 43.3575C77.6484 43.3575 75.9186 43.6103 74.5874 44.1809L75.3752 46.0191C76.3539 45.5997 77.7775 45.3575 79.7113 45.3575V43.3575ZM74.5998 44.1756C73.1961 44.7549 72.1801 45.7755 71.5849 47.1863L73.4277 47.9637C73.8225 47.0278 74.4564 46.3984 75.3628 46.0244L74.5998 44.1756ZM71.5871 47.1811C71.0159 48.514 70.7638 50.2634 70.7638 52.36H72.7638C72.7638 50.3866 73.0067 48.946 73.4254 47.9689L71.5871 47.1811ZM70.7638 52.36V64.955H72.7638V52.36H70.7638ZM70.7638 64.955C70.7638 67.0361 71.0166 68.7816 71.5849 70.1287L73.4277 69.3513C73.006 68.3517 72.7638 66.9073 72.7638 64.955H70.7638ZM71.5871 70.1339C72.1833 71.5249 73.1964 72.538 74.5874 73.1341L75.3752 71.2959C74.4562 70.902 73.8193 70.2651 73.4254 69.3461L71.5871 70.1339ZM74.5926 73.1364C75.9397 73.7047 77.6852 73.9575 79.7663 73.9575V71.9575C77.814 71.9575 76.3695 71.7153 75.37 71.2936L74.5926 73.1364ZM79.7663 73.9575H86.3663V71.9575H79.7663V73.9575ZM86.3663 73.9575C88.6932 73.9575 90.5892 73.6189 91.8675 72.7743L90.765 71.1057C89.99 71.6177 88.5861 71.9575 86.3663 71.9575V73.9575ZM91.8778 72.7675C93.2589 71.8303 93.9223 70.1909 94.0999 68.1779L92.1077 68.0021C91.9553 69.7291 91.427 70.6564 90.7548 71.1125L91.8778 72.7675ZM94.0948 68.2239C94.1681 67.6817 94.3274 67.4156 94.4636 67.2848C94.5858 67.1673 94.7965 67.055 95.2213 67.055V65.055C94.4178 65.055 93.6614 65.2819 93.0777 65.8427C92.5081 66.3902 92.2229 67.1416 92.1128 67.9561L94.0948 68.2239ZM95.2213 67.055C95.7227 67.055 95.9346 67.1867 96.0363 67.2937L97.4863 65.9162C96.8913 65.2899 96.0765 65.055 95.2213 65.055V67.055ZM96.0542 67.3121C96.1041 67.362 96.2225 67.5137 96.1553 68.0111L98.1373 68.2789C98.2534 67.4196 98.1152 66.5447 97.4684 65.8979L96.0542 67.3121ZM96.1497 68.062C95.9072 70.9729 94.9718 72.9184 93.4956 74.1024L94.747 75.6626C96.7908 74.0233 97.8721 71.4771 98.1428 68.228L96.1497 68.062ZM93.4956 74.1024C91.9838 75.315 89.6599 76 86.3663 76V78C89.8926 78 92.7388 77.2733 94.747 75.6626L93.4956 74.1024ZM86.3663 76H79.7663V78H86.3663V76ZM130.534 77.0825L130.011 76.2299L129.998 76.2378L129.986 76.246L130.534 77.0825ZM129.021 77.4125L128.761 78.3781L128.761 78.3781L129.021 77.4125ZM127.784 76.4225L126.93 76.9433L126.939 76.957L126.947 76.9705L127.784 76.4225ZM119.094 62.1775L119.948 61.6567L119.655 61.1775H119.094V62.1775ZM110.596 62.1775V61.1775H109.596V62.1775H110.596ZM128.966 42.9275L128.256 43.6309L128.259 43.6346L128.966 42.9275ZM129.544 58.905L128.76 58.2834L128.756 58.2887L129.544 58.905ZM123.769 62.0125L123.618 61.0239L122.133 61.2499L122.915 62.5329L123.769 62.0125ZM131.276 74.3325L132.147 73.8409L132.139 73.8264L132.13 73.8121L131.276 74.3325ZM110.596 58.135H109.596V59.135H110.596V58.135ZM126.106 45.7875L125.392 46.4877L125.399 46.4946L126.106 45.7875ZM110.596 44.3575V43.3575H109.596V44.3575H110.596ZM129.986 76.246C129.62 76.486 129.408 76.481 129.281 76.4469L128.761 78.3781C129.588 78.6006 130.385 78.3757 131.082 77.919L129.986 76.246ZM129.281 76.4469C129.103 76.399 128.874 76.2616 128.62 75.8745L126.947 76.9705C127.39 77.6467 127.986 78.1694 128.761 78.3781L129.281 76.4469ZM128.638 75.9017L119.948 61.6567L118.24 62.6983L126.93 76.9433L128.638 75.9017ZM119.094 61.1775H110.596V63.1775H119.094V61.1775ZM109.596 62.1775V74.965H111.596V62.1775H109.596ZM109.596 74.965C109.596 75.4926 109.466 75.7039 109.383 75.789C109.301 75.8715 109.1 76 108.589 76V78C109.416 78 110.219 77.7893 110.806 77.1935C111.392 76.6002 111.596 75.7941 111.596 74.965H109.596ZM108.589 76C108.065 76 107.855 75.8696 107.77 75.7841C107.684 75.6987 107.554 75.4892 107.554 74.965H105.554C105.554 75.7975 105.763 76.6055 106.356 77.1984C106.948 77.7912 107.756 78 108.589 78V76ZM107.554 74.965V42.35H105.554V74.965H107.554ZM107.554 42.35C107.554 41.8258 107.684 41.6163 107.77 41.5309C107.855 41.4454 108.065 41.315 108.589 41.315V39.315C107.756 39.315 106.948 39.5238 106.356 40.1166C105.763 40.7095 105.554 41.5175 105.554 42.35H107.554ZM108.589 41.315H121.459V39.315H108.589V41.315ZM121.459 41.315C124.567 41.315 126.777 42.1366 128.256 43.6309L129.677 42.2241C127.709 40.2351 124.914 39.315 121.459 39.315V41.315ZM128.259 43.6346C129.737 45.1127 130.551 47.3239 130.551 50.435H132.551C132.551 46.9827 131.642 44.189 129.673 42.2204L128.259 43.6346ZM130.551 50.435V52.085H132.551V50.435H130.551ZM130.551 52.085C130.551 54.7935 129.919 56.824 128.761 58.2834L130.327 59.5266C131.846 57.6126 132.551 55.0965 132.551 52.085H130.551ZM128.756 58.2887C127.623 59.7366 125.949 60.6693 123.618 61.0239L123.919 63.0011C126.649 62.5857 128.824 61.4468 130.331 59.5213L128.756 58.2887ZM122.915 62.5329L130.422 74.8529L132.13 73.8121L124.623 61.4921L122.915 62.5329ZM130.406 74.8241C130.647 75.2511 130.64 75.4896 130.607 75.6118C130.572 75.7389 130.45 75.9608 130.011 76.2299L131.056 77.9351C131.754 77.5075 132.324 76.9228 132.537 76.1332C132.752 75.3387 132.548 74.5505 132.147 73.8409L130.406 74.8241ZM110.596 59.135H121.459V57.135H110.596V59.135ZM121.459 59.135C123.727 59.135 125.602 58.6514 126.813 57.4396L125.399 56.0254C124.741 56.6836 123.518 57.135 121.459 57.135V59.135ZM126.813 57.4396C128.025 56.2278 128.509 54.3528 128.509 52.085H126.509C126.509 54.1439 126.057 55.3672 125.399 56.0254L126.813 57.4396ZM128.509 52.085V50.435H126.509V52.085H128.509ZM128.509 50.435C128.509 48.1672 128.025 46.2922 126.813 45.0804L125.399 46.4946C126.057 47.1528 126.509 48.3761 126.509 50.435H128.509ZM126.82 45.0873C125.609 43.8522 123.731 43.3575 121.459 43.3575V45.3575C123.514 45.3575 124.734 45.8162 125.392 46.4877L126.82 45.0873ZM121.459 43.3575H110.596V45.3575H121.459V43.3575ZM109.596 44.3575V58.135H111.596V44.3575H109.596ZM148.271 63.415H149.271V63.1265L149.117 62.8824L148.271 63.415ZM135.758 43.5325L134.9 44.045L134.906 44.0551L134.912 44.0651L135.758 43.5325ZM136.391 40.7L135.874 39.8437L135.85 39.8584L135.827 39.8744L136.391 40.7ZM139.196 41.3325L140.044 40.8026L140.038 40.7938L139.196 41.3325ZM150.278 59.07L149.43 59.5999L150.262 60.9309L151.117 59.6148L150.278 59.07ZM161.801 41.3325L160.964 40.7845L160.962 40.7877L161.801 41.3325ZM163.038 40.3975L163.227 41.3795L163.245 41.376L163.263 41.3719L163.038 40.3975ZM164.551 40.7825L163.983 41.6057L164.006 41.6217L164.031 41.6364L164.551 40.7825ZM165.183 43.5325L164.353 42.9747L164.349 42.9818L164.344 42.9891L165.183 43.5325ZM152.313 63.415L151.474 62.8716L151.313 63.1196V63.415H152.313ZM150.278 76C149.767 76 149.566 75.8715 149.485 75.789C149.401 75.7039 149.271 75.4926 149.271 74.965H147.271C147.271 75.7941 147.476 76.6002 148.061 77.1935C148.649 77.7893 149.452 78 150.278 78V76ZM149.271 74.965V63.415H147.271V74.965H149.271ZM149.117 62.8824L136.605 42.9999L134.912 44.0651L147.425 63.9476L149.117 62.8824ZM136.617 43.02C136.36 42.5892 136.352 42.3326 136.384 42.1898C136.416 42.0456 136.535 41.813 136.955 41.5256L135.827 39.8744C135.147 40.3387 134.61 40.9539 134.432 41.7539C134.253 42.5553 134.479 43.3392 134.9 44.045L136.617 43.02ZM136.907 41.5563C137.355 41.2866 137.61 41.2821 137.738 41.3111C137.863 41.3393 138.082 41.447 138.353 41.8712L140.038 40.7938C139.595 40.0996 138.988 39.5428 138.178 39.3601C137.372 39.1783 136.582 39.4167 135.874 39.8437L136.907 41.5563ZM138.348 41.8624L149.43 59.5999L151.127 58.5401L140.044 40.8026L138.348 41.8624ZM151.117 59.6148L162.64 41.8773L160.962 40.7877L149.44 58.5252L151.117 59.6148ZM162.637 41.8805C162.885 41.502 163.091 41.4056 163.227 41.3795L162.85 39.4155C162.032 39.5727 161.413 40.0997 160.964 40.7845L162.637 41.8805ZM163.263 41.3719C163.386 41.3436 163.605 41.3448 163.983 41.6057L165.119 39.9593C164.434 39.4869 163.644 39.2314 162.814 39.4231L163.263 41.3719ZM164.031 41.6364C164.493 41.9185 164.593 42.1351 164.615 42.2304C164.635 42.3201 164.643 42.5441 164.353 42.9747L166.013 44.0903C166.476 43.4026 166.754 42.609 166.564 41.7821C166.375 40.9607 165.782 40.3615 165.071 39.9286L164.031 41.6364ZM164.344 42.9891L151.474 62.8716L153.153 63.9584L166.023 44.0759L164.344 42.9891ZM151.313 63.415V74.965H153.313V63.415H151.313ZM151.313 74.965C151.313 75.4892 151.183 75.6987 151.098 75.7841C151.012 75.8696 150.803 76 150.278 76V78C151.111 78 151.919 77.7912 152.512 77.1984C153.105 76.6055 153.313 75.7975 153.313 74.965H151.313ZM194.655 42.9275L193.944 43.6309L193.948 43.6346L194.655 42.9275ZM194.655 59.5925L195.362 60.2996L195.362 60.2996L194.655 59.5925ZM176.285 62.1775V61.1775H175.285V62.1775H176.285ZM176.285 58.135H175.285V59.135H176.285V58.135ZM191.795 45.7875L191.081 46.4877L191.088 46.4946L191.795 45.7875ZM176.285 44.3575V43.3575H175.285V44.3575H176.285ZM174.277 76C173.753 76 173.544 75.8696 173.458 75.7841C173.373 75.6987 173.242 75.4892 173.242 74.965H171.242C171.242 75.7975 171.451 76.6055 172.044 77.1984C172.637 77.7912 173.445 78 174.277 78V76ZM173.242 74.965V42.35H171.242V74.965H173.242ZM173.242 42.35C173.242 41.8258 173.373 41.6163 173.458 41.5309C173.544 41.4454 173.753 41.315 174.277 41.315V39.315C173.445 39.315 172.637 39.5238 172.044 40.1166C171.451 40.7095 171.242 41.5175 171.242 42.35H173.242ZM174.277 41.315H187.147V39.315H174.277V41.315ZM187.147 41.315C190.256 41.315 192.465 42.1366 193.944 43.6309L195.366 42.2241C193.398 40.2351 190.602 39.315 187.147 39.315V41.315ZM193.948 43.6346C195.426 45.1127 196.24 47.3239 196.24 50.435H198.24C198.24 46.9827 197.331 44.189 195.362 42.2204L193.948 43.6346ZM196.24 50.435V52.085H198.24V50.435H196.24ZM196.24 52.085C196.24 55.1961 195.426 57.4073 193.948 58.8854L195.362 60.2996C197.331 58.331 198.24 55.5373 198.24 52.085H196.24ZM193.948 58.8854C192.47 60.3635 190.258 61.1775 187.147 61.1775V63.1775C190.6 63.1775 193.393 62.2682 195.362 60.2996L193.948 58.8854ZM187.147 61.1775H176.285V63.1775H187.147V61.1775ZM175.285 62.1775V74.965H177.285V62.1775H175.285ZM175.285 74.965C175.285 75.4926 175.155 75.7039 175.071 75.789C174.99 75.8715 174.789 76 174.277 76V78C175.104 78 175.907 77.7893 176.495 77.1935C177.08 76.6002 177.285 75.7941 177.285 74.965H175.285ZM176.285 59.135H187.147V57.135H176.285V59.135ZM187.147 59.135C189.415 59.135 191.29 58.6514 192.502 57.4396L191.088 56.0254C190.43 56.6836 189.206 57.135 187.147 57.135V59.135ZM192.502 57.4396C193.714 56.2278 194.197 54.3528 194.197 52.085H192.197C192.197 54.1439 191.746 55.3672 191.088 56.0254L192.502 57.4396ZM194.197 52.085V50.435H192.197V52.085H194.197ZM194.197 50.435C194.197 48.1672 193.714 46.2922 192.502 45.0804L191.088 46.4946C191.746 47.1528 192.197 48.3761 192.197 50.435H194.197ZM192.509 45.0873C191.297 43.8522 189.419 43.3575 187.147 43.3575V45.3575C189.202 45.3575 190.422 45.8162 191.081 46.4877L192.509 45.0873ZM187.147 43.3575H176.285V45.3575H187.147V43.3575ZM175.285 44.3575V58.135H177.285V44.3575H175.285ZM214.439 76.505L213.731 77.2121L213.741 77.2217L213.751 77.231L214.439 76.505ZM213.916 44.385H214.916V43.385H213.916V44.385ZM201.404 43.89L200.696 44.5971L200.706 44.6067L200.716 44.6159L201.404 43.89ZM201.404 40.865L202.111 41.5721L202.111 41.5721L201.404 40.865ZM230.471 40.865L229.745 41.5527L229.754 41.5626L229.764 41.5721L230.471 40.865ZM217.959 44.385V43.385H216.959V44.385H217.959ZM217.436 76.4775L218.143 77.1846L218.152 77.1755L218.161 77.1662L217.436 76.4775ZM215.951 76C215.45 76 215.229 75.8759 215.126 75.779L213.751 77.231C214.345 77.7941 215.132 78 215.951 78V76ZM215.146 75.7979C215.042 75.6939 214.916 75.4802 214.916 74.9925H212.916C212.916 75.8248 213.139 76.6194 213.731 77.2121L215.146 75.7979ZM214.916 74.9925V44.385H212.916V74.9925H214.916ZM213.916 43.385H202.916V45.385H213.916V43.385ZM202.916 43.385C202.415 43.385 202.194 43.2609 202.091 43.164L200.716 44.6159C201.31 45.1791 202.097 45.385 202.916 45.385V43.385ZM202.111 43.1829C202.007 43.0789 201.881 42.8652 201.881 42.3775H199.881C199.881 43.2098 200.104 44.0044 200.696 44.5971L202.111 43.1829ZM201.881 42.3775C201.881 41.8898 202.007 41.6761 202.111 41.5721L200.696 40.1579C200.104 40.7506 199.881 41.5452 199.881 42.3775H201.881ZM202.111 41.5721C202.215 41.4681 202.428 41.3425 202.916 41.3425V39.3425C202.084 39.3425 201.289 39.5652 200.696 40.1579L202.111 41.5721ZM202.916 41.3425H228.986V39.3425H202.916V41.3425ZM228.986 41.3425C229.478 41.3425 229.666 41.4696 229.745 41.5527L231.197 40.1773C230.616 39.5637 229.814 39.3425 228.986 39.3425V41.3425ZM229.764 41.5721C229.868 41.6761 229.994 41.8898 229.994 42.3775H231.994C231.994 41.5452 231.771 40.7506 231.178 40.1579L229.764 41.5721ZM229.994 42.3775C229.994 42.8652 229.868 43.0789 229.764 43.1829L231.178 44.5971C231.771 44.0044 231.994 43.2098 231.994 42.3775H229.994ZM229.764 43.1829C229.688 43.2592 229.492 43.385 228.986 43.385V45.385C229.8 45.385 230.594 45.1808 231.178 44.5971L229.764 43.1829ZM228.986 43.385H217.959V45.385H228.986V43.385ZM216.959 44.385V74.9925H218.959V44.385H216.959ZM216.959 74.9925C216.959 75.4222 216.844 75.6489 216.711 75.7888L218.161 77.1662C218.725 76.5727 218.959 75.8094 218.959 74.9925H216.959ZM216.729 75.7704C216.62 75.8794 216.411 76 215.951 76V78C216.774 78 217.555 77.7723 218.143 77.1846L216.729 75.7704ZM237.516 74.085L236.806 74.7888L236.812 74.7954L237.516 74.085ZM237.516 43.175L238.22 43.8854L238.22 43.8854L237.516 43.175ZM246.619 40.315L246.61 41.315H246.619V40.315ZM262.349 43.23L261.642 43.9371L261.642 43.9371L262.349 43.23ZM262.349 74.085L263.056 74.7921L263.059 74.7888L262.349 74.085ZM257.976 72.215L257.587 71.2936L257.582 71.2959L257.976 72.215ZM260.479 69.74L261.398 70.1339L261.4 70.1287L260.479 69.74ZM260.479 47.63L259.557 48.0187L259.56 48.0239L260.479 47.63ZM257.976 45.1275L257.57 46.0413L257.579 46.0452L257.587 46.0489L257.976 45.1275ZM246.619 44.3575L246.609 45.3575H246.619V44.3575ZM241.889 45.0725L242.27 45.997L242.283 45.9916L241.889 45.0725ZM239.386 47.5475L238.47 47.1467L238.467 47.1536L239.386 47.5475ZM239.386 69.74L238.465 70.1287L238.467 70.1339L239.386 69.74ZM241.861 72.215L241.467 73.1342L241.472 73.1364L241.861 72.215ZM246.646 76C242.656 76 239.919 75.0581 238.22 73.3746L236.812 74.7954C239.036 76.9985 242.386 78 246.646 78V76ZM238.227 73.3812C236.543 71.6818 235.601 68.9451 235.601 64.955H233.601C233.601 69.2149 234.603 72.5649 236.806 74.7888L238.227 73.3812ZM235.601 64.955V52.305H233.601V64.955H235.601ZM235.601 52.305C235.601 48.2733 236.545 45.5443 238.22 43.8854L236.812 42.4645C234.6 44.6557 233.601 48.0134 233.601 52.305H235.601ZM238.22 43.8854C239.917 42.2044 242.641 41.2795 246.61 41.315L246.628 39.315C242.383 39.2771 239.039 40.2589 236.812 42.4646L238.22 43.8854ZM246.619 41.315H253.246V39.315H246.619V41.315ZM253.246 41.315C257.237 41.315 259.962 42.2572 261.642 43.9371L263.056 42.5229C260.849 40.3161 257.505 39.315 253.246 39.315V41.315ZM261.642 43.9371C263.321 45.6163 264.264 48.3491 264.264 52.36H266.264C266.264 48.0842 265.263 44.7304 263.056 42.5229L261.642 43.9371ZM264.264 52.36V64.955H266.264V52.36H264.264ZM264.264 64.955C264.264 68.9451 263.322 71.6818 261.638 73.3812L263.059 74.7888C265.262 72.5649 266.264 69.2149 266.264 64.955H264.264ZM261.642 73.3779C259.962 75.0577 257.237 76 253.246 76V78C257.505 78 260.849 76.9989 263.056 74.7921L261.642 73.3779ZM253.246 76H246.646V78H253.246V76ZM246.646 73.9575H253.246V71.9575H246.646V73.9575ZM253.246 73.9575C255.309 73.9575 257.039 73.7047 258.37 73.1341L257.582 71.2959C256.604 71.7153 255.18 71.9575 253.246 71.9575V73.9575ZM258.365 73.1364C259.773 72.5423 260.799 71.5303 261.398 70.1339L259.56 69.3461C259.168 70.2597 258.526 70.8977 257.587 71.2936L258.365 73.1364ZM261.4 70.1287C261.968 68.7816 262.221 67.0361 262.221 64.955H260.221C260.221 66.9073 259.979 68.3517 259.557 69.3513L261.4 70.1287ZM262.221 64.955V52.36H260.221V64.955H262.221ZM262.221 52.36C262.221 50.2971 261.968 48.5674 261.398 47.2361L259.56 48.0239C259.979 49.0026 260.221 50.4263 260.221 52.36H262.221ZM261.4 47.2413C260.804 45.8278 259.778 44.8025 258.365 44.2061L257.587 46.0489C258.521 46.4425 259.164 47.0856 259.557 48.0187L261.4 47.2413ZM258.382 44.2137C257.047 43.6201 255.312 43.3575 253.246 43.3575V45.3575C255.177 45.3575 256.596 45.6082 257.57 46.0413L258.382 44.2137ZM253.246 43.3575H246.619V45.3575H253.246V43.3575ZM246.628 43.3575C244.564 43.3386 242.83 43.5811 241.495 44.1534L242.283 45.9916C243.257 45.5739 244.677 45.3397 246.609 45.3575L246.628 43.3575ZM241.507 44.1481C240.106 44.7262 239.084 45.7428 238.47 47.1467L240.302 47.9483C240.715 47.0055 241.361 46.3721 242.27 45.9969L241.507 44.1481ZM238.467 47.1536C237.896 48.4857 237.644 50.2252 237.644 52.305H239.644C239.644 50.3514 239.886 48.9193 240.305 47.9414L238.467 47.1536ZM237.644 52.305V64.955H239.644V52.305H237.644ZM237.644 64.955C237.644 67.0361 237.896 68.7816 238.465 70.1287L240.308 69.3513C239.886 68.3517 239.644 66.9073 239.644 64.955H237.644ZM238.467 70.1339C239.063 71.5249 240.076 72.538 241.467 73.1341L242.255 71.2959C241.336 70.902 240.699 70.2651 240.305 69.3461L238.467 70.1339ZM241.472 73.1364C242.82 73.7047 244.565 73.9575 246.646 73.9575V71.9575C244.694 71.9575 243.249 71.7153 242.25 71.2936L241.472 73.1364ZM35.0165 140.295L34.0637 140.599L34.0648 140.602L35.0165 140.295ZM24.7315 108.01L25.6844 107.706L25.6802 107.694L24.7315 108.01ZM24.979 106.195L24.1353 105.658L24.1295 105.667L24.1238 105.677L24.979 106.195ZM27.7565 105.672L27.1633 106.478L27.1869 106.495L27.2115 106.511L27.7565 105.672ZM28.5265 106.8L27.565 107.075L27.569 107.089L27.5735 107.103L28.5265 106.8ZM37.7665 135.867V136.867H39.1337L38.7195 135.565L37.7665 135.867ZM36.694 135.867L35.7372 135.577L35.3447 136.867H36.694V135.867ZM45.4665 107.02L44.5148 106.713L44.5122 106.721L44.5097 106.729L45.4665 107.02ZM46.374 105.755L46.9203 106.593L46.9287 106.587L46.374 105.755ZM49.124 105.755L48.5849 106.597L48.5971 106.605L48.6095 106.612L49.124 105.755ZM50.0315 107.02L49.0632 107.27L49.0685 107.291L49.0747 107.311L50.0315 107.02ZM58.804 135.867V136.867H60.1533L59.7607 135.577L58.804 135.867ZM57.7315 135.867L56.7785 135.565L56.3643 136.867H57.7315V135.867ZM66.9715 106.8L66.0297 106.464L66.0238 106.48L66.0185 106.497L66.9715 106.8ZM67.714 105.672L67.1285 104.862L67.1174 104.87L67.1065 104.878L67.714 105.672ZM70.519 106.167L69.6911 106.728L69.7015 106.744L69.7126 106.759L70.519 106.167ZM70.794 108.01L69.8428 107.701L69.8414 107.706L70.794 108.01ZM60.4815 140.295L61.4332 140.602L61.4341 140.599L60.4815 140.295ZM56.1365 140.295L57.0968 140.016L57.0943 140.008L57.0917 139.999L56.1365 140.295ZM47.089 111.09V110.09H45.7323L46.1338 111.386L47.089 111.09ZM48.1615 111.09L49.1164 111.387L49.5194 110.09H48.1615V111.09ZM39.0865 140.295L38.1315 139.998L38.1263 140.015L38.1217 140.032L39.0865 140.295ZM38.344 141.615L38.9579 142.404L38.9712 142.394L38.9842 142.383L38.344 141.615ZM36.914 141C36.6964 141 36.5559 140.939 36.4342 140.83C36.292 140.702 36.1181 140.453 35.9682 139.988L34.0648 140.602C34.2815 141.274 34.6072 141.877 35.0975 142.318C35.6083 142.777 36.2333 143 36.914 143V141ZM35.9693 139.991L25.6843 107.706L23.7787 108.314L34.0637 140.599L35.9693 139.991ZM25.6802 107.694C25.5822 107.4 25.6009 107.098 25.8342 106.713L24.1238 105.677C23.6237 106.502 23.4775 107.41 23.7828 108.326L25.6802 107.694ZM25.8226 106.732C26.0191 106.423 26.2557 106.287 26.6565 106.287V104.287C25.5906 104.287 24.7089 104.757 24.1353 105.658L25.8226 106.732ZM26.6565 106.287C26.8019 106.287 26.9645 106.331 27.1633 106.478L28.3497 104.867C27.8518 104.501 27.2811 104.287 26.6565 104.287V106.287ZM27.2115 106.511C27.3337 106.59 27.4693 106.74 27.565 107.075L29.488 106.525C29.2903 105.833 28.9126 105.231 28.3015 104.834L27.2115 106.511ZM27.5735 107.103L36.8135 136.17L38.7195 135.565L29.4795 106.497L27.5735 107.103ZM37.7665 134.867H36.694V136.867H37.7665V134.867ZM37.6507 136.158L46.4232 107.311L44.5097 106.729L35.7372 135.577L37.6507 136.158ZM46.4182 107.327C46.5448 106.934 46.7248 106.72 46.9203 106.593L45.8277 104.917C45.1799 105.34 44.7548 105.969 44.5148 106.713L46.4182 107.327ZM46.9287 106.587C47.2304 106.386 47.4896 106.315 47.7215 106.315V104.315C47.0367 104.315 46.3976 104.537 45.8193 104.923L46.9287 106.587ZM47.7215 106.315C47.9811 106.315 48.2641 106.392 48.5849 106.597L49.663 104.913C49.0672 104.531 48.4152 104.315 47.7215 104.315V106.315ZM48.6095 106.612C48.8195 106.739 48.9751 106.928 49.0632 107.27L50.9998 106.77C50.7945 105.975 50.3451 105.321 49.6385 104.898L48.6095 106.612ZM49.0747 107.311L57.8472 136.158L59.7607 135.577L50.9882 106.729L49.0747 107.311ZM58.804 134.867H57.7315V136.867H58.804V134.867ZM58.6845 136.17L67.9245 107.103L66.0185 106.497L56.7785 135.565L58.6845 136.17ZM67.9132 107.136C68.056 106.737 68.2119 106.551 68.3214 106.467L67.1065 104.878C66.5928 105.271 66.2536 105.837 66.0297 106.464L67.9132 107.136ZM68.2995 106.483C68.4608 106.367 68.6229 106.315 68.814 106.315V104.315C68.1984 104.315 67.6272 104.502 67.1285 104.862L68.2995 106.483ZM68.814 106.315C69.271 106.315 69.512 106.464 69.6911 106.728L71.3469 105.607C70.756 104.734 69.8603 104.315 68.814 104.315V106.315ZM69.7126 106.759C69.9158 107.036 69.9689 107.313 69.8428 107.701L71.7452 108.319C72.0591 107.351 71.9288 106.399 71.3254 105.576L69.7126 106.759ZM69.8414 107.706L59.5289 139.991L61.4341 140.599L71.7466 108.314L69.8414 107.706ZM59.5298 139.988C59.3876 140.429 59.2096 140.666 59.05 140.795C58.9014 140.914 58.695 141 58.364 141V143C59.0779 143 59.747 142.801 60.3043 142.353C60.8504 141.913 61.2087 141.298 61.4332 140.602L59.5298 139.988ZM58.364 141H58.254V143H58.364V141ZM58.254 141C57.8954 141 57.683 140.91 57.5405 140.795C57.3898 140.673 57.222 140.447 57.0968 140.016L55.1761 140.574C55.3809 141.279 55.7311 141.906 56.2862 142.353C56.8496 142.806 57.5309 143 58.254 143V141ZM57.0917 139.999L48.0442 110.794L46.1338 111.386L55.1813 140.591L57.0917 139.999ZM47.089 112.09H48.1615V110.09H47.089V112.09ZM47.2065 110.793L38.1315 139.998L40.0414 140.592L49.1164 111.387L47.2065 110.793ZM38.1217 140.032C37.987 140.526 37.8192 140.751 37.7038 140.847L38.9842 142.383C39.5287 141.929 39.856 141.274 40.0512 140.558L38.1217 140.032ZM37.73 140.826C37.6433 140.893 37.4194 141 36.914 141V143C37.6552 143 38.3847 142.85 38.9579 142.404L37.73 140.826ZM73.7949 141.807L74.1805 140.885L74.1734 140.882L74.1663 140.879L73.7949 141.807ZM72.6399 139.14L71.7153 138.759L71.7133 138.764L72.6399 139.14ZM85.9224 106.91L85.0041 106.514L85.0009 106.522L84.9979 106.529L85.9224 106.91ZM88.3149 105.315L88.3675 104.316L88.3412 104.315H88.3149V105.315ZM90.4599 106.91L89.5257 107.267L89.531 107.281L89.5368 107.294L90.4599 106.91ZM103.88 139.14L104.807 138.764L104.803 138.756L103.88 139.14ZM102.78 141.807L103.144 142.739L103.153 142.736L103.161 142.732L102.78 141.807ZM100.14 140.707L101.068 140.334L101.063 140.322L100.14 140.707ZM96.9224 133.007L97.8451 132.622L97.5884 132.007H96.9224V133.007ZM79.5149 133.007V132.007H78.8401L78.5876 132.633L79.5149 133.007ZM76.4074 140.707L77.3321 141.088L77.3348 141.082L76.4074 140.707ZM81.1099 128.965L80.1831 128.59L79.6259 129.965H81.1099V128.965ZM95.2724 128.965V129.965H96.7719L96.1956 128.581L95.2724 128.965ZM88.0949 111.722L89.0181 111.338L88.0823 109.09L87.1681 111.347L88.0949 111.722ZM74.1663 140.879C73.6645 140.678 73.5112 140.473 73.4613 140.358C73.4128 140.246 73.3689 140.003 73.5665 139.516L71.7133 138.764C71.3977 139.542 71.2896 140.376 71.626 141.153C71.9611 141.927 72.642 142.423 73.4235 142.736L74.1663 140.879ZM73.5645 139.521L86.847 107.291L84.9979 106.529L71.7154 138.759L73.5645 139.521ZM86.8407 107.306C87.0157 106.9 87.2159 106.666 87.4074 106.53C87.5921 106.399 87.8328 106.315 88.1774 106.315V104.315C87.4771 104.315 86.8194 104.496 86.2525 104.897C85.6923 105.294 85.2875 105.857 85.0041 106.514L86.8407 107.306ZM88.1774 106.315H88.3149V104.315H88.1774V106.315ZM88.2624 106.314C88.6232 106.333 88.8648 106.429 89.0382 106.557C89.2136 106.688 89.3866 106.902 89.5257 107.267L91.3941 106.553C91.1482 105.909 90.7712 105.354 90.2316 104.953C89.69 104.55 89.0517 104.352 88.3675 104.316L88.2624 106.314ZM89.5368 107.294L102.957 139.524L104.803 138.756L91.3831 106.526L89.5368 107.294ZM102.953 139.516C103.153 140.008 103.113 140.258 103.065 140.374C103.019 140.488 102.877 140.686 102.399 140.883L103.161 142.732C103.93 142.415 104.594 141.913 104.914 141.137C105.233 140.364 105.12 139.537 104.807 138.764L102.953 139.516ZM102.416 140.876C101.922 141.07 101.671 141.029 101.556 140.981C101.446 140.935 101.255 140.798 101.067 140.334L99.2124 141.081C99.5203 141.845 100.016 142.506 100.787 142.827C101.551 143.145 102.373 143.04 103.144 142.739L102.416 140.876ZM101.063 140.322L97.8451 132.622L95.9997 133.393L99.2172 141.093L101.063 140.322ZM96.9224 132.007H79.5149V134.007H96.9224V132.007ZM78.5876 132.633L75.4801 140.333L77.3348 141.082L80.4423 133.382L78.5876 132.633ZM75.4827 140.327C75.2834 140.811 75.0858 140.952 74.9812 140.996C74.8798 141.039 74.6499 141.081 74.1805 140.885L73.4093 142.73C74.1683 143.047 74.988 143.163 75.7574 142.839C76.5236 142.516 77.0181 141.851 77.3321 141.088L75.4827 140.327ZM81.1099 129.965H95.2724V127.965H81.1099V129.965ZM96.1956 128.581L89.0181 111.338L87.1717 112.107L94.3492 129.349L96.1956 128.581ZM87.1681 111.347L80.1831 128.59L82.0368 129.34L89.0218 112.098L87.1681 111.347ZM116.631 141.505L115.924 142.212L115.933 142.222L115.943 142.231L116.631 141.505ZM116.108 109.385H117.108V108.385H116.108V109.385ZM103.596 108.89L102.889 109.597L102.898 109.607L102.908 109.616L103.596 108.89ZM103.596 105.865L104.303 106.572L104.303 106.572L103.596 105.865ZM132.663 105.865L131.937 106.553L131.947 106.563L131.956 106.572L132.663 105.865ZM120.151 109.385V108.385H119.151V109.385H120.151ZM119.628 141.477L120.336 142.185L120.345 142.176L120.353 142.166L119.628 141.477ZM118.143 141C117.642 141 117.421 140.876 117.319 140.779L115.943 142.231C116.538 142.794 117.325 143 118.143 143V141ZM117.338 140.798C117.234 140.694 117.108 140.48 117.108 139.992H115.108C115.108 140.825 115.331 141.619 115.924 142.212L117.338 140.798ZM117.108 139.992V109.385H115.108V139.992H117.108ZM116.108 108.385H105.108V110.385H116.108V108.385ZM105.108 108.385C104.607 108.385 104.386 108.261 104.284 108.164L102.908 109.616C103.503 110.179 104.29 110.385 105.108 110.385V108.385ZM104.303 108.183C104.199 108.079 104.073 107.865 104.073 107.377H102.073C102.073 108.21 102.296 109.004 102.889 109.597L104.303 108.183ZM104.073 107.377C104.073 106.89 104.199 106.676 104.303 106.572L102.889 105.158C102.296 105.751 102.073 106.545 102.073 107.377H104.073ZM104.303 106.572C104.407 106.468 104.621 106.342 105.108 106.342V104.342C104.276 104.342 103.481 104.565 102.889 105.158L104.303 106.572ZM105.108 106.342H131.178V104.342H105.108V106.342ZM131.178 106.342C131.67 106.342 131.859 106.47 131.937 106.553L133.389 105.177C132.808 104.564 132.007 104.342 131.178 104.342V106.342ZM131.956 106.572C132.06 106.676 132.186 106.89 132.186 107.377H134.186C134.186 106.545 133.963 105.751 133.371 105.158L131.956 106.572ZM132.186 107.377C132.186 107.865 132.06 108.079 131.956 108.183L133.371 109.597C133.963 109.004 134.186 108.21 134.186 107.377H132.186ZM131.956 108.183C131.88 108.259 131.684 108.385 131.178 108.385V110.385C131.993 110.385 132.787 110.181 133.371 109.597L131.956 108.183ZM131.178 108.385H120.151V110.385H131.178V108.385ZM119.151 109.385V139.992H121.151V109.385H119.151ZM119.151 139.992C119.151 140.422 119.036 140.649 118.903 140.789L120.353 142.166C120.917 141.573 121.151 140.809 121.151 139.992H119.151ZM118.921 140.77C118.812 140.879 118.603 141 118.143 141V143C118.967 143 119.748 142.772 120.336 142.185L118.921 140.77ZM139.709 139.085L138.998 139.789L139.005 139.795L139.709 139.085ZM139.709 108.202L139.001 107.495L139.001 107.495L139.709 108.202ZM148.784 105.315L148.779 106.315H148.784V105.315ZM163.194 107.46L162.563 108.236L162.568 108.24L163.194 107.46ZM166.219 114.17L165.222 114.254L165.224 114.279L165.228 114.304L166.219 114.17ZM165.834 115.737L166.541 116.445L166.55 116.436L166.559 116.426L165.834 115.737ZM162.176 114.225L161.18 114.313L161.182 114.336L161.185 114.359L162.176 114.225ZM160.389 110.402L159.827 111.23L159.837 111.237L160.389 110.402ZM144.054 110.1L144.435 111.024L144.447 111.019L144.054 110.1ZM141.579 112.575L142.498 112.969L142.5 112.964L141.579 112.575ZM141.579 134.74L140.657 135.129L140.659 135.134L141.579 134.74ZM144.054 137.215L143.66 138.134L143.665 138.136L144.054 137.215ZM160.389 136.94L160.94 137.774L160.95 137.767L160.389 136.94ZM162.176 133.09L161.185 132.956L161.182 132.979L161.18 133.002L162.176 133.09ZM165.834 131.605L165.109 132.294L165.117 132.303L165.126 132.312L165.834 131.605ZM166.219 133.145L165.228 133.011L165.224 133.036L165.222 133.062L166.219 133.145ZM163.194 139.882L162.568 139.102L162.568 139.102L163.194 139.882ZM148.839 141C144.848 141 142.112 140.058 140.412 138.375L139.005 139.795C141.229 141.999 144.579 143 148.839 143V141ZM140.419 138.381C138.735 136.682 137.794 133.945 137.794 129.955H135.794C135.794 134.215 136.795 137.565 138.998 139.789L140.419 138.381ZM137.794 129.955V117.36H135.794V129.955H137.794ZM137.794 117.36C137.794 113.329 138.737 110.588 140.416 108.91L139.001 107.495C136.793 109.704 135.794 113.067 135.794 117.36H137.794ZM140.416 108.91C142.095 107.231 144.809 106.297 148.779 106.315L148.788 104.315C144.545 104.296 141.209 105.288 139.001 107.495L140.416 108.91ZM148.784 106.315H155.439V104.315H148.784V106.315ZM155.439 106.315C158.73 106.315 161.052 107.008 162.563 108.236L163.824 106.684C161.816 105.052 158.967 104.315 155.439 104.315V106.315ZM162.568 108.24C164.045 109.425 164.98 111.363 165.222 114.254L167.215 114.086C166.944 110.854 165.862 108.318 163.819 106.68L162.568 108.24ZM165.228 114.304C165.294 114.795 165.18 114.973 165.109 115.049L166.559 116.426C167.183 115.769 167.327 114.902 167.21 114.036L165.228 114.304ZM165.126 115.03C165.027 115.13 164.809 115.26 164.294 115.26V117.26C165.135 117.26 165.943 117.042 166.541 116.445L165.126 115.03ZM164.294 115.26C163.869 115.26 163.658 115.148 163.536 115.03C163.4 114.899 163.24 114.633 163.167 114.091L161.185 114.359C161.295 115.173 161.58 115.925 162.15 116.472C162.734 117.033 163.49 117.26 164.294 117.26V115.26ZM163.172 114.137C162.995 112.126 162.331 110.488 160.94 109.568L159.837 111.237C160.499 111.674 161.027 112.584 161.18 114.313L163.172 114.137ZM160.95 109.575C159.669 108.706 157.768 108.357 155.439 108.357V110.357C157.655 110.357 159.055 110.706 159.827 111.23L160.95 109.575ZM155.439 108.357H148.784V110.357H155.439V108.357ZM148.784 108.357C146.721 108.357 144.991 108.61 143.66 109.181L144.447 111.019C145.426 110.6 146.85 110.357 148.784 110.357V108.357ZM143.672 109.176C142.268 109.755 141.252 110.775 140.657 112.186L142.5 112.964C142.895 112.028 143.529 111.398 144.435 111.024L143.672 109.176ZM140.659 112.181C140.088 113.514 139.836 115.263 139.836 117.36H141.836C141.836 115.387 142.079 113.946 142.498 112.969L140.659 112.181ZM139.836 117.36V129.955H141.836V117.36H139.836ZM139.836 129.955C139.836 132.036 140.089 133.782 140.657 135.129L142.5 134.351C142.078 133.352 141.836 131.907 141.836 129.955H139.836ZM140.659 135.134C141.256 136.525 142.269 137.538 143.66 138.134L144.447 136.296C143.528 135.902 142.892 135.265 142.498 134.346L140.659 135.134ZM143.665 138.136C145.012 138.705 146.757 138.958 148.839 138.958V136.958C146.886 136.958 145.442 136.715 144.442 136.294L143.665 138.136ZM148.839 138.958H155.439V136.958H148.839V138.958ZM155.439 138.958C157.765 138.958 159.661 138.619 160.94 137.774L159.837 136.106C159.062 136.618 157.658 136.958 155.439 136.958V138.958ZM160.95 137.767C162.331 136.83 162.995 135.191 163.172 133.178L161.18 133.002C161.028 134.729 160.499 135.656 159.827 136.113L160.95 137.767ZM163.167 133.224C163.24 132.682 163.4 132.416 163.536 132.285C163.658 132.167 163.869 132.055 164.294 132.055V130.055C163.49 130.055 162.734 130.282 162.15 130.843C161.58 131.39 161.295 132.142 161.185 132.956L163.167 133.224ZM164.294 132.055C164.795 132.055 165.007 132.187 165.109 132.294L166.559 130.916C165.964 130.29 165.149 130.055 164.294 130.055V132.055ZM165.126 132.312C165.176 132.362 165.295 132.514 165.228 133.011L167.21 133.279C167.326 132.42 167.187 131.545 166.541 130.898L165.126 132.312ZM165.222 133.062C164.979 135.973 164.044 137.918 162.568 139.102L163.819 140.663C165.863 139.023 166.944 136.477 167.215 133.228L165.222 133.062ZM162.568 139.102C161.056 140.315 158.732 141 155.439 141V143C158.965 143 161.811 142.273 163.819 140.663L162.568 139.102ZM155.439 141H148.839V143H155.439V141ZM176.231 105.92L176.938 106.627L176.938 106.627L176.231 105.92ZM179.064 105.92L178.34 106.61L178.348 106.619L178.357 106.627L179.064 105.92ZM179.669 121.402H178.669V122.402H179.669V121.402ZM202.329 121.402V122.402H203.329V121.402H202.329ZM202.906 105.92L203.629 106.61L203.629 106.61L202.906 105.92ZM205.766 105.92L205.059 106.627L205.059 106.627L205.766 105.92ZM205.766 141.395L205.059 140.688L205.766 141.395ZM202.329 125.445H203.329V124.445H202.329V125.445ZM179.669 125.445V124.445H178.669V125.445H179.669ZM179.064 141.395L178.357 140.688L178.348 140.696L178.34 140.705L179.064 141.395ZM177.661 141C177.387 141 177.162 140.911 176.938 140.688L175.524 142.102C176.107 142.685 176.835 143 177.661 143V141ZM176.938 140.688C176.715 140.464 176.626 140.239 176.626 139.965H174.626C174.626 140.791 174.941 141.519 175.524 142.102L176.938 140.688ZM176.626 139.965V107.35H174.626V139.965H176.626ZM176.626 107.35C176.626 107.076 176.715 106.851 176.938 106.627L175.524 105.213C174.941 105.796 174.626 106.524 174.626 107.35H176.626ZM176.938 106.627C177.162 106.404 177.387 106.315 177.661 106.315V104.315C176.835 104.315 176.107 104.63 175.524 105.213L176.938 106.627ZM177.661 106.315C177.934 106.315 178.141 106.402 178.34 106.61L179.787 105.23C179.216 104.632 178.489 104.315 177.661 104.315V106.315ZM178.357 106.627C178.58 106.851 178.669 107.076 178.669 107.35H180.669C180.669 106.524 180.354 105.796 179.771 105.213L178.357 106.627ZM178.669 107.35V121.402H180.669V107.35H178.669ZM179.669 122.402H202.329V120.402H179.669V122.402ZM203.329 121.402V107.35H201.329V121.402H203.329ZM203.329 107.35C203.329 107.061 203.419 106.831 203.629 106.61L202.183 105.23C201.623 105.816 201.329 106.539 201.329 107.35H203.329ZM203.629 106.61C203.822 106.409 204.035 106.315 204.336 106.315V104.315C203.5 104.315 202.761 104.624 202.183 105.23L203.629 106.61ZM204.336 106.315C204.61 106.315 204.835 106.404 205.059 106.627L206.473 105.213C205.89 104.63 205.162 104.315 204.336 104.315V106.315ZM205.059 106.627C205.283 106.851 205.371 107.076 205.371 107.35H207.371C207.371 106.524 207.056 105.796 206.473 105.213L205.059 106.627ZM205.371 107.35V139.965H207.371V107.35H205.371ZM205.371 139.965C205.371 140.239 205.283 140.464 205.059 140.688L206.473 142.102C207.056 141.519 207.371 140.791 207.371 139.965H205.371ZM205.059 140.688C204.835 140.911 204.61 141 204.336 141V143C205.162 143 205.89 142.685 206.473 142.102L205.059 140.688ZM204.336 141C204.035 141 203.822 140.906 203.629 140.705L202.183 142.085C202.761 142.691 203.5 143 204.336 143V141ZM203.629 140.705C203.419 140.484 203.329 140.254 203.329 139.965H201.329C201.329 140.776 201.623 141.499 202.183 142.085L203.629 140.705ZM203.329 139.965V125.445H201.329V139.965H203.329ZM202.329 124.445H179.669V126.445H202.329V124.445ZM178.669 125.445V139.965H180.669V125.445H178.669ZM178.669 139.965C178.669 140.239 178.58 140.464 178.357 140.688L179.771 142.102C180.354 141.519 180.669 140.791 180.669 139.965H178.669ZM178.34 140.705C178.141 140.913 177.934 141 177.661 141V143C178.489 143 179.216 142.683 179.787 142.085L178.34 140.705ZM234.132 105.92L234.839 106.627L234.839 106.627L234.132 105.92ZM236.964 105.92L236.241 106.61L236.249 106.619L236.257 106.627L236.964 105.92ZM237.569 121.402H236.569V122.402H237.569V121.402ZM260.229 121.402V122.402H261.229V121.402H260.229ZM260.807 105.92L261.53 106.61L261.53 106.61L260.807 105.92ZM263.667 105.92L262.959 106.627L262.959 106.627L263.667 105.92ZM263.667 141.395L262.959 140.688L263.667 141.395ZM260.229 125.445H261.229V124.445H260.229V125.445ZM237.569 125.445V124.445H236.569V125.445H237.569ZM236.964 141.395L236.257 140.688L236.249 140.696L236.241 140.705L236.964 141.395ZM235.562 141C235.288 141 235.062 140.911 234.839 140.688L233.424 142.102C234.008 142.685 234.736 143 235.562 143V141ZM234.839 140.688C234.615 140.464 234.527 140.239 234.527 139.965H232.527C232.527 140.791 232.841 141.519 233.424 142.102L234.839 140.688ZM234.527 139.965V107.35H232.527V139.965H234.527ZM234.527 107.35C234.527 107.076 234.615 106.851 234.839 106.627L233.424 105.213C232.841 105.796 232.527 106.524 232.527 107.35H234.527ZM234.839 106.627C235.062 106.404 235.288 106.315 235.562 106.315V104.315C234.736 104.315 234.008 104.63 233.424 105.213L234.839 106.627ZM235.562 106.315C235.834 106.315 236.041 106.402 236.241 106.61L237.687 105.23C237.117 104.632 236.389 104.315 235.562 104.315V106.315ZM236.257 106.627C236.48 106.851 236.569 107.076 236.569 107.35H238.569C238.569 106.524 238.254 105.796 237.671 105.213L236.257 106.627ZM236.569 107.35V121.402H238.569V107.35H236.569ZM237.569 122.402H260.229V120.402H237.569V122.402ZM261.229 121.402V107.35H259.229V121.402H261.229ZM261.229 107.35C261.229 107.061 261.32 106.831 261.53 106.61L260.083 105.23C259.523 105.816 259.229 106.539 259.229 107.35H261.229ZM261.53 106.61C261.722 106.409 261.936 106.315 262.237 106.315V104.315C261.401 104.315 260.661 104.624 260.083 105.23L261.53 106.61ZM262.237 106.315C262.511 106.315 262.736 106.404 262.959 106.627L264.374 105.213C263.791 104.63 263.063 104.315 262.237 104.315V106.315ZM262.959 106.627C263.183 106.851 263.272 107.076 263.272 107.35H265.272C265.272 106.524 264.957 105.796 264.374 105.213L262.959 106.627ZM263.272 107.35V139.965H265.272V107.35H263.272ZM263.272 139.965C263.272 140.239 263.183 140.464 262.959 140.688L264.374 142.102C264.957 141.519 265.272 140.791 265.272 139.965H263.272ZM262.959 140.688C262.736 140.911 262.511 141 262.237 141V143C263.063 143 263.791 142.685 264.374 142.102L262.959 140.688ZM262.237 141C261.936 141 261.722 140.906 261.53 140.705L260.083 142.085C260.661 142.691 261.401 143 262.237 143V141ZM261.53 140.705C261.32 140.484 261.229 140.254 261.229 139.965H259.229C259.229 140.776 259.523 141.499 260.083 142.085L261.53 140.705ZM261.229 139.965V125.445H259.229V139.965H261.229ZM260.229 124.445H237.569V126.445H260.229V124.445ZM236.569 125.445V139.965H238.569V125.445H236.569ZM236.569 139.965C236.569 140.239 236.48 140.464 236.257 140.688L237.671 142.102C238.254 141.519 238.569 140.791 238.569 139.965H236.569ZM236.241 140.705C236.041 140.913 235.834 141 235.562 141V143C236.389 143 237.117 142.683 237.687 142.085L236.241 140.705ZM304.546 142.88L305.271 142.191L305.269 142.189L304.546 142.88ZM305.041 144.063L304.042 144.019L304.041 144.041V144.063H305.041ZM304.409 145.3L303.734 144.562L303.726 144.569L303.718 144.577L304.409 145.3ZM301.934 145.273L301.208 145.961L301.229 145.983L301.251 146.003L301.934 145.273ZM293.189 136.06L293.914 135.372L293.905 135.362L293.896 135.353L293.189 136.06ZM293.216 133.64L293.889 134.38L293.898 134.372L293.907 134.363L293.216 133.64ZM295.746 133.667L296.469 132.977L296.45 132.957L296.43 132.937L295.746 133.667ZM277.101 139.085L276.391 139.789L276.397 139.795L277.101 139.085ZM277.101 108.175L277.805 108.885L277.805 108.885L277.101 108.175ZM286.204 105.315L286.195 106.315H286.204V105.315ZM301.934 108.23L301.227 108.937L301.227 108.937L301.934 108.23ZM301.934 139.085L302.641 139.792L302.644 139.789L301.934 139.085ZM297.561 137.215L297.172 136.294L297.167 136.296L297.561 137.215ZM300.064 134.74L300.983 135.134L300.985 135.129L300.064 134.74ZM300.064 112.63L299.142 113.019L299.144 113.024L300.064 112.63ZM297.561 110.127L297.155 111.041L297.164 111.045L297.172 111.049L297.561 110.127ZM286.204 109.357L286.194 110.357H286.204V109.357ZM281.474 110.072L281.855 110.997L281.868 110.992L281.474 110.072ZM278.971 112.547L278.055 112.147L278.052 112.154L278.971 112.547ZM278.971 134.74L278.05 135.129L278.052 135.134L278.971 134.74ZM281.446 137.215L281.052 138.134L281.057 138.136L281.446 137.215ZM303.821 143.569C304.022 143.781 304.046 143.921 304.042 144.019L306.04 144.106C306.073 143.36 305.766 142.713 305.271 142.191L303.821 143.569ZM304.041 144.063C304.041 144.144 304.014 144.306 303.734 144.562L305.083 146.038C305.647 145.524 306.041 144.861 306.041 144.063H304.041ZM303.718 144.577C303.436 144.846 303.267 144.871 303.196 144.871C303.118 144.87 302.929 144.834 302.617 144.542L301.251 146.003C301.782 146.5 302.427 146.862 303.174 146.871C303.928 146.879 304.575 146.524 305.099 146.023L303.718 144.577ZM302.659 144.584L293.914 135.372L292.463 136.748L301.208 145.961L302.659 144.584ZM293.896 135.353C293.641 135.098 293.611 134.935 293.611 134.85H291.611C291.611 135.608 291.966 136.252 292.482 136.767L293.896 135.353ZM293.611 134.85C293.611 134.757 293.64 134.606 293.889 134.38L292.543 132.9C291.985 133.408 291.611 134.063 291.611 134.85H293.611ZM293.907 134.363C294.199 134.084 294.377 134.055 294.457 134.056C294.543 134.057 294.741 134.097 295.063 134.398L296.43 132.937C295.889 132.432 295.235 132.064 294.478 132.056C293.714 132.047 293.058 132.408 292.525 132.917L293.907 134.363ZM295.023 134.358L303.823 143.571L305.269 142.189L296.469 132.977L295.023 134.358ZM286.231 141C282.241 141 279.504 140.058 277.805 138.375L276.397 139.795C278.621 141.999 281.971 143 286.231 143V141ZM277.812 138.381C276.128 136.682 275.186 133.945 275.186 129.955H273.186C273.186 134.215 274.188 137.565 276.391 139.789L277.812 138.381ZM275.186 129.955V117.305H273.186V129.955H275.186ZM275.186 117.305C275.186 113.273 276.13 110.544 277.805 108.885L276.397 107.465C274.185 109.656 273.186 113.013 273.186 117.305H275.186ZM277.805 108.885C279.502 107.204 282.226 106.28 286.195 106.315L286.213 104.315C281.968 104.277 278.624 105.259 276.397 107.465L277.805 108.885ZM286.204 106.315H292.831V104.315H286.204V106.315ZM292.831 106.315C296.822 106.315 299.547 107.257 301.227 108.937L302.641 107.523C300.434 105.316 297.09 104.315 292.831 104.315V106.315ZM301.227 108.937C302.906 110.616 303.849 113.349 303.849 117.36H305.849C305.849 113.084 304.848 109.73 302.641 107.523L301.227 108.937ZM303.849 117.36V129.955H305.849V117.36H303.849ZM303.849 129.955C303.849 133.945 302.907 136.682 301.223 138.381L302.644 139.789C304.847 137.565 305.849 134.215 305.849 129.955H303.849ZM301.227 138.378C299.547 140.058 296.822 141 292.831 141V143C297.09 143 300.434 141.999 302.641 139.792L301.227 138.378ZM292.831 141H286.231V143H292.831V141ZM286.231 138.958H292.831V136.958H286.231V138.958ZM292.831 138.958C294.894 138.958 296.624 138.705 297.955 138.134L297.167 136.296C296.188 136.715 294.765 136.958 292.831 136.958V138.958ZM297.95 138.136C299.358 137.542 300.384 136.53 300.983 135.134L299.144 134.346C298.753 135.26 298.111 135.898 297.172 136.294L297.95 138.136ZM300.985 135.129C301.553 133.782 301.806 132.036 301.806 129.955H299.806C299.806 131.907 299.564 133.352 299.142 134.351L300.985 135.129ZM301.806 129.955V117.36H299.806V129.955H301.806ZM301.806 117.36C301.806 115.297 301.553 113.567 300.983 112.236L299.144 113.024C299.564 114.003 299.806 115.426 299.806 117.36H301.806ZM300.985 112.241C300.389 110.828 299.363 109.802 297.95 109.206L297.172 111.049C298.106 111.443 298.749 112.086 299.142 113.019L300.985 112.241ZM297.967 109.214C296.632 108.62 294.897 108.357 292.831 108.357V110.357C294.762 110.357 296.181 110.608 297.155 111.041L297.967 109.214ZM292.831 108.357H286.204V110.357H292.831V108.357ZM286.213 108.358C284.149 108.339 282.415 108.581 281.08 109.153L281.868 110.992C282.842 110.574 284.262 110.34 286.194 110.357L286.213 108.358ZM281.092 109.148C279.691 109.726 278.669 110.743 278.055 112.147L279.887 112.948C280.3 112.006 280.946 111.372 281.855 110.997L281.092 109.148ZM278.052 112.154C277.481 113.486 277.229 115.225 277.229 117.305H279.229C279.229 115.351 279.471 113.919 279.89 112.941L278.052 112.154ZM277.229 117.305V129.955H279.229V117.305H277.229ZM277.229 129.955C277.229 132.036 277.481 133.782 278.05 135.129L279.892 134.351C279.471 133.352 279.229 131.907 279.229 129.955H277.229ZM278.052 135.134C278.648 136.525 279.661 137.538 281.052 138.134L281.84 136.296C280.921 135.902 280.284 135.265 279.89 134.346L278.052 135.134ZM281.057 138.136C282.405 138.705 284.15 138.958 286.231 138.958V136.958C284.279 136.958 282.834 136.715 281.835 136.294L281.057 138.136Z" fill="#2FB834" mask="url(#path-4-outside-1_1_8)"/>
<defs>
<clipPath id="clip0_1_8">
<rect width="175" height="175" fill="white" transform="translate(79)"/>
</clipPath>
</defs>
</svg>
